<?xml version="1.0" encoding="UTF-8"?>
<svg id="Layer_2" data-name="Layer 2" xmlns="http://www.w3.org/2000/svg" viewBox="0 0 375.49 375.49">
  <defs>
    <style>
      .cls-1 {
        fill: #00a7e1;
      }

      .cls-2 {
        fill: #fff;
        stroke: #00a7e1;
        stroke-miterlimit: 10;
        stroke-width: 4px;
      }
    </style>
  </defs>
  <g id="_圖層_2" data-name="圖層 2">
    <rect class="cls-2" x="2" y="2" width="371.49" height="371.49" rx="47.32" ry="47.32"/>
    <g>
      <path class="cls-1" d="M41.53,286.89c2.15-.34,4.68-.79,7.6-1.35,2.92-.56,5.93-1.14,9.02-1.74l.39,4.77c-2.79.6-5.55,1.21-8.28,1.84-2.73.62-5.27,1.21-7.63,1.77l-1.09-5.28ZM42.11,244.31h20.87v5.48h-20.87v-5.48ZM45.27,247.21h4.51v40.84h-4.51v-40.84ZM47.91,257.97h10.24v5.02h-10.24v-5.02ZM47.91,271.17h10.24v5.09h-10.24v-5.09ZM55.51,247.14h4.7v54.36h-4.7v-54.36ZM62.21,260.93h39.23v5.28h-39.23v-5.28ZM63.37,248.3h19.32v4.77h-19.32v-4.77ZM64.59,269.24h4.7v27.57h-4.7v-27.57ZM64.65,254.17l4.25-.71c.43,1.33.81,2.77,1.13,4.32.32,1.55.55,2.88.68,3.99l-4.51.84c-.09-1.07-.28-2.41-.58-3.99-.3-1.59-.62-3.07-.97-4.44ZM66.39,269.24h15.33v24.67h-4.64v-20.35h-10.69v-4.32ZM66.71,278.58h12.75v4.25h-12.75v-4.25ZM66.71,287.98h12.62v4.25h-12.62v-4.25ZM68.71,242.96l5.02-.9c.56,1.2,1.12,2.54,1.67,4.03.56,1.48.94,2.76,1.16,3.83l-5.22,1.09c-.22-1.03-.59-2.32-1.13-3.86-.54-1.55-1.04-2.94-1.51-4.19ZM76.38,253.39l4.83.84c-.47,1.46-.93,2.95-1.38,4.48-.45,1.52-.87,2.85-1.26,3.96l-4.06-.77c.34-1.2.7-2.61,1.06-4.22.36-1.61.63-3.04.81-4.28ZM96.34,268.98l4.64,2.38c-1.42,4.38-3.25,8.44-5.51,12.17s-4.79,7.09-7.6,10.05c-2.81,2.96-5.74,5.45-8.79,7.47-.39-.47-.92-1.05-1.61-1.74s-1.33-1.25-1.93-1.67c3.05-1.93,5.9-4.3,8.57-7.12,2.66-2.81,5.06-6.04,7.18-9.69,2.13-3.65,3.81-7.6,5.06-11.85ZM84.36,241.73h5.15c.04,5.67.16,11.11.35,16.33.19,5.22.48,10.05.87,14.49.39,4.44.83,8.31,1.32,11.59.49,3.29,1.08,5.85,1.77,7.7.69,1.85,1.44,2.79,2.25,2.83.47,0,.88-.77,1.22-2.32.34-1.55.6-3.67.77-6.38.3.34.7.74,1.19,1.19.49.45.99.85,1.48,1.19.49.34.89.62,1.19.84-.47,3.18-1.03,5.66-1.67,7.44-.64,1.78-1.35,3-2.13,3.67s-1.52,1-2.25,1c-1.8-.04-3.35-1.03-4.64-2.96-1.29-1.93-2.35-4.69-3.19-8.28-.84-3.58-1.51-7.85-2.03-12.79-.52-4.94-.9-10.41-1.16-16.42-.26-6.01-.43-12.39-.52-19.13ZM90.68,247.21l4.38-1.55c.64,1.2,1.3,2.48,1.96,3.83.67,1.35,1.25,2.68,1.74,3.99.49,1.31.87,2.44,1.13,3.38l-4.64,1.87c-.26-1.03-.62-2.21-1.09-3.54-.47-1.33-1.01-2.69-1.61-4.09-.6-1.39-1.22-2.69-1.87-3.9Z"/>
      <path class="cls-1" d="M124.81,241.6l5.41,1.16c-.52,2.45-1.15,4.91-1.9,7.38-.75,2.47-1.57,4.79-2.45,6.96-.88,2.17-1.81,4.09-2.8,5.76-.39-.26-.87-.58-1.45-.97s-1.18-.75-1.8-1.09c-.62-.34-1.17-.6-1.64-.77,1.55-2.28,2.87-5.07,3.96-8.37,1.1-3.31,1.99-6.66,2.67-10.05ZM119.34,265.05h26.54v5.6h-26.54v-5.6ZM121.27,274.39h4.9v15.14h15.52v5.35h-20.42v-20.48ZM124.88,249.01h19.65v5.54h-19.65v-5.54ZM130.16,251.91h5.41v40.39h-5.41v-40.39ZM139.69,274.46h5.09v22.54h-5.09v-22.54ZM157.67,241.73h5.67v23c0,3.35-.15,6.71-.45,10.08-.3,3.37-.92,6.65-1.87,9.82-.94,3.18-2.38,6.21-4.32,9.08-1.93,2.88-4.51,5.52-7.73,7.92-.3-.43-.71-.91-1.22-1.45-.52-.54-1.06-1.05-1.64-1.55-.58-.49-1.11-.87-1.58-1.13,2.96-2.15,5.32-4.5,7.09-7.05,1.76-2.55,3.08-5.26,3.96-8.12.88-2.86,1.45-5.76,1.71-8.73.26-2.96.39-5.93.39-8.89v-23ZM147.42,271.04h31.69v5.67h-31.69v-5.67ZM148.45,252.43h26.67v21.58h-5.54v-15.85h-21.13v-5.73ZM164.24,280.77l5.02-1.87c1.16,2.1,2.36,4.38,3.61,6.83,1.25,2.45,2.44,4.82,3.57,7.12,1.14,2.3,2.05,4.3,2.74,6.02l-5.48,2.25c-.6-1.72-1.43-3.75-2.48-6.09-1.05-2.34-2.19-4.77-3.41-7.28-1.22-2.51-2.42-4.84-3.57-6.99Z"/>
      <path class="cls-1" d="M226.2,241.09l4.9,3.41c-2.19,3.52-4.97,6.92-8.34,10.21-3.37,3.29-7.08,6.24-11.11,8.86-4.04,2.62-8.12,4.77-12.24,6.44-.39-.9-.93-1.91-1.64-3.03-.71-1.12-1.41-2.06-2.09-2.83,3.09-.99,6.14-2.28,9.15-3.87,3.01-1.59,5.85-3.4,8.53-5.44,2.68-2.04,5.13-4.23,7.34-6.57,2.21-2.34,4.05-4.73,5.51-7.18ZM211.45,267.69h6.38v7.86c0,2.15-.15,4.38-.45,6.7-.3,2.32-.92,4.62-1.87,6.89-.95,2.28-2.37,4.48-4.28,6.6-1.91,2.13-4.5,4.07-7.76,5.83-.34-.47-.82-.99-1.42-1.55-.6-.56-1.22-1.11-1.87-1.64-.64-.54-1.22-.98-1.74-1.32,2.96-1.55,5.3-3.21,7.02-4.99,1.72-1.78,3.02-3.61,3.9-5.48.88-1.87,1.45-3.76,1.71-5.67.26-1.91.39-3.72.39-5.44v-7.79ZM229.23,245.21c1.42,1.93,3.13,3.83,5.15,5.7,2.02,1.87,4.27,3.61,6.76,5.22,2.49,1.61,5.12,3.04,7.89,4.28,2.77,1.25,5.57,2.23,8.41,2.96-.43.43-.93.99-1.51,1.67-.58.69-1.12,1.4-1.61,2.13-.49.73-.89,1.37-1.19,1.93-2.96-.94-5.83-2.15-8.6-3.61-2.77-1.46-5.43-3.15-7.99-5.06-2.56-1.91-4.91-3.96-7.05-6.15-2.15-2.19-4.04-4.49-5.67-6.89l5.41-2.19ZM235.6,267.63h6.51v33.95h-6.51v-33.95Z"/>
      <path class="cls-1" d="M275.28,266.47c-.09-.39-.24-.91-.45-1.58-.22-.67-.44-1.34-.68-2.03-.24-.69-.48-1.27-.74-1.74.6-.21,1.2-.62,1.8-1.22.6-.6,1.22-1.39,1.87-2.38.39-.47.91-1.25,1.58-2.32.67-1.07,1.42-2.35,2.25-3.83s1.67-3.08,2.51-4.8c.84-1.72,1.58-3.46,2.22-5.22l5.54,2.32c-1.63,3.56-3.54,7.1-5.73,10.6-2.19,3.5-4.4,6.54-6.63,9.11v.13c-.69.43-1.27.79-1.74,1.09-.47.3-.89.61-1.26.93-.37.32-.55.63-.55.93ZM276.44,283.6l5.09.9c-.3,2.79-.72,5.63-1.26,8.5-.54,2.88-1.15,5.3-1.84,7.28-.39-.21-.88-.43-1.48-.64-.6-.22-1.2-.43-1.8-.64-.6-.21-1.12-.39-1.55-.52.73-1.93,1.32-4.24,1.77-6.92.45-2.68.81-5.33,1.06-7.96ZM275.73,281.22c-.09-.43-.25-.99-.48-1.67-.24-.69-.47-1.4-.71-2.13-.24-.73-.48-1.35-.74-1.87.77-.13,1.55-.57,2.32-1.32.77-.75,1.7-1.73,2.77-2.93.52-.56,1.29-1.5,2.32-2.83,1.03-1.33,2.2-2.91,3.51-4.73,1.31-1.83,2.61-3.81,3.9-5.96s2.49-4.32,3.61-6.51l5.22,3.29c-1.67,2.88-3.5,5.72-5.48,8.53-1.98,2.81-4.03,5.5-6.15,8.05-2.13,2.56-4.26,4.86-6.41,6.92v.19c-.73.39-1.34.73-1.84,1.03-.49.3-.92.62-1.29.97-.37.34-.55.67-.55.97ZM275.28,266.47l-.19-4.32,2.71-1.61,11.4-.97c-.17.73-.31,1.58-.42,2.54-.11.97-.16,1.75-.16,2.35-2.58.26-4.66.48-6.25.68-1.59.19-2.86.37-3.8.52-.95.15-1.65.29-2.13.42-.47.13-.86.26-1.16.39ZM275.73,281.22l-.26-4.45,2.77-1.8,17.39-2.19c-.09.73-.16,1.58-.23,2.54-.06.97-.08,1.73-.03,2.29-3.95.56-7.14,1.04-9.56,1.45-2.43.41-4.31.73-5.64.97-1.33.24-2.32.44-2.96.61-.64.17-1.14.37-1.48.58ZM283.98,284.31l4.64-.84c.43,2.23.82,4.64,1.16,7.21.34,2.58.56,4.81.64,6.7l-4.9,1.03c-.04-1.29-.14-2.74-.29-4.35-.15-1.61-.33-3.27-.55-4.99-.22-1.72-.45-3.31-.71-4.77ZM290.36,267.56l4.57-1.35c.6,1.46,1.18,3.02,1.74,4.67.56,1.65,1.05,3.25,1.48,4.8.43,1.55.77,2.88,1.03,3.99l-4.96,1.67c-.17-1.16-.46-2.52-.87-4.09-.41-1.57-.87-3.2-1.38-4.9-.52-1.7-1.05-3.29-1.61-4.8ZM291,283.02l4.44-1.35c.77,1.85,1.49,3.85,2.16,6.02.67,2.17,1.15,4.05,1.45,5.64l-4.77,1.67c-.3-1.63-.76-3.56-1.39-5.8-.62-2.23-1.26-4.29-1.9-6.18ZM310.32,247.14h6.05c-.22,2.66-.58,5.24-1.09,7.73-.52,2.49-1.26,4.83-2.22,7.02-.97,2.19-2.3,4.18-3.99,5.96-1.7,1.78-3.83,3.36-6.41,4.73-.39-.69-.95-1.48-1.67-2.38-.73-.9-1.42-1.63-2.06-2.19,3-1.46,5.28-3.26,6.83-5.41s2.65-4.55,3.32-7.21c.67-2.66,1.08-5.41,1.26-8.24ZM299.57,244.95h27.18v5.28h-27.18v-5.28ZM301.31,274.91h28.66v26.34h-6.31v-20.93h-16.43v21.19h-5.93v-26.6ZM304.65,293.26h21.71v5.35h-21.71v-5.35ZM325.98,244.95h5.8c0,1.16-.02,1.93-.06,2.32-.22,4.64-.45,8.4-.71,11.27-.26,2.88-.57,5.09-.93,6.63-.37,1.55-.83,2.66-1.39,3.35-.6.69-1.22,1.17-1.87,1.45s-1.42.48-2.32.61c-.82.13-1.88.19-3.19.19s-2.7-.04-4.15-.13c-.04-.86-.2-1.81-.48-2.87-.28-1.05-.68-1.94-1.19-2.67,1.37.09,2.61.15,3.7.19,1.09.04,1.92.06,2.48.06.47,0,.87-.05,1.19-.16.32-.11.61-.29.87-.55.39-.43.72-1.31,1-2.64.28-1.33.52-3.29.71-5.89.19-2.6.38-6.04.55-10.34v-.84Z"/>
    </g>
    <g>
      <path class="cls-1" d="M216.35,78.18c-1.97,0-3.57-1.6-3.57-3.57v-13.79c0-5.27-4.29-9.56-9.56-9.56h-30.94c-5.27,0-9.56,4.29-9.56,9.56v13.79c0,1.97-1.6,3.57-3.57,3.57s-3.57-1.6-3.57-3.57v-13.79c0-9.21,7.49-16.7,16.7-16.7h30.94c9.21,0,16.7,7.49,16.7,16.7v13.79c0,1.97-1.6,3.57-3.57,3.57Z"/>
      <g>
        <path class="cls-1" d="M128.83,130.04c1.32.78,2.82,1.19,4.35,1.19h109.14c1.53,0,3.03-.41,4.35-1.19l27.87-16.49v-18.17c0-6.13-5.01-11.14-11.14-11.14H112.1c-6.13,0-11.14,5.01-11.14,11.14v18.17l27.87,16.49Z"/>
        <path class="cls-1" d="M250.3,136.19c-2.42,1.43-5.18,2.19-7.98,2.19h-32.51v12.52c0,7.68-6.23,13.9-13.9,13.9h-16.3c-7.68,0-13.9-6.23-13.9-13.9v-12.52h-32.52c-2.81,0-5.57-.76-7.98-2.19l-24.24-14.34v73.22c0,6.13,5.01,11.14,11.14,11.14h151.29c6.13,0,11.14-5.01,11.14-11.14v-73.22l-24.24,14.34Z"/>
      </g>
      <path class="cls-1" d="M195.64,157.42h-15.79c-3.27,0-5.95-2.68-5.95-5.95h0c0-3.27,2.68-5.95,5.95-5.95h15.79c3.27,0,5.95,2.68,5.95,5.95h0c0,3.27-2.68,5.95-5.95,5.95Z"/>
    </g>
    <g>
      <path class="cls-1" d="M78.83,343.3c-1.48,0-2.74-.3-3.77-.9-1.03-.6-1.89-1.51-2.58-2.71l2.4-1.78c.47.85,1.01,1.46,1.6,1.84.59.38,1.25.56,1.96.56,1.09,0,1.9-.33,2.43-.99s.8-1.79.8-3.4v-14.83h3.47v15.15c0,1.29-.22,2.47-.65,3.54-.44,1.08-1.12,1.93-2.06,2.56-.94.63-2.14.95-3.6.95Z"/>
      <path class="cls-1" d="M100.54,343.3c-1.86,0-3.5-.46-4.94-1.38-1.43-.92-2.56-2.23-3.37-3.94-.81-1.71-1.22-3.73-1.22-6.06s.4-4.37,1.22-6.05c.81-1.68,1.93-2.96,3.37-3.84,1.43-.88,3.08-1.32,4.94-1.32s3.53.44,4.95,1.33,2.54,2.17,3.35,3.84c.81,1.67,1.22,3.68,1.22,6.04s-.41,4.35-1.22,6.06c-.81,1.71-1.93,3.02-3.35,3.94-1.42.92-3.07,1.38-4.95,1.38ZM100.54,340.31c1.21,0,2.26-.35,3.16-1.04.9-.69,1.6-1.67,2.09-2.92.49-1.25.74-2.73.74-4.43s-.25-3.17-.74-4.4-1.19-2.18-2.09-2.83c-.9-.65-1.95-.98-3.16-.98s-2.23.33-3.14.98c-.91.65-1.61,1.6-2.09,2.83s-.73,2.7-.73,4.4.24,3.18.73,4.43c.48,1.26,1.18,2.23,2.09,2.92.91.69,1.96,1.04,3.14,1.04Z"/>
      <path class="cls-1" d="M116.08,342.92v-21.82h6.79c1.48,0,2.8.17,3.96.52,1.16.35,2.07.9,2.73,1.68.66.77.99,1.82.99,3.14,0,.69-.12,1.36-.37,2-.25.64-.6,1.21-1.07,1.69s-1.01.83-1.65,1.05v.15c1.23.24,2.24.79,3.05,1.66.81.87,1.22,2.05,1.22,3.53s-.36,2.63-1.08,3.57c-.72.94-1.71,1.65-2.97,2.12s-2.69.71-4.31.71h-7.29ZM119.52,330.17h2.94c1.68,0,2.89-.29,3.62-.88.73-.58,1.1-1.37,1.1-2.36,0-1.17-.39-1.99-1.16-2.46s-1.93-.71-3.47-.71h-3.02v6.41ZM119.52,340.19h3.47c1.7,0,3.02-.31,3.96-.93s1.41-1.6,1.41-2.92c0-1.23-.46-2.12-1.38-2.68-.92-.56-2.25-.84-3.99-.84h-3.47v7.38Z"/>
      <path class="cls-1" d="M153.82,343.3c-1.86,0-3.5-.46-4.94-1.38-1.43-.92-2.56-2.23-3.37-3.94-.81-1.71-1.22-3.73-1.22-6.06s.4-4.37,1.22-6.05c.81-1.68,1.93-2.96,3.37-3.84,1.43-.88,3.08-1.32,4.94-1.32s3.53.44,4.95,1.33,2.54,2.17,3.35,3.84c.81,1.67,1.22,3.68,1.22,6.04s-.41,4.35-1.22,6.06c-.81,1.71-1.93,3.02-3.35,3.94-1.42.92-3.07,1.38-4.95,1.38ZM153.82,340.31c1.21,0,2.26-.35,3.16-1.04.9-.69,1.6-1.67,2.09-2.92.49-1.25.74-2.73.74-4.43s-.25-3.17-.74-4.4-1.19-2.18-2.09-2.83c-.9-.65-1.95-.98-3.16-.98s-2.23.33-3.14.98c-.91.65-1.61,1.6-2.09,2.83s-.73,2.7-.73,4.4.24,3.18.73,4.43c.48,1.26,1.18,2.23,2.09,2.92.91.69,1.96,1.04,3.14,1.04Z"/>
      <path class="cls-1" d="M169.36,342.92v-21.82h6.64c1.62,0,3.06.21,4.31.62s2.23,1.1,2.94,2.06c.7.96,1.05,2.26,1.05,3.9s-.35,2.91-1.05,3.93c-.7,1.02-1.68,1.78-2.92,2.28-1.25.5-2.65.76-4.21.76h-3.32v8.27h-3.44ZM172.8,331.86h2.97c1.74,0,3.03-.34,3.87-1.01.84-.67,1.26-1.73,1.26-3.17s-.44-2.44-1.32-3c-.88-.55-2.19-.83-3.93-.83h-2.85v8.01Z"/>
      <path class="cls-1" d="M190.06,342.92v-21.82h12.93v2.88h-9.49v6.08h8.01v2.94h-8.01v7h9.82v2.94h-13.25Z"/>
      <path class="cls-1" d="M209.33,342.92v-21.82h3.5l7.27,12.81,2.31,4.6h.15c-.12-1.11-.23-2.29-.34-3.56-.11-1.26-.16-2.49-.16-3.68v-10.17h3.29v21.82h-3.53l-7.24-12.87-2.28-4.57h-.12c.06,1.13.14,2.3.25,3.53.11,1.23.16,2.43.16,3.62v10.29h-3.26Z"/>
      <path class="cls-1" d="M232.58,342.92v-21.82h3.44v21.82h-3.44Z"/>
      <path class="cls-1" d="M243.23,342.92v-21.82h3.5l7.27,12.81,2.31,4.6h.15c-.12-1.11-.23-2.29-.34-3.56-.11-1.26-.16-2.49-.16-3.68v-10.17h3.29v21.82h-3.53l-7.24-12.87-2.28-4.57h-.12c.06,1.13.14,2.3.25,3.53.11,1.23.16,2.43.16,3.62v10.29h-3.26Z"/>
      <path class="cls-1" d="M275.4,343.3c-1.96,0-3.7-.44-5.22-1.32-1.52-.88-2.72-2.16-3.6-3.84-.88-1.68-1.32-3.72-1.32-6.11,0-1.78.26-3.37.79-4.77.52-1.4,1.25-2.59,2.16-3.56.92-.97,2-1.71,3.23-2.22,1.24-.51,2.58-.77,4.05-.77,1.54,0,2.84.28,3.9.84s1.91,1.19,2.57,1.88l-1.84,2.22c-.55-.55-1.19-1.02-1.9-1.39-.71-.38-1.58-.56-2.61-.56-1.36,0-2.56.33-3.57.99-1.02.66-1.81,1.61-2.37,2.85s-.85,2.7-.85,4.4.27,3.21.8,4.46c.53,1.26,1.31,2.22,2.34,2.89,1.03.67,2.29,1.01,3.8,1.01.65,0,1.28-.09,1.9-.28.61-.19,1.11-.45,1.48-.79v-5.1h-4.3v-2.88h7.44v9.49c-.73.73-1.7,1.34-2.89,1.82s-2.53.73-3.99.73Z"/>
      <path class="cls-1" d="M295,343.3c-1.52,0-2.95-.28-4.29-.85s-2.51-1.34-3.51-2.33l2.05-2.4c.77.77,1.67,1.39,2.68,1.87s2.05.71,3.1.71c1.32,0,2.34-.28,3.05-.84.71-.56,1.07-1.31,1.07-2.24,0-.67-.15-1.21-.46-1.62-.31-.41-.72-.75-1.25-1.02-.52-.28-1.12-.56-1.79-.86l-3.05-1.3c-.69-.32-1.38-.71-2.06-1.19s-1.25-1.08-1.69-1.82-.67-1.65-.67-2.71c0-1.15.31-2.17.92-3.08.61-.91,1.46-1.62,2.54-2.14,1.08-.51,2.32-.77,3.72-.77,1.29,0,2.5.24,3.65.73s2.12,1.15,2.94,2l-1.75,2.19c-.69-.61-1.43-1.09-2.21-1.42-.78-.34-1.66-.5-2.62-.5-1.11,0-2,.25-2.67.74-.67.49-1.01,1.17-1.01,2.02,0,.63.17,1.15.52,1.56.35.41.79.74,1.32.99s1.11.51,1.72.77l2.96,1.28c.87.36,1.64.79,2.31,1.3.67.51,1.2,1.14,1.57,1.88s.56,1.64.56,2.68c0,1.17-.31,2.23-.92,3.2s-1.49,1.74-2.64,2.31-2.51.86-4.09.86Z"/>
    </g>
  </g>
</svg>