<?xml version="1.0" encoding="UTF-8"?>
<svg id="Layer_2" data-name="Layer 2" xmlns="http://www.w3.org/2000/svg" viewBox="0 0 375.49 375.49">
  <defs>
    <style>
      .cls-1 {
        fill: #00a7e1;
      }

      .cls-2 {
        fill: #fff;
        stroke: #00a7e1;
        stroke-miterlimit: 10;
        stroke-width: 4px;
      }
    </style>
  </defs>
  <g id="_圖層_2" data-name="圖層 2">
    <rect class="cls-2" x="2" y="2" width="371.49" height="371.49" rx="47.32" ry="47.32"/>
    <g>
      <path class="cls-1" d="M59.37,243.41l6.7,2.19c-1.5,3.52-3.3,7-5.38,10.43-2.08,3.44-4.29,6.65-6.63,9.63-2.34,2.98-4.71,5.59-7.12,7.83-.34-.47-.85-1.03-1.51-1.67-.67-.64-1.34-1.28-2.03-1.9-.69-.62-1.31-1.13-1.87-1.51,2.36-1.97,4.66-4.29,6.89-6.96,2.23-2.66,4.29-5.54,6.18-8.63,1.89-3.09,3.48-6.23,4.77-9.4ZM49.84,298.74c-.17-.47-.4-1.11-.68-1.9-.28-.79-.58-1.62-.9-2.48-.32-.86-.63-1.59-.93-2.19.99-.26,1.96-.85,2.93-1.77.97-.92,2.05-2.14,3.25-3.64.73-.73,1.72-1.92,2.96-3.58,1.25-1.65,2.65-3.64,4.22-5.96,1.57-2.32,3.15-4.81,4.73-7.47,1.59-2.66,3.03-5.35,4.32-8.05l7.02,2.96c-2.1,3.78-4.38,7.49-6.83,11.14-2.45,3.65-4.97,7.12-7.57,10.4-2.6,3.29-5.19,6.24-7.76,8.86v.19c-.99.47-1.79.89-2.42,1.26-.62.36-1.17.74-1.64,1.13-.47.39-.71.75-.71,1.09ZM49.84,298.74l-.19-5.22,4.25-2.32,37.55-2.25c.13.9.34,1.92.64,3.06.3,1.14.54,2.05.71,2.74-6.01.43-11.18.8-15.49,1.13-4.32.32-7.98.59-10.98.81-3.01.21-5.48.42-7.41.61-1.93.19-3.48.36-4.64.52-1.16.15-2.08.29-2.77.42-.69.13-1.25.3-1.67.51ZM69.68,243.34h13.85v6.25h-13.85v-6.25ZM78.44,243.34h7.15c1.03,3.22,2.38,6.37,4.06,9.44,1.67,3.07,3.61,5.87,5.8,8.41,2.19,2.54,4.59,4.62,7.21,6.25-.47.43-1.01,1-1.61,1.71-.6.71-1.18,1.44-1.74,2.19-.56.75-1.03,1.45-1.42,2.09-2.66-2.06-5.15-4.52-7.47-7.38-2.32-2.85-4.37-5.94-6.15-9.24-1.78-3.31-3.23-6.66-4.35-10.05h-1.48v-3.41ZM78.44,278.58l5.93-2.64c1.76,2.32,3.55,4.81,5.38,7.47,1.82,2.66,3.53,5.26,5.12,7.79,1.59,2.53,2.9,4.77,3.93,6.7l-6.25,3.41c-.9-1.98-2.15-4.29-3.74-6.96-1.59-2.66-3.3-5.37-5.12-8.12-1.83-2.75-3.57-5.3-5.25-7.67Z"/>
      <path class="cls-1" d="M122.3,245.73h48.31v5.86h-48.31v-5.86ZM122.82,257.39h38.52v5.35h-38.52v-5.35ZM126.62,268.72h5.93v25.96h-5.93v-25.96ZM131.64,268.72h25.7v21.19h-25.7v-5.28h19.71v-10.56h-19.71v-5.35ZM168.36,245.73h6.18v47.47c0,1.85-.22,3.32-.64,4.41-.43,1.09-1.29,1.9-2.58,2.42-1.2.56-2.82.89-4.86,1-2.04.11-4.52.16-7.44.16-.04-.64-.18-1.35-.42-2.13-.24-.77-.49-1.57-.77-2.38-.28-.82-.55-1.52-.81-2.13,1.33.09,2.66.14,3.99.16,1.33.02,2.51.02,3.54,0,1.03-.02,1.76-.03,2.19-.03.6,0,1.02-.12,1.26-.35s.35-.65.35-1.26v-47.34Z"/>
      <path class="cls-1" d="M200.11,244.05h5.02v23.06c0,2.45-.05,5.16-.16,8.15-.11,2.99-.34,6.04-.71,9.18-.37,3.13-.88,6.18-1.55,9.15-.67,2.96-1.54,5.67-2.61,8.12-.26-.34-.64-.75-1.16-1.22s-1.04-.92-1.58-1.35c-.54-.43-1-.73-1.38-.9,1.29-3.01,2.21-6.32,2.77-9.95.56-3.63.92-7.29,1.1-10.98.17-3.69.26-7.08.26-10.18v-23.06ZM202.75,244.05h12.62v5.54h-12.62v-5.54ZM204.11,259.51l3.29-2.13c1.07.99,2.14,2.13,3.19,3.41,1.05,1.29,1.88,2.38,2.48,3.29l-3.54,2.51c-.56-.94-1.35-2.09-2.38-3.45-1.03-1.35-2.04-2.57-3.03-3.64ZM204.43,277.29c1.2-.69,2.6-1.56,4.19-2.61,1.59-1.05,3.26-2.16,5.02-3.32l1.67,3.41c-1.46,1.29-2.91,2.54-4.35,3.77-1.44,1.22-2.89,2.46-4.35,3.7l-2.19-4.96ZM211.77,244.05h4.83v50.82c0,1.37-.14,2.45-.42,3.22-.28.77-.83,1.39-1.64,1.87-.82.47-1.86.76-3.12.87-1.27.11-2.89.16-4.86.16-.04-.69-.22-1.54-.52-2.54-.3-1.01-.64-1.86-1.03-2.54,1.33.04,2.52.06,3.57.06h2.16c.69-.04,1.03-.41,1.03-1.09v-50.82ZM225.81,282.51l5.15,1.03c-.9,3.74-2.24,7.17-4.03,10.31-1.78,3.13-3.83,5.75-6.15,7.86-.3-.34-.7-.74-1.19-1.19-.49-.45-1-.88-1.51-1.29-.52-.41-.97-.74-1.35-1,2.23-1.85,4.11-4.12,5.64-6.83,1.52-2.71,2.67-5.67,3.45-8.89ZM235.35,240.96l5.54,1.87c-2.1,3.74-4.83,7.23-8.18,10.47-3.35,3.24-6.96,6.02-10.82,8.34-.26-.39-.61-.82-1.06-1.29-.45-.47-.92-.94-1.42-1.42-.49-.47-.96-.84-1.39-1.09,2.49-1.42,4.83-3.04,7.02-4.86s4.17-3.77,5.93-5.83c1.76-2.06,3.22-4.12,4.38-6.18ZM220.27,265.37h15.59v15.65h-15.59v-15.65ZM224.65,269.82v6.63h6.76v-6.63h-6.76ZM225.3,290.49l3.03-3.61c1.42.86,2.91,1.86,4.48,3,1.57,1.14,2.76,2.16,3.58,3.06l-3.09,4.06c-.86-.94-2.06-2.04-3.61-3.28s-3.01-2.32-4.38-3.22ZM227.36,256.23h19.2v4.7h-19.2v-4.7ZM238.57,244.18c1.29,1.42,2.91,2.85,4.86,4.28,1.95,1.44,4.06,2.78,6.31,4.03,2.25,1.25,4.41,2.25,6.47,3.03-.3.43-.61.97-.93,1.61-.32.64-.62,1.3-.9,1.96-.28.67-.5,1.26-.68,1.77-2.28-1.12-4.62-2.45-7.02-3.99-2.41-1.55-4.68-3.19-6.83-4.93-2.15-1.74-3.95-3.45-5.41-5.12l4.12-2.64ZM243.46,282.25l5.47.77c-.82,4.04-2.08,7.62-3.8,10.76-1.72,3.13-3.91,5.73-6.57,7.79-.22-.34-.57-.76-1.06-1.26s-1.01-1-1.55-1.51c-.54-.51-.98-.92-1.32-1.22,2.36-1.63,4.28-3.77,5.76-6.41,1.48-2.64,2.5-5.61,3.06-8.92ZM238.25,265.37h15.72v15.65h-15.72v-15.65ZM242.17,290.75l3.54-3.48c1.29.86,2.64,1.86,4.06,3,1.42,1.14,2.76,2.27,4.03,3.38,1.27,1.12,2.29,2.12,3.06,3.03l-3.74,3.99c-.77-.95-1.77-2.01-3-3.19-1.22-1.18-2.54-2.36-3.96-3.54-1.42-1.18-2.75-2.24-3.99-3.19ZM242.56,269.82v6.63h6.89v-6.63h-6.89Z"/>
      <path class="cls-1" d="M274.83,274.2h57.71v4.44h-57.71v-4.44ZM274.96,252.81h57.58v4.32h-57.58v-4.32ZM279.28,267.18h48.76v3.93h-48.76v-3.93ZM281.66,245.92h43.16v18.29h-43.86v-3.8h37.81v-10.69h-37.1v-3.8ZM283.08,281.22h42.06v20.42h-6.12v-16.42h-30.08v16.49h-5.86v-20.48ZM286.1,288.5h35.17v3.74h-35.17v-3.74ZM286.1,295.65h35.17v4.06h-35.17v-4.06ZM300.4,241.54h6.12v35.49h-6.12v-35.49Z"/>
    </g>
    <g>
      <path class="cls-1" d="M75.88,342.92v-21.82h3.44v10.29h.06l8.33-10.29h3.85l-6.79,8.42,7.89,13.4h-3.83l-6.14-10.71-3.38,4.12v6.58h-3.44Z"/>
      <path class="cls-1" d="M97.02,342.92v-21.82h3.44v18.89h9.25v2.94h-12.69Z"/>
      <path class="cls-1" d="M112.21,342.92l7.21-21.82h3.97l7.24,21.82h-3.65l-3.5-11.83c-.38-1.21-.73-2.42-1.07-3.63-.34-1.22-.67-2.44-1.01-3.66h-.12c-.32,1.23-.65,2.45-.99,3.66-.35,1.22-.7,2.43-1.05,3.63l-3.56,11.83h-3.47ZM116.24,336.72v-2.7h10.23v2.7h-10.23Z"/>
      <path class="cls-1" d="M143.13,342.92v-21.82h12.96v2.88h-9.52v6.67h8.1v2.91h-8.1v9.37h-3.44Z"/>
      <path class="cls-1" d="M157.28,342.92l7.21-21.82h3.97l7.24,21.82h-3.65l-3.5-11.83c-.38-1.21-.73-2.42-1.07-3.63-.34-1.22-.67-2.44-1.01-3.66h-.12c-.32,1.23-.65,2.45-.99,3.66-.35,1.22-.7,2.43-1.05,3.63l-3.56,11.83h-3.47ZM161.31,336.72v-2.7h10.23v2.7h-10.23Z"/>
      <path class="cls-1" d="M188.24,343.3c-1.36,0-2.64-.25-3.83-.74-1.19-.49-2.22-1.23-3.1-2.19-.88-.97-1.57-2.15-2.06-3.54s-.74-2.99-.74-4.79.26-3.37.77-4.77c.51-1.4,1.22-2.59,2.12-3.56.9-.97,1.94-1.71,3.13-2.22,1.19-.51,2.48-.77,3.88-.77s2.54.27,3.59.82c1.05.54,1.91,1.18,2.58,1.91l-1.84,2.22c-.57-.59-1.21-1.07-1.91-1.42-.7-.36-1.5-.53-2.39-.53-1.25,0-2.35.33-3.31.99-.96.66-1.71,1.61-2.25,2.85s-.82,2.7-.82,4.4.26,3.21.77,4.46c.51,1.26,1.25,2.22,2.19,2.89.95.67,2.07,1.01,3.35,1.01.99,0,1.87-.21,2.65-.64.78-.42,1.5-.99,2.15-1.71l1.87,2.19c-.87,1.01-1.87,1.78-3,2.33-1.13.54-2.4.82-3.83.82Z"/>
      <path class="cls-1" d="M200.36,342.92v-21.82h12.93v2.88h-9.49v6.08h8.01v2.94h-8.01v7h9.82v2.94h-13.25Z"/>
      <path class="cls-1" d="M219.64,342.92v-21.82h6.79c1.48,0,2.8.17,3.96.52,1.16.35,2.07.9,2.73,1.68.66.77.99,1.82.99,3.14,0,.69-.12,1.36-.37,2-.25.64-.6,1.21-1.07,1.69s-1.01.83-1.65,1.05v.15c1.23.24,2.24.79,3.05,1.66.81.87,1.22,2.05,1.22,3.53s-.36,2.63-1.08,3.57c-.72.94-1.71,1.65-2.97,2.12s-2.69.71-4.31.71h-7.29ZM223.08,330.17h2.94c1.68,0,2.89-.29,3.62-.88.73-.58,1.1-1.37,1.1-2.36,0-1.17-.39-1.99-1.16-2.46s-1.93-.71-3.47-.71h-3.02v6.41ZM223.08,340.19h3.47c1.7,0,3.02-.31,3.96-.93s1.41-1.6,1.41-2.92c0-1.23-.46-2.12-1.38-2.68-.92-.56-2.25-.84-3.99-.84h-3.47v7.38Z"/>
      <path class="cls-1" d="M249.23,343.3c-1.86,0-3.5-.46-4.94-1.38-1.43-.92-2.56-2.23-3.37-3.94-.81-1.71-1.22-3.73-1.22-6.06s.4-4.37,1.22-6.05c.81-1.68,1.93-2.96,3.37-3.84,1.43-.88,3.08-1.32,4.94-1.32s3.53.44,4.95,1.33,2.54,2.17,3.35,3.84c.81,1.67,1.22,3.68,1.22,6.04s-.41,4.35-1.22,6.06c-.81,1.71-1.93,3.02-3.35,3.94-1.42.92-3.07,1.38-4.95,1.38ZM249.23,340.31c1.21,0,2.26-.35,3.16-1.04.9-.69,1.6-1.67,2.09-2.92.49-1.25.74-2.73.74-4.43s-.25-3.17-.74-4.4-1.19-2.18-2.09-2.83c-.9-.65-1.95-.98-3.16-.98s-2.23.33-3.14.98c-.91.65-1.61,1.6-2.09,2.83s-.73,2.7-.73,4.4.24,3.18.73,4.43c.48,1.26,1.18,2.23,2.09,2.92.91.69,1.96,1.04,3.14,1.04Z"/>
      <path class="cls-1" d="M273.07,343.3c-1.86,0-3.5-.46-4.94-1.38-1.43-.92-2.56-2.23-3.37-3.94-.81-1.71-1.22-3.73-1.22-6.06s.4-4.37,1.22-6.05c.81-1.68,1.93-2.96,3.37-3.84,1.43-.88,3.08-1.32,4.94-1.32s3.53.44,4.95,1.33,2.54,2.17,3.35,3.84c.81,1.67,1.22,3.68,1.22,6.04s-.41,4.35-1.22,6.06c-.81,1.71-1.93,3.02-3.35,3.94-1.42.92-3.07,1.38-4.95,1.38ZM273.07,340.31c1.21,0,2.26-.35,3.16-1.04.9-.69,1.6-1.67,2.09-2.92.49-1.25.74-2.73.74-4.43s-.25-3.17-.74-4.4-1.19-2.18-2.09-2.83c-.9-.65-1.95-.98-3.16-.98s-2.23.33-3.14.98c-.91.65-1.61,1.6-2.09,2.83s-.73,2.7-.73,4.4.24,3.18.73,4.43c.48,1.26,1.18,2.23,2.09,2.92.91.69,1.96,1.04,3.14,1.04Z"/>
      <path class="cls-1" d="M288.61,342.92v-21.82h3.44v10.29h.06l8.33-10.29h3.85l-6.79,8.42,7.89,13.4h-3.83l-6.14-10.71-3.38,4.12v6.58h-3.44Z"/>
    </g>
    <g>
      <path class="cls-1" d="M253.06,159.29l-6.77-.25,6.78,11.32c1.03,1.72.47,3.94-1.25,4.97-.58.35-1.22.52-1.86.52-1.23,0-2.43-.63-3.11-1.76l-6.78-11.32-2.97,6.08c-.93,1.9-3.75,1.53-4.15-.55l-5.84-30.2c-.39-2.02,1.96-3.43,3.56-2.13l23.86,19.41c1.64,1.34.64,4-1.48,3.92ZM127.03,101.65h108.19c1.52,0,2.76,1.97,2.76,4.4s-1.23,4.4-2.76,4.4h-108.19c-1.52,0-2.76-1.97-2.76-4.4s1.23-4.4,2.76-4.4ZM127.24,130.14h82.83c1.64,0,2.97,1.97,2.97,4.4s-1.33,4.4-2.97,4.4h-82.83c-1.64,0-2.97-1.97-2.97-4.4s1.33-4.4,2.97-4.4ZM126.83,158.64h71.52c1.41,0,2.56,1.97,2.56,4.4s-1.15,4.4-2.56,4.4h-71.52c-1.41,0-2.56-1.97-2.56-4.4s1.15-4.4,2.56-4.4Z"/>
      <path class="cls-1" d="M186.32,74.57c-.17-.05-.35-.09-.51-.16.16.07.34.11.51.16Z"/>
      <path class="cls-1" d="M187.75,74.8h0c2.06,0,3.83-1.25,4.59-3.04-.76,1.79-2.52,3.04-4.59,3.04Z"/>
      <path class="cls-1" d="M275.31,54.94H100.18c-5.78,0-10.48,5.17-10.48,11.52v128.18c0,6.35,4.7,11.52,10.48,11.52h175.13c5.78,0,10.48-5.17,10.48-11.52V66.46c0-6.35-4.7-11.52-10.48-11.52ZM187.75,64.84c2.6,0,4.72,2.01,4.94,4.55.01.14.04.28.04.43,0,.27-.04.53-.08.78-.06.4-.16.79-.31,1.15-.76,1.79-2.52,3.04-4.59,3.04h0c-.5,0-.97-.09-1.42-.23-.17-.05-.35-.09-.51-.16-1.55-.66-2.69-2.09-2.96-3.8-.04-.26-.08-.52-.08-.78,0-.15.03-.28.04-.43.22-2.55,2.33-4.55,4.94-4.55ZM268.7,82.66v106.17c0,.79-.58,1.43-1.3,1.43H108.1c-.72,0-1.3-.64-1.3-1.43v-108.66h161.9v2.49Z"/>
      <path class="cls-1" d="M241.35,160.17l-1.27,2.59,6.78,11.32c.68,1.13,1.88,1.76,3.11,1.76.63,0,1.27-.17,1.86-.52,1.72-1.03,2.27-3.25,1.25-4.97l-6.78-11.32-2.88-.11c-.87-.03-1.68.45-2.07,1.24Z"/>
      <path class="cls-1" d="M227.12,138.09l5.84,30.2c.4,2.08,3.22,2.45,4.15.55l2.97-6.08-1.59-2.66c-1.03-1.72-.47-3.94,1.25-4.97,1.71-1.03,3.94-.47,4.97,1.25l1.59,2.66,6.77.25c2.12.08,3.12-2.58,1.48-3.92l-23.86-19.41c-1.6-1.3-3.95.11-3.56,2.13Z"/>
      <path class="cls-1" d="M239.74,155.13c-1.72,1.03-2.27,3.25-1.25,4.97l1.59,2.66,1.27-2.59c.38-.78,1.19-1.27,2.07-1.24l2.88.11-1.59-2.66c-1.03-1.72-3.25-2.28-4.97-1.25Z"/>
      <path class="cls-1" d="M126.83,167.44h71.52c1.41,0,2.56-1.97,2.56-4.4s-1.15-4.4-2.56-4.4h-71.52c-1.41,0-2.56,1.97-2.56,4.4s1.15,4.4,2.56,4.4Z"/>
      <path class="cls-1" d="M127.24,138.95h82.83c1.64,0,2.97-1.97,2.97-4.4s-1.33-4.4-2.97-4.4h-82.83c-1.64,0-2.97,1.97-2.97,4.4s1.33,4.4,2.97,4.4Z"/>
      <path class="cls-1" d="M127.03,110.45h108.19c1.52,0,2.76-1.97,2.76-4.4s-1.23-4.4-2.76-4.4h-108.19c-1.52,0-2.76,1.97-2.76,4.4s1.23,4.4,2.76,4.4Z"/>
    </g>
  </g>
</svg>