<?xml version="1.0" encoding="UTF-8"?>
<svg id="Layer_2" data-name="Layer 2" xmlns="http://www.w3.org/2000/svg" viewBox="0 0 375.49 375.49">
  <defs>
    <style>
      .cls-1 {
        fill: #10a6e0;
      }

      .cls-2 {
        fill: #fff;
        stroke: #10a6e0;
        stroke-miterlimit: 10;
        stroke-width: 4px;
      }
    </style>
  </defs>
  <g id="Layer_1-2" data-name="Layer 1">
    <g>
      <path class="cls-1" d="M217.66,87.07c-2.06,0-3.73-1.71-3.73-3.82v-14.74c0-5.63-4.49-10.22-10-10.22h-32.36c-5.51,0-10,4.58-10,10.22v14.74c0,2.11-1.67,3.82-3.73,3.82s-3.73-1.71-3.73-3.82v-14.74c0-9.84,7.84-17.85,17.47-17.85h32.36c9.63,0,17.47,8.01,17.47,17.85v14.74c0,2.11-1.67,3.82-3.73,3.82Z"/>
      <g>
        <path class="cls-1" d="M126.13,125.31c1.38.83,2.95,1.27,4.55,1.27h114.14c1.6,0,3.17-.44,4.55-1.27l29.15-17.62v-19.42c0-6.55-5.24-11.91-11.65-11.91H108.64c-6.41,0-11.65,5.36-11.65,11.91v19.42l29.15,17.62Z"/>
        <path class="cls-1" d="M253.16,131.88c-2.53,1.53-5.41,2.34-8.35,2.34h-34v13.38c0,8.21-6.51,14.86-14.54,14.86h-17.05c-8.03,0-14.54-6.65-14.54-14.86v-13.38h-34.01c-2.93,0-5.82-.81-8.35-2.34l-25.35-15.32v78.25c0,6.55,5.24,11.91,11.65,11.91h158.22c6.41,0,11.65-5.36,11.65-11.91v-78.25l-25.35,15.32Z"/>
      </g>
      <path class="cls-1" d="M196,154.57h-16.51c-3.42,0-6.23-4.48-6.23-9.95h0c0-5.47,2.8-9.95,6.23-9.95h16.51c3.42,0,6.23,4.48,6.23,9.95h0c0,5.47-2.8,9.95-6.23,9.95Z"/>
    </g>
    <rect class="cls-2" x="2" y="2" width="371.49" height="371.49" rx="47.32" ry="47.32"/>
    <g>
      <path class="cls-1" d="M59.37,243.41l6.7,2.19c-1.5,3.52-3.3,7-5.38,10.43-2.08,3.44-4.29,6.65-6.63,9.63s-4.71,5.59-7.12,7.83c-.34-.47-.85-1.03-1.51-1.67-.67-.64-1.34-1.28-2.03-1.9-.69-.62-1.31-1.13-1.87-1.51,2.36-1.97,4.66-4.29,6.89-6.96,2.23-2.66,4.29-5.54,6.18-8.63s3.48-6.23,4.77-9.4ZM49.84,298.74c-.17-.47-.4-1.11-.68-1.9-.28-.79-.58-1.62-.9-2.48-.32-.86-.63-1.59-.93-2.19.99-.26,1.96-.85,2.93-1.77.97-.92,2.05-2.14,3.25-3.64.73-.73,1.72-1.92,2.96-3.58,1.25-1.65,2.65-3.64,4.22-5.96,1.57-2.32,3.15-4.81,4.73-7.47,1.59-2.66,3.03-5.35,4.32-8.05l7.02,2.96c-2.1,3.78-4.38,7.49-6.83,11.14-2.45,3.65-4.97,7.12-7.57,10.4-2.6,3.29-5.19,6.24-7.76,8.86v.19c-.99.47-1.79.89-2.42,1.26-.62.36-1.17.74-1.64,1.13-.47.39-.71.75-.71,1.09ZM49.84,298.74l-.19-5.22,4.25-2.32,37.55-2.25c.13.9.34,1.92.64,3.06.3,1.14.54,2.05.71,2.74-6.01.43-11.17.8-15.49,1.13-4.32.32-7.98.59-10.98.81-3.01.21-5.48.42-7.41.61-1.93.19-3.48.36-4.64.52-1.16.15-2.08.29-2.77.42-.69.13-1.25.3-1.67.51ZM69.68,243.34h13.85v6.25h-13.85v-6.25ZM78.44,243.34h7.15c1.03,3.22,2.38,6.37,4.06,9.44,1.67,3.07,3.61,5.87,5.8,8.41,2.19,2.54,4.59,4.62,7.21,6.25-.47.43-1.01,1-1.61,1.71-.6.71-1.18,1.44-1.74,2.19-.56.75-1.03,1.45-1.42,2.09-2.66-2.06-5.15-4.52-7.47-7.38-2.32-2.85-4.37-5.94-6.15-9.24-1.78-3.31-3.23-6.66-4.35-10.05h-1.48v-3.41ZM78.44,278.58l5.93-2.64c1.76,2.32,3.55,4.81,5.38,7.47,1.83,2.66,3.53,5.26,5.12,7.79,1.59,2.53,2.9,4.77,3.93,6.7l-6.25,3.41c-.9-1.98-2.15-4.29-3.74-6.96-1.59-2.66-3.3-5.37-5.12-8.12-1.83-2.75-3.57-5.3-5.25-7.67Z"/>
      <path class="cls-1" d="M122.3,245.73h48.31v5.86h-48.31v-5.86ZM122.82,257.39h38.52v5.35h-38.52v-5.35ZM126.62,268.72h5.93v25.96h-5.93v-25.96ZM131.64,268.72h25.7v21.19h-25.7v-5.28h19.71v-10.56h-19.71v-5.35ZM168.36,245.73h6.18v47.47c0,1.85-.22,3.32-.64,4.41-.43,1.09-1.29,1.9-2.58,2.42-1.2.56-2.82.89-4.86,1-2.04.11-4.52.16-7.44.16-.04-.64-.18-1.35-.42-2.13-.24-.77-.49-1.57-.77-2.38-.28-.82-.55-1.52-.8-2.13,1.33.09,2.66.14,3.99.16,1.33.02,2.51.02,3.54,0,1.03-.02,1.76-.03,2.19-.03.6,0,1.02-.12,1.26-.35s.35-.65.35-1.26v-47.34Z"/>
      <path class="cls-1" d="M198.63,247.53h55.52v11.92h-6.51v-6.18h-42.9v6.18h-6.12v-11.92ZM206.68,258.03h6.25v43.41h-6.25v-43.41ZM209.84,258.03h35.94v17.33h-35.94v-5.28h29.89v-6.76h-29.89v-5.28ZM210.16,280.57h38v20.55h-6.31v-15.14h-31.69v-5.41ZM210.48,293.33h33.24v5.35h-33.24v-5.35ZM222.46,242.64l6.12-1.29c.64,1.12,1.26,2.38,1.84,3.8s.96,2.62,1.13,3.61l-6.38,1.55c-.26-.99-.62-2.2-1.09-3.64-.47-1.44-1.01-2.78-1.61-4.03Z"/>
      <path class="cls-1" d="M276.38,283.6l4.57.84c-.3,2.79-.71,5.6-1.22,8.44s-1.12,5.26-1.8,7.28c-.47-.3-1.17-.61-2.09-.93s-1.66-.57-2.22-.74c.73-1.93,1.31-4.24,1.74-6.92.43-2.68.77-5.33,1.03-7.96ZM275.48,266.47c-.09-.39-.23-.88-.42-1.48-.19-.6-.41-1.23-.64-1.9-.24-.67-.44-1.23-.61-1.71.51-.13,1.05-.49,1.61-1.09.56-.6,1.16-1.39,1.8-2.38.47-.64,1.17-1.79,2.09-3.45.92-1.65,1.93-3.6,3.03-5.83,1.1-2.23,2.01-4.51,2.74-6.83l5.02,2.13c-1.55,3.56-3.33,7.08-5.35,10.56-2.02,3.48-4.04,6.51-6.05,9.08v.06c-.64.43-1.17.78-1.58,1.06-.41.28-.78.58-1.13.9-.34.32-.51.61-.51.87ZM275.93,281.22c-.09-.39-.22-.89-.42-1.51s-.4-1.26-.61-1.9c-.21-.64-.43-1.2-.64-1.67.69-.17,1.4-.64,2.13-1.42.73-.77,1.57-1.76,2.51-2.96.52-.6,1.27-1.6,2.25-3,.99-1.4,2.08-3.03,3.29-4.9,1.2-1.87,2.42-3.91,3.64-6.12,1.22-2.21,2.35-4.46,3.38-6.73l4.51,2.9c-1.5,2.96-3.18,5.91-5.02,8.82-1.85,2.92-3.77,5.7-5.77,8.34-2,2.64-3.98,5.06-5.96,7.25v.13c-.69.34-1.25.67-1.67.97-.43.3-.8.6-1.13.9-.32.3-.48.6-.48.9ZM275.48,266.47l-.06-4.06,2.38-1.61,10.95-.84c-.13.73-.25,1.51-.35,2.35-.11.84-.16,1.56-.16,2.16-2.45.26-4.46.48-6.02.68s-2.79.37-3.67.52c-.88.15-1.54.29-1.96.42-.43.13-.79.26-1.09.39ZM275.93,281.22l-.19-4.19,2.38-1.67,16.88-2.32c-.13.69-.21,1.46-.26,2.32-.04.86-.04,1.59,0,2.19-3.82.56-6.9,1.04-9.24,1.45-2.34.41-4.15.74-5.44,1-1.29.26-2.22.47-2.8.64-.58.17-1.02.37-1.32.58ZM283.27,284.31l4.12-1.03c.43,2.19.79,4.55,1.09,7.09.3,2.53.52,4.72.64,6.57l-4.38,1.1c-.04-1.89-.23-4.11-.55-6.67-.32-2.55-.63-4.91-.93-7.05ZM289.58,268.27l4.06-1.48c.64,1.29,1.23,2.68,1.77,4.19.54,1.5,1.04,2.95,1.51,4.35.47,1.4.84,2.61,1.09,3.64l-4.38,1.8c-.22-1.07-.54-2.33-.97-3.77-.43-1.44-.91-2.93-1.45-4.48-.54-1.55-1.08-2.96-1.64-4.25ZM290.16,282.83l3.87-1.29c.77,1.98,1.5,4.11,2.19,6.41.69,2.3,1.2,4.26,1.55,5.89l-4.06,1.55c-.34-1.72-.86-3.75-1.55-6.09-.69-2.34-1.35-4.5-2-6.47ZM298.41,244.7h29.95v5.28h-24.48v51.59h-5.47v-56.88ZM305.3,261.96h19.97v4.7h-19.97v-4.7ZM305.88,272.85h18.81v4.7h-18.81v-4.7ZM307.1,252.75l3.54-1.16c.73,1.33,1.38,2.83,1.96,4.51.58,1.67.98,3.11,1.19,4.32l-3.8,1.35c-.13-1.2-.48-2.65-1.06-4.35-.58-1.7-1.19-3.25-1.84-4.67ZM308,275.29h4.9v7.54c0,.77.08,1.32.26,1.64.17.32.56.48,1.16.48h6.5c.52,0,1.16-.03,1.93-.1.77-.06,1.4-.16,1.87-.29.09.69.15,1.44.19,2.25.04.82.11,1.5.19,2.06-.43.17-1.03.28-1.8.32-.77.04-1.52.06-2.25.06h-7.08c-1.59,0-2.81-.21-3.67-.64-.86-.43-1.44-1.13-1.74-2.09-.3-.97-.45-2.22-.45-3.77v-7.47ZM311.48,267.82l4.19-1.42c.51.82,1.02,1.75,1.51,2.8.49,1.05.87,1.94,1.13,2.67l-4.38,1.74c-.22-.81-.56-1.77-1.03-2.87-.47-1.09-.95-2.07-1.42-2.93ZM319.4,251.72l4.32,1.16c-.6,1.89-1.22,3.83-1.87,5.83-.64,2-1.27,3.68-1.87,5.06l-3.48-1.09c.34-.99.7-2.14,1.06-3.45.36-1.31.72-2.63,1.06-3.96.34-1.33.6-2.51.77-3.54ZM326.62,244.7h5.47v50.5c0,1.46-.16,2.59-.48,3.38-.32.79-.93,1.45-1.84,1.96-.9.43-2.05.7-3.45.81-1.4.11-3.1.16-5.12.16-.09-.69-.28-1.56-.58-2.61-.3-1.05-.64-1.94-1.03-2.67,1.29.04,2.5.06,3.64.06h2.29c.43-.04.72-.14.87-.29.15-.15.23-.44.23-.87v-50.44Z"/>
    </g>
    <g>
      <path class="cls-1" d="M58.39,343.3c-1.86,0-3.5-.46-4.94-1.38-1.43-.92-2.56-2.23-3.37-3.94-.81-1.71-1.22-3.73-1.22-6.06s.41-4.37,1.22-6.05c.81-1.68,1.93-2.96,3.37-3.84,1.43-.88,3.08-1.32,4.94-1.32s3.53.44,4.95,1.33c1.42.89,2.54,2.17,3.35,3.84.81,1.67,1.22,3.68,1.22,6.04s-.41,4.35-1.22,6.06c-.81,1.71-1.93,3.02-3.35,3.94-1.42.92-3.07,1.38-4.95,1.38ZM58.39,340.31c1.21,0,2.26-.35,3.16-1.04.9-.69,1.6-1.67,2.09-2.92.49-1.25.74-2.73.74-4.43s-.25-3.17-.74-4.4-1.19-2.18-2.09-2.83-1.95-.98-3.16-.98-2.23.33-3.14.98c-.91.65-1.61,1.6-2.09,2.83s-.73,2.7-.73,4.4.24,3.18.73,4.43c.48,1.26,1.18,2.23,2.09,2.92.91.69,1.96,1.04,3.14,1.04Z"/>
      <path class="cls-1" d="M73.93,342.92v-21.82h12.96v2.88h-9.52v6.67h8.1v2.91h-8.1v9.37h-3.44Z"/>
      <path class="cls-1" d="M92.19,342.92v-21.82h12.96v2.88h-9.52v6.67h8.1v2.91h-8.1v9.37h-3.44Z"/>
      <path class="cls-1" d="M110.46,342.92v-21.82h3.44v21.82h-3.44Z"/>
      <path class="cls-1" d="M129.61,343.3c-1.36,0-2.64-.25-3.83-.74-1.19-.49-2.22-1.23-3.1-2.19-.88-.97-1.57-2.15-2.06-3.54s-.74-2.99-.74-4.79.26-3.37.77-4.77c.51-1.4,1.22-2.59,2.12-3.56.9-.97,1.94-1.71,3.13-2.22,1.19-.51,2.48-.77,3.88-.77s2.54.27,3.59.82,1.91,1.18,2.58,1.91l-1.84,2.22c-.57-.59-1.21-1.07-1.91-1.42-.7-.36-1.5-.53-2.39-.53-1.25,0-2.35.33-3.31.99-.96.66-1.71,1.61-2.25,2.85s-.82,2.7-.82,4.4.26,3.21.77,4.46c.51,1.26,1.25,2.22,2.19,2.89.95.67,2.07,1.01,3.35,1.01.99,0,1.87-.21,2.65-.64.78-.42,1.5-.99,2.15-1.71l1.87,2.19c-.87,1.01-1.87,1.78-3,2.33-1.13.54-2.4.82-3.83.82Z"/>
      <path class="cls-1" d="M141.74,342.92v-21.82h3.44v21.82h-3.44Z"/>
      <path class="cls-1" d="M149.54,342.92l7.21-21.82h3.97l7.24,21.82h-3.65l-3.5-11.83c-.38-1.21-.73-2.42-1.07-3.63s-.67-2.44-1.01-3.66h-.12c-.32,1.23-.65,2.45-.99,3.66s-.7,2.43-1.05,3.63l-3.56,11.83h-3.47ZM153.57,336.72v-2.7h10.23v2.7h-10.23Z"/>
      <path class="cls-1" d="M172.31,342.92v-21.82h3.44v18.89h9.25v2.94h-12.69Z"/>
      <path class="cls-1" d="M200.72,342.92l-4.42-21.82h3.53l2.05,11.33c.2,1.17.39,2.34.59,3.51.2,1.18.4,2.36.59,3.54h.12c.24-1.19.48-2.37.73-3.54.25-1.18.5-2.35.76-3.51l2.79-11.33h3.05l2.82,11.33c.26,1.17.5,2.34.74,3.51.24,1.18.48,2.36.74,3.54h.15c.2-1.19.38-2.37.56-3.54.18-1.18.36-2.35.53-3.51l2.11-11.33h3.26l-4.3,21.82h-4.24l-2.94-12.13c-.2-.87-.38-1.71-.53-2.54s-.32-1.65-.47-2.48h-.12c-.16.83-.33,1.66-.5,2.48s-.36,1.67-.53,2.54l-2.88,12.13h-4.18Z"/>
      <path class="cls-1" d="M226.49,342.92v-21.82h12.93v2.88h-9.49v6.08h8.01v2.94h-8.01v7h9.82v2.94h-13.25Z"/>
      <path class="cls-1" d="M245.76,342.92v-21.82h6.79c1.48,0,2.8.17,3.96.52,1.16.35,2.07.9,2.73,1.68.66.77.99,1.82.99,3.14,0,.69-.12,1.36-.37,2-.25.64-.6,1.21-1.07,1.69-.46.48-1.01.83-1.65,1.05v.15c1.23.24,2.24.79,3.05,1.66.81.87,1.22,2.05,1.22,3.53s-.36,2.63-1.08,3.57c-.72.94-1.71,1.65-2.96,2.12-1.26.47-2.69.71-4.31.71h-7.29ZM249.2,330.17h2.94c1.68,0,2.89-.29,3.62-.88.73-.58,1.1-1.37,1.1-2.36,0-1.17-.39-1.99-1.16-2.46-.77-.47-1.93-.71-3.47-.71h-3.03v6.41ZM249.2,340.19h3.47c1.7,0,3.02-.31,3.96-.93.94-.62,1.41-1.6,1.41-2.92,0-1.23-.46-2.12-1.38-2.68s-2.25-.84-3.99-.84h-3.47v7.38Z"/>
      <path class="cls-1" d="M272.81,343.3c-1.52,0-2.95-.28-4.29-.85-1.33-.56-2.5-1.34-3.51-2.33l2.05-2.4c.77.77,1.67,1.39,2.68,1.87,1.02.47,2.05.71,3.1.71,1.32,0,2.34-.28,3.05-.84.71-.56,1.07-1.31,1.07-2.24,0-.67-.15-1.21-.46-1.62-.31-.41-.72-.75-1.25-1.02-.52-.28-1.12-.56-1.79-.86l-3.05-1.3c-.69-.32-1.38-.71-2.06-1.19-.68-.47-1.25-1.08-1.69-1.82-.44-.74-.67-1.65-.67-2.71,0-1.15.31-2.17.92-3.08.61-.91,1.46-1.62,2.54-2.14,1.08-.51,2.32-.77,3.72-.77,1.29,0,2.5.24,3.65.73s2.12,1.15,2.94,2l-1.75,2.19c-.69-.61-1.43-1.09-2.21-1.42-.78-.34-1.66-.5-2.62-.5-1.11,0-2,.25-2.67.74-.67.49-1.01,1.17-1.01,2.02,0,.63.17,1.15.52,1.56.35.41.79.74,1.32.99.53.26,1.11.51,1.72.77l2.96,1.28c.87.36,1.64.79,2.31,1.3.67.51,1.2,1.14,1.57,1.88.38.74.56,1.64.56,2.68,0,1.17-.31,2.23-.92,3.2-.61.97-1.49,1.74-2.64,2.31s-2.51.86-4.09.86Z"/>
      <path class="cls-1" d="M286.06,342.92v-21.82h3.44v21.82h-3.44Z"/>
      <path class="cls-1" d="M301.15,342.92v-18.95h-6.43v-2.88h16.31v2.88h-6.4v18.95h-3.47Z"/>
      <path class="cls-1" d="M316.28,342.92v-21.82h12.93v2.88h-9.49v6.08h8.01v2.94h-8.01v7h9.82v2.94h-13.25Z"/>
    </g>
    <g>
      <path class="cls-1" d="M253.06,159.29l-6.77-.25,6.78,11.32c1.03,1.72.47,3.94-1.25,4.97-.58.35-1.22.52-1.86.52-1.23,0-2.43-.63-3.11-1.76l-6.78-11.32-2.97,6.08c-.93,1.9-3.75,1.53-4.15-.55l-5.84-30.2c-.39-2.02,1.96-3.43,3.56-2.13l23.86,19.41c1.64,1.34.64,4-1.48,3.92ZM127.03,101.65h108.19c1.52,0,2.76,1.97,2.76,4.4s-1.23,4.4-2.76,4.4h-108.19c-1.52,0-2.76-1.97-2.76-4.4s1.23-4.4,2.76-4.4ZM127.24,130.14h82.83c1.64,0,2.97,1.97,2.97,4.4s-1.33,4.4-2.97,4.4h-82.83c-1.64,0-2.97-1.97-2.97-4.4s1.33-4.4,2.97-4.4ZM126.83,158.64h71.52c1.41,0,2.56,1.97,2.56,4.4s-1.15,4.4-2.56,4.4h-71.52c-1.41,0-2.56-1.97-2.56-4.4s1.15-4.4,2.56-4.4Z"/>
      <path class="cls-1" d="M186.32,74.57c-.17-.05-.35-.09-.51-.16.16.07.34.11.51.16Z"/>
      <path class="cls-1" d="M187.75,74.8h0c2.06,0,3.83-1.25,4.59-3.04-.76,1.79-2.52,3.04-4.59,3.04Z"/>
      <path class="cls-1" d="M275.31,54.94H100.18c-5.78,0-10.48,5.17-10.48,11.52v128.18c0,6.35,4.7,11.52,10.48,11.52h175.13c5.78,0,10.48-5.17,10.48-11.52V66.46c0-6.35-4.7-11.52-10.48-11.52ZM187.75,64.84c2.6,0,4.72,2.01,4.94,4.55.01.14.04.28.04.43,0,.27-.04.53-.08.78-.06.4-.16.79-.31,1.15-.76,1.79-2.52,3.04-4.59,3.04h0c-.5,0-.97-.09-1.42-.23-.17-.05-.35-.09-.51-.16-1.55-.66-2.69-2.09-2.96-3.8-.04-.26-.08-.52-.08-.78,0-.15.03-.28.04-.43.22-2.55,2.33-4.55,4.94-4.55ZM268.7,82.66v106.17c0,.79-.58,1.43-1.3,1.43H108.1c-.72,0-1.3-.64-1.3-1.43v-108.66h161.9v2.49Z"/>
      <path class="cls-1" d="M241.35,160.17l-1.27,2.59,6.78,11.32c.68,1.13,1.88,1.76,3.11,1.76.63,0,1.27-.17,1.86-.52,1.72-1.03,2.27-3.25,1.25-4.97l-6.78-11.32-2.88-.11c-.87-.03-1.68.45-2.07,1.24Z"/>
      <path class="cls-1" d="M227.12,138.09l5.84,30.2c.4,2.08,3.22,2.45,4.15.55l2.97-6.08-1.59-2.66c-1.03-1.72-.47-3.94,1.25-4.97,1.71-1.03,3.94-.47,4.97,1.25l1.59,2.66,6.77.25c2.12.08,3.12-2.58,1.48-3.92l-23.86-19.41c-1.6-1.3-3.95.11-3.56,2.13Z"/>
      <path class="cls-1" d="M239.74,155.13c-1.72,1.03-2.27,3.25-1.25,4.97l1.59,2.66,1.27-2.59c.38-.78,1.19-1.27,2.07-1.24l2.88.11-1.59-2.66c-1.03-1.72-3.25-2.28-4.97-1.25Z"/>
      <path class="cls-1" d="M126.83,167.44h71.52c1.41,0,2.56-1.97,2.56-4.4s-1.15-4.4-2.56-4.4h-71.52c-1.41,0-2.56,1.97-2.56,4.4s1.15,4.4,2.56,4.4Z"/>
      <path class="cls-1" d="M127.24,138.95h82.83c1.64,0,2.97-1.97,2.97-4.4s-1.33-4.4-2.97-4.4h-82.83c-1.64,0-2.97,1.97-2.97,4.4s1.33,4.4,2.97,4.4Z"/>
      <path class="cls-1" d="M127.03,110.45h108.19c1.52,0,2.76-1.97,2.76-4.4s-1.23-4.4-2.76-4.4h-108.19c-1.52,0-2.76,1.97-2.76,4.4s1.23,4.4,2.76,4.4Z"/>
    </g>
  </g>
</svg>