<?xml version="1.0" encoding="UTF-8"?>
<svg id="Layer_2" data-name="Layer 2" xmlns="http://www.w3.org/2000/svg" viewBox="0 0 375.49 375.49">
  <defs>
    <style>
      .cls-1 {
        fill: #10a6e0;
      }

      .cls-2 {
        fill: #fff;
        stroke: #10a6e0;
        stroke-miterlimit: 10;
        stroke-width: 4px;
      }
    </style>
  </defs>
  <g id="Layer_1-2" data-name="Layer 1">
    <rect class="cls-2" x="2" y="2" width="371.49" height="371.49" rx="47.32" ry="47.32"/>
    <g>
      <path class="cls-1" d="M59.37,243.41l6.7,2.19c-1.5,3.52-3.3,7-5.38,10.43-2.08,3.44-4.29,6.65-6.63,9.63-2.34,2.98-4.71,5.59-7.12,7.83-.34-.47-.85-1.03-1.51-1.67-.67-.64-1.34-1.28-2.03-1.9-.69-.62-1.31-1.13-1.87-1.51,2.36-1.97,4.66-4.29,6.89-6.96,2.23-2.66,4.29-5.54,6.18-8.63s3.48-6.23,4.77-9.4ZM49.84,298.74c-.17-.47-.4-1.11-.68-1.9-.28-.79-.58-1.62-.9-2.48-.32-.86-.63-1.59-.93-2.19.99-.26,1.96-.85,2.93-1.77.97-.92,2.05-2.14,3.25-3.64.73-.73,1.72-1.92,2.96-3.58,1.24-1.65,2.65-3.64,4.22-5.96,1.57-2.32,3.14-4.81,4.73-7.47,1.59-2.66,3.03-5.35,4.32-8.05l7.02,2.96c-2.1,3.78-4.38,7.49-6.83,11.14-2.45,3.65-4.97,7.12-7.57,10.4-2.6,3.29-5.19,6.24-7.76,8.86v.19c-.99.47-1.79.89-2.42,1.26-.62.36-1.17.74-1.64,1.13-.47.39-.71.75-.71,1.09ZM49.84,298.74l-.19-5.22,4.25-2.32,37.55-2.25c.13.9.34,1.92.64,3.06s.54,2.05.71,2.74c-6.01.43-11.18.8-15.49,1.13s-7.98.59-10.98.81c-3.01.21-5.48.42-7.41.61-1.93.19-3.48.36-4.64.52-1.16.15-2.08.29-2.77.42-.69.13-1.25.3-1.67.51ZM69.68,243.34h13.85v6.25h-13.85v-6.25ZM78.44,243.34h7.15c1.03,3.22,2.38,6.37,4.06,9.44,1.67,3.07,3.61,5.87,5.8,8.41,2.19,2.54,4.59,4.62,7.21,6.25-.47.43-1.01,1-1.61,1.71-.6.71-1.18,1.44-1.74,2.19-.56.75-1.03,1.45-1.42,2.09-2.66-2.06-5.15-4.52-7.47-7.38-2.32-2.85-4.37-5.94-6.15-9.24-1.78-3.31-3.23-6.66-4.35-10.05h-1.48v-3.41ZM78.44,278.58l5.93-2.64c1.76,2.32,3.55,4.81,5.38,7.47,1.83,2.66,3.53,5.26,5.12,7.79,1.59,2.53,2.9,4.77,3.93,6.7l-6.25,3.41c-.9-1.98-2.15-4.29-3.74-6.96-1.59-2.66-3.3-5.37-5.12-8.12-1.83-2.75-3.58-5.3-5.25-7.67Z"/>
      <path class="cls-1" d="M122.3,245.73h48.31v5.86h-48.31v-5.86ZM122.82,257.39h38.52v5.35h-38.52v-5.35ZM126.62,268.72h5.93v25.96h-5.93v-25.96ZM131.64,268.72h25.7v21.19h-25.7v-5.28h19.71v-10.56h-19.71v-5.35ZM168.36,245.73h6.18v47.47c0,1.85-.22,3.32-.64,4.41-.43,1.09-1.29,1.9-2.58,2.42-1.2.56-2.82.89-4.86,1-2.04.11-4.52.16-7.44.16-.04-.64-.18-1.35-.42-2.13-.24-.77-.49-1.57-.77-2.38-.28-.82-.55-1.52-.81-2.13,1.33.09,2.66.14,3.99.16,1.33.02,2.51.02,3.54,0,1.03-.02,1.76-.03,2.19-.03.6,0,1.02-.12,1.26-.35.24-.24.36-.65.36-1.26v-47.34Z"/>
      <path class="cls-1" d="M201.59,262.41h5.54v15.2c0,2.41-.14,5.07-.42,7.99-.28,2.92-.8,5.76-1.58,8.53s-1.96,5.25-3.54,7.44c-.34-.3-.79-.69-1.35-1.16-.56-.47-1.14-.91-1.74-1.32-.6-.41-1.12-.72-1.55-.93,1.42-1.98,2.45-4.16,3.09-6.54.64-2.38,1.06-4.8,1.26-7.25.19-2.45.29-4.75.29-6.89v-15.07ZM197.41,251.65h58.04v5.54h-58.04v-5.54ZM204.43,272.91h17.52v4.64h-17.52v-4.64ZM204.43,283.02h17.52v4.64h-17.52v-4.64ZM205.14,262.41h17.46v4.83h-17.46v-4.83ZM206.88,243.67l5.73-2c1.25,1.29,2.45,2.76,3.61,4.41,1.16,1.65,2.06,3.1,2.71,4.35l-6.12,2.19c-.47-1.2-1.28-2.65-2.42-4.35-1.14-1.7-2.31-3.23-3.51-4.61ZM219.76,262.41h5.93v32.66c0,1.37-.18,2.47-.55,3.29-.37.81-1.04,1.46-2.03,1.93s-2.2.76-3.64.87c-1.44.11-3.21.16-5.31.16-.17-.77-.45-1.67-.84-2.71-.39-1.03-.79-1.91-1.22-2.64,1.46.04,2.81.08,4.06.1,1.25.02,2.08.01,2.51-.03.43,0,.72-.07.87-.23s.22-.42.22-.8v-32.59ZM232.51,262.99h5.6v26.41h-5.6v-26.41ZM240.05,241.48l6.57,2c-1.25,2.06-2.57,4.1-3.96,6.12-1.4,2.02-2.65,3.76-3.77,5.22l-5.47-1.93c.77-1.07,1.58-2.26,2.42-3.58.84-1.31,1.61-2.65,2.32-4.03.71-1.37,1.34-2.64,1.9-3.8ZM245.52,261.12h5.99v33.3c0,1.59-.2,2.83-.61,3.74-.41.9-1.19,1.59-2.35,2.06-1.07.47-2.47.77-4.19.9-1.72.13-3.78.17-6.18.13-.17-.77-.47-1.72-.9-2.83-.43-1.12-.86-2.1-1.29-2.96,1.8.09,3.48.14,5.02.16,1.55.02,2.6.01,3.16-.03.51,0,.87-.08,1.06-.26.19-.17.29-.49.29-.97v-33.24Z"/>
      <path class="cls-1" d="M289.65,288.69l5.54,2.25c-1.46,1.25-3.15,2.46-5.06,3.64-1.91,1.18-3.88,2.28-5.89,3.29-2.02,1.01-3.95,1.9-5.8,2.67-.34-.39-.79-.86-1.35-1.42l-1.64-1.64c-.54-.54-1.04-.96-1.51-1.26,1.89-.6,3.8-1.3,5.73-2.09,1.93-.79,3.77-1.65,5.51-2.58,1.74-.92,3.23-1.88,4.48-2.87ZM275.02,266.02h57.01v4.9h-57.01v-4.9ZM282.05,243.86h43.16v18.68h-43.16v-18.68ZM283.59,273.81h40.52v13.66h-40.52v-13.66ZM287.91,247.79v3.48h31.18v-3.48h-31.18ZM287.91,255.07v3.54h31.18v-3.54h-31.18ZM289.39,278.19v5.02h28.6v-5.02h-28.6ZM300.66,285.15h6.18v10.89c0,1.37-.2,2.43-.61,3.16-.41.73-1.17,1.25-2.29,1.55-1.07.34-2.42.56-4.03.64-1.61.08-3.55.13-5.83.13-.13-.77-.37-1.6-.71-2.48-.34-.88-.71-1.67-1.09-2.35,1.03.04,2.04.07,3.03.1.99.02,1.88.03,2.67.03h1.58c.47-.04.77-.13.9-.26s.19-.37.19-.71v-10.69ZM298.92,263.63l5.41-1.74c.73.82,1.41,1.76,2.03,2.83.62,1.07,1.08,2.04,1.38,2.9l-5.6,2c-.22-.82-.63-1.8-1.26-2.96-.62-1.16-1.28-2.17-1.96-3.03ZM311.1,292.36l3.93-3.41c1.93.64,3.96,1.42,6.09,2.32,2.12.9,4.16,1.84,6.12,2.8,1.95.97,3.6,1.88,4.93,2.74l-4.25,3.86c-1.2-.82-2.75-1.73-4.64-2.74-1.89-1.01-3.91-2.01-6.05-3-2.15-.99-4.19-1.85-6.12-2.58Z"/>
    </g>
    <g>
      <path class="cls-1" d="M44.82,343.26c-1.23,0-2.38-.22-3.46-.67s-2-1.11-2.8-1.98c-.79-.87-1.42-1.94-1.86-3.2s-.67-2.7-.67-4.33.23-3.04.7-4.31c.46-1.27,1.1-2.34,1.92-3.21.81-.88,1.75-1.54,2.83-2.01s2.24-.7,3.51-.7,2.29.25,3.24.74,1.72,1.07,2.33,1.73l-1.66,2.01c-.52-.54-1.09-.96-1.73-1.29-.63-.32-1.35-.48-2.16-.48-1.12,0-2.12.3-2.99.9-.87.6-1.54,1.46-2.04,2.57-.49,1.12-.74,2.44-.74,3.98s.23,2.9.7,4.03c.46,1.13,1.12,2,1.98,2.61.86.61,1.87.91,3.03.91.89,0,1.69-.19,2.4-.58.71-.38,1.35-.9,1.94-1.54l1.69,1.98c-.79.91-1.69,1.61-2.71,2.1-1.02.49-2.17.74-3.46.74Z"/>
      <path class="cls-1" d="M62.36,343.26c-1.68,0-3.17-.42-4.46-1.25-1.29-.83-2.31-2.02-3.04-3.56-.73-1.54-1.1-3.37-1.1-5.48s.37-3.95,1.1-5.46,1.75-2.67,3.04-3.47c1.29-.79,2.78-1.19,4.46-1.19s3.19.4,4.47,1.21c1.29.8,2.29,1.96,3.03,3.47s1.1,3.33,1.1,5.45-.37,3.93-1.1,5.48c-.73,1.54-1.74,2.73-3.03,3.56-1.29.83-2.78,1.25-4.47,1.25ZM62.36,340.56c1.09,0,2.04-.31,2.85-.94s1.44-1.5,1.89-2.64c.45-1.13.67-2.47.67-4s-.22-2.86-.67-3.98c-.45-1.12-1.08-1.97-1.89-2.56-.81-.59-1.76-.88-2.85-.88s-2.02.29-2.84.88c-.82.59-1.45,1.44-1.89,2.56-.44,1.12-.66,2.44-.66,3.98s.22,2.87.66,4,1.07,2.01,1.89,2.64,1.77.94,2.84.94Z"/>
      <path class="cls-1" d="M76.4,342.92v-19.71h3.59l3.59,9.96c.23.64.46,1.3.67,1.97.21.67.43,1.33.64,2h.11c.25-.66.48-1.33.68-2,.21-.67.42-1.33.63-1.97l3.54-9.96h3.62v19.71h-2.89v-9.75c0-.59.02-1.24.07-1.96s.1-1.44.17-2.17c.07-.73.12-1.39.16-1.98h-.11l-1.61,4.55-3.4,9.4h-1.93l-3.46-9.4-1.58-4.55h-.11c.07.59.14,1.25.2,1.98.06.73.11,1.46.15,2.17s.05,1.37.05,1.96v9.75h-2.79Z"/>
      <path class="cls-1" d="M99.97,342.92v-19.71h6c1.46,0,2.76.19,3.9.56,1.13.38,2.02,1,2.65,1.86.63.87.95,2.04.95,3.52s-.32,2.63-.95,3.55c-.63.92-1.51,1.61-2.64,2.06-1.12.46-2.39.68-3.8.68h-3v7.47h-3.11ZM103.07,332.93h2.68c1.57,0,2.74-.3,3.49-.91.76-.61,1.14-1.56,1.14-2.87s-.4-2.21-1.19-2.71c-.79-.5-1.98-.75-3.55-.75h-2.57v7.23Z"/>
      <path class="cls-1" d="M114.59,342.92l6.51-19.71h3.59l6.54,19.71h-3.29l-3.16-10.69c-.34-1.09-.66-2.18-.96-3.28-.3-1.1-.61-2.2-.91-3.31h-.11c-.29,1.11-.58,2.21-.9,3.31-.31,1.1-.63,2.19-.95,3.28l-3.21,10.69h-3.13ZM118.23,337.32v-2.44h9.24v2.44h-9.24Z"/>
      <path class="cls-1" d="M135.16,342.92v-19.71h3.16l6.56,11.57,2.09,4.15h.13c-.11-1-.21-2.07-.31-3.21-.1-1.14-.15-2.25-.15-3.32v-9.19h2.97v19.71h-3.19l-6.54-11.62-2.06-4.12h-.11c.05,1.02.13,2.08.23,3.19.1,1.11.15,2.2.15,3.27v9.29h-2.95Z"/>
      <path class="cls-1" d="M159.4,342.92v-7.45l-5.92-12.27h3.29l2.3,5.22c.3.75.6,1.47.9,2.17s.61,1.43.95,2.2h.11c.34-.77.66-1.5.96-2.2s.62-1.42.94-2.17l2.28-5.22h3.24l-5.95,12.27v7.45h-3.11Z"/>
      <path class="cls-1" d="M179.65,342.92v-19.71h6c1.46,0,2.76.19,3.9.56,1.13.38,2.02,1,2.65,1.86.63.87.95,2.04.95,3.52s-.32,2.63-.95,3.55c-.63.92-1.51,1.61-2.64,2.06-1.12.46-2.39.68-3.8.68h-3v7.47h-3.11ZM182.75,332.93h2.68c1.57,0,2.74-.3,3.49-.91.76-.61,1.14-1.56,1.14-2.87s-.4-2.21-1.19-2.71c-.79-.5-1.98-.75-3.55-.75h-2.57v7.23Z"/>
      <path class="cls-1" d="M198.34,342.92v-19.71h6.45c1.36,0,2.57.17,3.64.52,1.07.35,1.92.94,2.54,1.78.62.84.94,1.97.94,3.4s-.31,2.51-.94,3.42-1.47,1.57-2.54,2c-1.07.43-2.29.64-3.64.64h-3.35v7.96h-3.11ZM201.45,332.47h2.97c1.43,0,2.52-.3,3.28-.9.76-.6,1.14-1.49,1.14-2.67s-.38-2.03-1.14-2.5c-.76-.47-1.85-.71-3.28-.71h-2.97v6.78ZM209.11,342.92l-4.93-8.76,2.33-1.82,6.11,10.58h-3.51Z"/>
      <path class="cls-1" d="M224.72,343.26c-1.68,0-3.17-.42-4.46-1.25s-2.31-2.02-3.04-3.56c-.73-1.54-1.1-3.37-1.1-5.48s.37-3.95,1.1-5.46,1.75-2.67,3.04-3.47c1.29-.79,2.78-1.19,4.46-1.19s3.19.4,4.47,1.21,2.29,1.96,3.03,3.47c.73,1.51,1.1,3.33,1.1,5.45s-.37,3.93-1.1,5.48c-.73,1.54-1.74,2.73-3.03,3.56s-2.78,1.25-4.47,1.25ZM224.72,340.56c1.09,0,2.04-.31,2.85-.94s1.44-1.5,1.89-2.64.67-2.47.67-4-.22-2.86-.67-3.98c-.45-1.12-1.08-1.97-1.89-2.56-.81-.59-1.76-.88-2.85-.88s-2.02.29-2.84.88c-.82.59-1.45,1.44-1.89,2.56-.44,1.12-.66,2.44-.66,3.98s.22,2.87.66,4c.44,1.13,1.07,2.01,1.89,2.64.82.62,1.77.94,2.84.94Z"/>
      <path class="cls-1" d="M244.41,343.26c-1.38,0-2.67-.25-3.87-.76-1.21-.51-2.26-1.21-3.17-2.1l1.85-2.17c.7.7,1.5,1.26,2.42,1.69.92.43,1.85.64,2.8.64,1.2,0,2.12-.25,2.76-.76s.96-1.18.96-2.02c0-.61-.14-1.09-.42-1.46-.28-.37-.65-.67-1.12-.92s-1.01-.51-1.62-.78l-2.76-1.18c-.62-.29-1.25-.64-1.86-1.07-.62-.43-1.12-.98-1.53-1.65-.4-.67-.6-1.49-.6-2.45,0-1.04.28-1.96.83-2.79.55-.82,1.32-1.46,2.29-1.93s2.09-.7,3.36-.7c1.16,0,2.26.22,3.29.66s1.92,1.04,2.65,1.81l-1.58,1.98c-.63-.55-1.29-.98-2-1.29s-1.5-.46-2.37-.46c-1,0-1.8.22-2.41.67-.61.45-.91,1.05-.91,1.82,0,.57.16,1.04.47,1.41.31.37.71.67,1.19.9.48.23,1,.46,1.55.7l2.68,1.15c.79.32,1.48.71,2.09,1.18.61.46,1.08,1.03,1.42,1.7.34.67.51,1.48.51,2.42,0,1.05-.28,2.02-.83,2.89-.55.88-1.35,1.57-2.38,2.09-1.04.52-2.27.78-3.7.78Z"/>
      <path class="cls-1" d="M256.38,342.92v-19.71h6c1.46,0,2.76.19,3.9.56s2.02,1,2.65,1.86c.63.87.95,2.04.95,3.52s-.32,2.63-.95,3.55-1.51,1.61-2.64,2.06c-1.12.46-2.39.68-3.8.68h-3v7.47h-3.11ZM259.48,332.93h2.68c1.57,0,2.74-.3,3.5-.91.76-.61,1.14-1.56,1.14-2.87s-.4-2.21-1.19-2.71-1.98-.75-3.55-.75h-2.57v7.23Z"/>
      <path class="cls-1" d="M275.07,342.92v-19.71h11.68v2.6h-8.57v5.49h7.23v2.65h-7.23v6.32h8.87v2.65h-11.97Z"/>
      <path class="cls-1" d="M300.17,343.26c-1.23,0-2.38-.22-3.46-.67-1.07-.45-2-1.11-2.8-1.98-.79-.87-1.41-1.94-1.86-3.2-.45-1.26-.67-2.7-.67-4.33s.23-3.04.7-4.31c.46-1.27,1.1-2.34,1.92-3.21.81-.88,1.75-1.54,2.83-2.01,1.07-.46,2.24-.7,3.51-.7s2.29.25,3.24.74c.95.49,1.72,1.07,2.33,1.73l-1.66,2.01c-.52-.54-1.09-.96-1.73-1.29-.63-.32-1.35-.48-2.16-.48-1.12,0-2.12.3-2.99.9-.87.6-1.54,1.46-2.04,2.57-.49,1.12-.74,2.44-.74,3.98s.23,2.9.7,4.03,1.12,2,1.98,2.61c.86.61,1.87.91,3.03.91.89,0,1.69-.19,2.4-.58s1.35-.9,1.94-1.54l1.69,1.98c-.79.91-1.69,1.61-2.71,2.1-1.02.49-2.17.74-3.46.74Z"/>
      <path class="cls-1" d="M314.66,342.92v-17.11h-5.81v-2.6h14.73v2.6h-5.79v17.11h-3.13Z"/>
      <path class="cls-1" d="M332.93,343.26c-1.38,0-2.67-.25-3.87-.76s-2.26-1.21-3.17-2.1l1.85-2.17c.7.7,1.5,1.26,2.42,1.69s1.85.64,2.8.64c1.2,0,2.12-.25,2.76-.76.64-.51.96-1.18.96-2.02,0-.61-.14-1.09-.41-1.46-.28-.37-.65-.67-1.12-.92-.47-.25-1.01-.51-1.62-.78l-2.76-1.18c-.63-.29-1.25-.64-1.86-1.07s-1.12-.98-1.53-1.65c-.4-.67-.6-1.49-.6-2.45,0-1.04.28-1.96.83-2.79s1.32-1.46,2.29-1.93c.97-.46,2.09-.7,3.36-.7,1.16,0,2.26.22,3.29.66,1.04.44,1.92,1.04,2.65,1.81l-1.58,1.98c-.62-.55-1.29-.98-2-1.29-.71-.3-1.5-.46-2.37-.46-1,0-1.8.22-2.41.67-.61.45-.91,1.05-.91,1.82,0,.57.16,1.04.47,1.41.31.37.71.67,1.19.9.48.23,1,.46,1.55.7l2.68,1.15c.79.32,1.48.71,2.09,1.18.61.46,1.08,1.03,1.42,1.7.34.67.51,1.48.51,2.42,0,1.05-.28,2.02-.83,2.89-.55.88-1.35,1.57-2.38,2.09-1.04.52-2.27.78-3.7.78Z"/>
    </g>
    <g>
      <rect class="cls-1" x="106.67" y="198.36" width="164.52" height="7.79" rx="1.56" ry="1.56"/>
      <rect class="cls-1" x="106.67" y="122.15" width="32.68" height="68.8" rx="1.91" ry="1.91"/>
      <rect class="cls-1" x="150.62" y="100.84" width="32.68" height="90.11" rx="1.91" ry="1.91"/>
      <rect class="cls-1" x="194.56" y="77.91" width="32.68" height="113.04" rx="1.91" ry="1.91"/>
      <rect class="cls-1" x="238.5" y="54.94" width="32.68" height="136.01" rx="1.91" ry="1.91"/>
    </g>
  </g>
</svg>