<?xml version="1.0" encoding="UTF-8"?>
<svg id="Layer_2" data-name="Layer 2" xmlns="http://www.w3.org/2000/svg" viewBox="0 0 375.49 375.49">
  <defs>
    <style>
      .cls-1 {
        fill: #fff;
      }

      .cls-2 {
        fill: #00a7e1;
        stroke: #fff;
        stroke-miterlimit: 10;
        stroke-width: 4px;
      }
    </style>
  </defs>
  <g id="_圖層_2" data-name="圖層 2">
    <rect class="cls-2" x="2" y="2" width="371.49" height="371.49" rx="47.32" ry="47.32"/>
    <g>
      <path class="cls-1" d="M43.4,264.96c-.09-.39-.24-.9-.45-1.55-.22-.64-.44-1.3-.68-1.96-.24-.67-.46-1.23-.68-1.71.6-.17,1.19-.56,1.77-1.16.58-.6,1.19-1.39,1.84-2.38.47-.64,1.19-1.8,2.16-3.48s2-3.63,3.09-5.86c1.1-2.23,2.07-4.51,2.93-6.83l5.35,2.25c-1.63,3.52-3.49,7.04-5.57,10.56-2.08,3.52-4.18,6.57-6.28,9.15v.06c-.69.39-1.27.74-1.74,1.06-.47.32-.88.63-1.22.93-.34.3-.52.6-.52.9ZM44.56,282.09l5.09.84c-.3,2.96-.72,5.9-1.26,8.82-.54,2.92-1.15,5.41-1.84,7.47-.39-.22-.88-.43-1.48-.64-.6-.21-1.21-.44-1.84-.68-.62-.24-1.15-.4-1.58-.48.73-1.98,1.33-4.34,1.8-7.08.47-2.75.84-5.5,1.1-8.25ZM43.85,279.71c-.09-.43-.24-.98-.45-1.64-.22-.67-.45-1.35-.71-2.06s-.49-1.3-.71-1.77c.73-.21,1.47-.69,2.22-1.42.75-.73,1.64-1.7,2.67-2.9.47-.6,1.2-1.57,2.19-2.9.99-1.33,2.1-2.92,3.35-4.77,1.25-1.85,2.49-3.85,3.74-6.02,1.24-2.17,2.36-4.33,3.35-6.47l5.09,3.03c-1.55,2.88-3.25,5.75-5.12,8.63-1.87,2.88-3.83,5.62-5.89,8.21-2.06,2.6-4.1,4.95-6.12,7.05v.13c-.73.39-1.33.73-1.8,1.03-.47.3-.89.61-1.26.93-.37.32-.55.63-.55.93ZM43.4,264.96l-.19-4.32,2.71-1.61,11.4-.97c-.17.73-.31,1.58-.42,2.54-.11.97-.16,1.75-.16,2.35-2.58.26-4.66.48-6.25.68-1.59.19-2.86.37-3.8.52-.95.15-1.65.29-2.13.42-.47.13-.86.26-1.16.39ZM43.85,279.71l-.26-4.45,2.71-1.74,15.72-1.93c-.13.73-.23,1.56-.29,2.48-.06.92-.08,1.69-.03,2.29-3.52.56-6.39,1.01-8.6,1.35-2.21.34-3.92.63-5.12.87-1.2.24-2.1.43-2.71.58-.6.15-1.07.33-1.42.55ZM51.58,282.86l4.51-.84c.39,2.19.75,4.53,1.09,7.02.34,2.49.56,4.66.64,6.5l-4.77.9c-.04-1.85-.22-4.03-.52-6.54-.3-2.51-.62-4.86-.97-7.05ZM57.5,266.05l4.51-1.29c.56,1.42,1.13,2.95,1.71,4.61.58,1.65,1.08,3.24,1.51,4.77.43,1.53.75,2.85.97,3.96l-4.83,1.67c-.17-1.16-.46-2.52-.87-4.09-.41-1.57-.87-3.2-1.38-4.9-.52-1.7-1.05-3.27-1.61-4.73ZM57.95,281.51l4.25-1.35c.64,1.63,1.28,3.44,1.9,5.41.62,1.98,1.06,3.67,1.32,5.09l-4.44,1.55c-.22-1.46-.62-3.18-1.22-5.15-.6-1.97-1.2-3.82-1.8-5.54ZM64.46,292.91h37.04v5.6h-37.04v-5.6ZM72.25,250.33l5.28,1.29c-.9,1.63-1.92,3.37-3.06,5.22-1.14,1.85-2.22,3.57-3.25,5.15,1.37,1.85,2.71,3.76,3.99,5.73,1.29,1.98,2.25,3.67,2.9,5.09l-4.96,2.06c-.69-1.67-1.73-3.66-3.12-5.96-1.4-2.3-2.91-4.56-4.54-6.8.86-1.33,1.72-2.71,2.58-4.12.86-1.42,1.65-2.8,2.38-4.16.73-1.35,1.33-2.52,1.8-3.51ZM66.33,243.18h34.52v5.48h-34.52v-5.48ZM67.74,276.61h31.18v5.41h-31.18v-5.41ZM83.33,250.4l5.22,1.29c-.9,1.63-1.93,3.36-3.09,5.18-1.16,1.83-2.25,3.53-3.29,5.12.94,1.16,1.87,2.38,2.77,3.67.9,1.29,1.73,2.52,2.48,3.7.75,1.18,1.34,2.24,1.77,3.19l-4.83,2.13c-.73-1.67-1.8-3.65-3.22-5.93-1.42-2.28-3.03-4.51-4.83-6.7.94-1.33,1.85-2.69,2.71-4.09.86-1.4,1.67-2.75,2.45-4.06.77-1.31,1.4-2.48,1.87-3.51ZM80.11,279.19h6.12v17.13h-6.12v-17.13ZM94.35,250.33l5.28,1.29c-.95,1.67-2.01,3.42-3.19,5.25-1.18,1.83-2.29,3.53-3.32,5.12.99,1.16,1.95,2.38,2.9,3.67.94,1.29,1.84,2.53,2.67,3.74.84,1.2,1.49,2.28,1.96,3.22l-4.9,2.25c-.77-1.67-1.93-3.67-3.48-5.99-1.55-2.32-3.24-4.57-5.09-6.76.9-1.33,1.8-2.71,2.71-4.12.9-1.42,1.74-2.8,2.51-4.16s1.42-2.52,1.93-3.51Z"/>
      <path class="cls-1" d="M121.53,280.29l3.29,1.16c-.17,1.42-.39,3-.64,4.73-.26,1.74-.56,3.45-.9,5.12-.34,1.67-.71,3.16-1.1,4.44l-3.41-1.35c.39-1.25.77-2.68,1.16-4.32.39-1.63.71-3.32.97-5.06s.47-3.32.64-4.73ZM144.14,242.93v5.02h-17.2v24.54h15.2v5.09h-19.97v-34.65h21.96ZM125.14,253.17h17.84v4.64h-17.84v-4.64ZM125.14,262.7h17.91v4.64h-17.91v-4.64ZM125.78,281.57l2.77-.32c.21,1.89.39,3.93.52,6.12.13,2.19.21,4.08.26,5.67l-2.96.32c.04-1.59,0-3.49-.13-5.7-.13-2.21-.28-4.24-.45-6.09ZM129.65,280.99l2.64-.45c.47,1.63.92,3.42,1.35,5.38.43,1.95.73,3.64.9,5.06l-2.77.58c-.17-1.42-.46-3.11-.87-5.09-.41-1.97-.83-3.8-1.26-5.47ZM131.9,246.66h4.83v29.31h-4.83v-29.31ZM139.56,272.49h4.9c0,1.07-.02,1.78-.06,2.13-.17,5.24-.34,9.45-.52,12.62-.17,3.18-.4,5.57-.68,7.18-.28,1.61-.66,2.74-1.13,3.38-.43.6-.91,1.04-1.45,1.32-.54.28-1.17.44-1.9.48-.64.13-1.43.19-2.35.19s-1.88-.02-2.87-.06c-.04-.69-.18-1.46-.42-2.32-.24-.86-.53-1.61-.87-2.25.94.08,1.77.14,2.48.16.71.02,1.26.03,1.64.03.34,0,.64-.04.9-.13.26-.09.47-.28.64-.58.34-.43.6-1.36.77-2.8.17-1.44.33-3.63.48-6.57.15-2.94.29-6.9.42-11.88v-.9ZM133.45,280.16l2.38-.84c.64,1.33,1.29,2.77,1.93,4.32s1.12,2.88,1.42,3.99l-2.51.97c-.3-1.12-.76-2.47-1.39-4.06-.62-1.59-1.23-3.05-1.84-4.38ZM159.85,239.45l5.6,1.93c-2.1,3.61-4.82,6.98-8.15,10.11-3.33,3.13-6.9,5.84-10.72,8.12-.26-.39-.62-.83-1.1-1.32-.47-.49-.94-.98-1.42-1.45-.47-.47-.9-.84-1.29-1.09,2.45-1.37,4.76-2.94,6.92-4.7,2.17-1.76,4.13-3.63,5.89-5.6,1.76-1.97,3.18-3.97,4.25-5.99ZM151.09,280.61l5.22.9c-.82,3.82-2.03,7.32-3.64,10.5-1.61,3.18-3.51,5.86-5.7,8.05-.3-.3-.7-.67-1.19-1.09-.49-.43-.99-.86-1.48-1.29-.49-.43-.96-.79-1.39-1.09,2.06-1.85,3.79-4.16,5.19-6.92,1.4-2.77,2.39-5.79,3-9.05ZM146.59,263.6h13.33v15.39h-13.33v-15.39ZM150.64,289.56l2.96-3.67c1.42.82,2.89,1.79,4.41,2.93,1.52,1.14,2.72,2.16,3.57,3.06l-3.09,4.06c-.86-.99-2.04-2.08-3.54-3.29-1.5-1.2-2.94-2.23-4.32-3.09ZM150.71,267.66v7.28h4.83v-7.28h-4.83ZM151.74,254.52h19.19v4.83h-19.19v-4.83ZM162.37,241.38c1.2,1.5,2.76,3.04,4.67,4.61,1.91,1.57,3.94,3.03,6.09,4.38,2.15,1.35,4.21,2.48,6.18,3.38-.3.47-.61,1.03-.93,1.67s-.61,1.3-.87,1.96c-.26.67-.47,1.28-.64,1.84-2.15-1.25-4.38-2.71-6.7-4.38s-4.52-3.46-6.6-5.35c-2.08-1.89-3.85-3.74-5.31-5.54l4.12-2.58ZM167.07,280.29l5.48.97c-.69,3.82-1.78,7.37-3.28,10.63-1.5,3.26-3.33,5.97-5.48,8.12-.3-.26-.72-.61-1.26-1.06-.54-.45-1.09-.89-1.67-1.32-.58-.43-1.11-.77-1.58-1.03,2.06-1.89,3.74-4.24,5.02-7.05,1.29-2.81,2.21-5.89,2.77-9.24ZM162.56,263.6h13.72v15.39h-13.72v-15.39ZM165.65,291.17l3.41-3.74c1.12.73,2.29,1.54,3.51,2.42,1.22.88,2.38,1.76,3.48,2.64,1.09.88,1.96,1.69,2.61,2.42l-3.61,4.19c-.64-.77-1.5-1.63-2.58-2.58-1.07-.95-2.21-1.89-3.41-2.83-1.2-.94-2.34-1.78-3.41-2.51ZM166.68,267.66v7.28h5.28v-7.28h-5.28Z"/>
      <path class="cls-1" d="M212.42,242.35l6.31,1.55c-1.16,3.69-2.65,7.2-4.48,10.53-1.83,3.33-3.84,6.38-6.05,9.15-2.21,2.77-4.56,5.16-7.05,7.18-.39-.43-.89-.92-1.51-1.48-.62-.56-1.27-1.13-1.93-1.71-.67-.58-1.23-1.04-1.71-1.38,3.78-2.62,7.07-6.01,9.89-10.18,2.81-4.17,4.99-8.72,6.54-13.66ZM219.11,265.99h6.63c-.34,3.57-.88,7.03-1.61,10.4-.73,3.37-1.89,6.56-3.48,9.57-1.59,3.01-3.81,5.73-6.67,8.18-2.86,2.45-6.6,4.53-11.24,6.25-.26-.56-.6-1.18-1.03-1.87-.43-.69-.9-1.35-1.42-2-.52-.64-1.03-1.18-1.55-1.61,4.25-1.37,7.67-3.11,10.24-5.22,2.58-2.1,4.54-4.42,5.89-6.96,1.35-2.53,2.33-5.22,2.93-8.05.6-2.83,1.03-5.73,1.29-8.7ZM206.43,264.25h36.01v5.93h-36.01v-5.93ZM223.11,241.25h14.36v5.73h-14.36v-5.73ZM240.43,264.25h6.31v1.74c0,.43-.02.77-.06,1.03-.22,4.98-.43,9.21-.64,12.69-.22,3.48-.48,6.39-.81,8.73-.32,2.34-.67,4.18-1.03,5.51-.37,1.33-.85,2.32-1.45,2.96-.73.94-1.51,1.6-2.35,1.96-.84.36-1.84.61-3,.74-1.12.08-2.58.13-4.38.13s-3.69-.04-5.67-.13c-.04-.95-.25-1.99-.61-3.12-.37-1.14-.85-2.14-1.45-3,1.97.13,3.81.23,5.51.29,1.7.06,2.93.1,3.7.1.64,0,1.17-.06,1.58-.19.41-.13.78-.36,1.13-.71.56-.56,1.03-1.82,1.42-3.8.39-1.97.72-4.88,1-8.73.28-3.84.55-8.86.81-15.04v-1.16ZM231.68,241.25h6.83c1.03,3.31,2.45,6.47,4.25,9.5,1.8,3.03,3.92,5.78,6.34,8.25,2.43,2.47,5.08,4.48,7.96,6.02-.43.43-.92.98-1.48,1.64-.56.67-1.1,1.34-1.61,2.03-.52.69-.94,1.33-1.29,1.93-3.01-1.93-5.77-4.28-8.28-7.05-2.51-2.77-4.72-5.78-6.63-9.02-1.91-3.24-3.47-6.58-4.67-10.02h-1.42v-3.29Z"/>
      <path class="cls-1" d="M274.77,282.67h57.91v5.22h-57.91v-5.22ZM275.54,245.44h56.17v5.22h-56.17v-5.22ZM280.95,271.2h39.74v4.83h-39.74v-4.83ZM283.4,254.26h41.03v13.59h-41.03v-13.59ZM300.34,279.32h6.44v14.81c0,1.59-.26,2.77-.77,3.54-.52.77-1.44,1.35-2.77,1.74-1.29.3-2.94.49-4.96.58-2.02.08-4.44.13-7.28.13-.17-.82-.47-1.69-.9-2.61-.43-.92-.84-1.75-1.22-2.48,1.37.04,2.75.07,4.12.1,1.37.02,2.59.03,3.64.03h2.16c.6-.04,1.01-.15,1.22-.32.21-.17.32-.49.32-.97v-14.56ZM289.45,258.64v4.83h28.47v-4.83h-28.47ZM298.73,240.87l6.18-1.1c.69,1.2,1.32,2.56,1.9,4.06.58,1.5.98,2.77,1.19,3.8l-6.51,1.35c-.22-1.07-.58-2.37-1.09-3.9-.52-1.52-1.07-2.93-1.67-4.22ZM319.4,271.14h1.67l1.35-.26,3.93,3.41c-2.1,1.16-4.41,2.27-6.92,3.32-2.51,1.05-5.14,2-7.89,2.83-2.75.84-5.48,1.58-8.18,2.22-.34-.52-.82-1.12-1.42-1.8-.6-.69-1.14-1.22-1.61-1.61,2.32-.56,4.69-1.21,7.12-1.96,2.43-.75,4.69-1.57,6.8-2.45,2.1-.88,3.82-1.73,5.15-2.54v-1.16Z"/>
    </g>
    <g>
      <path class="cls-1" d="M187.75,125.04c-15.69,0-27.96-13.2-34.52-26.08-4.84-2.01-9.27-7.31-11.25-11.84-3.41-7.82-1.31-16.03,4.77-18.74,2.21-21.2,19.7-37.41,40.99-37.41s38.78,16.21,40.99,37.41c6.08,2.71,8.18,10.92,4.77,18.74-1.97,4.53-6.4,9.83-11.25,11.84-6.57,12.88-18.83,26.08-34.52,26.08ZM187.75,38.63c-18.12,0-32.86,14.47-33.55,32.93l-.13,3.46-3.46.21c-.42.03-.62.08-.73.13-1.86.81-2.63,4.7-.89,8.7,1.74,3.99,5.54,7.53,7.79,8.03l1.82.41.8,1.68c5.35,11.22,15.61,23.2,28.35,23.2s22.99-11.99,28.35-23.2l.8-1.68,1.82-.41c2.24-.5,6.04-4.04,7.78-8.03,1.74-4,.97-7.89-.89-8.7-.1-.04-.31-.1-.73-.13l-3.46-.21-.13-3.46c-.7-18.47-15.43-32.93-33.55-32.93Z"/>
      <path class="cls-1" d="M217.97,126.91l-15.4,57.31h-29.65l-15.4-57.31c-20.55,5.19-35.88,23.89-35.88,45.99v37.56h132.21v-37.56c0-22.11-15.33-40.8-35.88-45.99Z"/>
      <path class="cls-1" d="M187.75,133.98h0c2.67,0,4.89,2.06,5.1,4.72l4.76,61.95c-1.11.85-2.27,1.33-3.45,1.33h-12.8c-1.18,0-2.34-.48-3.45-1.33l4.76-61.95c.2-2.66,2.42-4.72,5.1-4.72Z"/>
      <g>
        <path class="cls-1" d="M222.2,58.07c-5.67-13.67-18.95-23.27-34.45-23.27s-28.78,9.6-34.45,23.27h68.91Z"/>
        <path class="cls-1" d="M224.49,59.6h-73.49l.88-2.12c6.11-14.71,20.19-24.21,35.87-24.21s29.76,9.5,35.87,24.21l.88,2.12ZM155.66,56.54h64.16c-6.05-12.35-18.41-20.21-32.08-20.21s-26.03,7.86-32.08,20.21Z"/>
      </g>
    </g>
    <g>
      <path class="cls-1" d="M37.24,342.52v-19.71h11.68v2.6h-8.57v5.49h7.23v2.65h-7.23v6.32h8.87v2.65h-11.97Z"/>
      <path class="cls-1" d="M52.48,342.52l5.65-10.18-5.3-9.54h3.46l2.38,4.61c.25.46.49.93.71,1.39.22.46.5,1,.82,1.61h.11c.25-.61.48-1.14.7-1.61s.44-.93.67-1.39l2.28-4.61h3.29l-5.3,9.7,5.7,10.02h-3.48l-2.6-4.9c-.25-.5-.51-1.01-.78-1.54-.27-.53-.55-1.09-.86-1.7h-.11c-.27.61-.53,1.17-.78,1.7-.25.53-.5,1.04-.75,1.54l-2.49,4.9h-3.32Z"/>
      <path class="cls-1" d="M71.95,342.52v-19.71h6c1.46,0,2.76.19,3.9.56,1.13.38,2.02,1,2.65,1.86.63.87.95,2.04.95,3.52s-.32,2.63-.95,3.55-1.51,1.61-2.64,2.06c-1.12.46-2.39.68-3.8.68h-3v7.47h-3.11ZM75.06,332.53h2.68c1.57,0,2.74-.3,3.5-.91.76-.61,1.14-1.56,1.14-2.87s-.4-2.21-1.19-2.71-1.98-.75-3.55-.75h-2.57v7.23Z"/>
      <path class="cls-1" d="M90.64,342.52v-19.71h11.68v2.6h-8.57v5.49h7.23v2.65h-7.23v6.32h8.87v2.65h-11.97Z"/>
      <path class="cls-1" d="M108.05,342.52v-19.71h6.45c1.36,0,2.57.17,3.64.52,1.07.35,1.92.94,2.54,1.78.62.84.94,1.97.94,3.4s-.31,2.51-.94,3.42-1.47,1.57-2.54,2-2.29.64-3.64.64h-3.35v7.96h-3.11ZM111.16,332.07h2.97c1.43,0,2.52-.3,3.28-.9.76-.6,1.14-1.49,1.14-2.67s-.38-2.03-1.14-2.5c-.76-.47-1.85-.71-3.28-.71h-2.97v6.78ZM118.82,342.52l-4.93-8.76,2.33-1.82,6.11,10.58h-3.51Z"/>
      <path class="cls-1" d="M126.94,342.52v-19.71h3.11v19.71h-3.11Z"/>
      <path class="cls-1" d="M136.55,342.52v-19.71h11.68v2.6h-8.57v5.49h7.23v2.65h-7.23v6.32h8.87v2.65h-11.97Z"/>
      <path class="cls-1" d="M153.96,342.52v-19.71h3.16l6.56,11.57,2.09,4.15h.13c-.11-1-.21-2.07-.31-3.21-.1-1.14-.15-2.25-.15-3.32v-9.19h2.97v19.71h-3.19l-6.54-11.62-2.06-4.12h-.11c.05,1.02.13,2.08.23,3.19.1,1.11.15,2.2.15,3.27v9.29h-2.95Z"/>
      <path class="cls-1" d="M182.64,342.87c-1.23,0-2.38-.22-3.46-.67s-2-1.11-2.8-1.98c-.79-.87-1.42-1.94-1.86-3.2s-.67-2.7-.67-4.33.23-3.04.7-4.31c.46-1.27,1.1-2.34,1.92-3.21.81-.88,1.75-1.54,2.83-2.01s2.24-.7,3.51-.7,2.29.25,3.24.74c.95.49,1.72,1.07,2.33,1.73l-1.66,2.01c-.52-.54-1.09-.96-1.73-1.29-.63-.32-1.35-.48-2.16-.48-1.12,0-2.12.3-2.99.9-.87.6-1.54,1.46-2.04,2.57-.49,1.12-.74,2.44-.74,3.98s.23,2.9.7,4.03,1.12,2,1.98,2.61c.86.61,1.87.91,3.03.91.89,0,1.69-.19,2.4-.58.71-.38,1.35-.9,1.94-1.54l1.69,1.98c-.79.91-1.69,1.61-2.71,2.1-1.02.49-2.17.74-3.46.74Z"/>
      <path class="cls-1" d="M193.6,342.52v-19.71h11.68v2.6h-8.57v5.49h7.23v2.65h-7.23v6.32h8.87v2.65h-11.97Z"/>
      <path class="cls-1" d="M224.02,342.87c-1.38,0-2.67-.25-3.87-.76-1.21-.51-2.26-1.21-3.17-2.1l1.85-2.17c.7.7,1.5,1.26,2.42,1.69.92.43,1.85.64,2.8.64,1.2,0,2.12-.25,2.76-.76.64-.51.96-1.18.96-2.02,0-.61-.14-1.09-.42-1.46-.28-.37-.65-.67-1.12-.92-.47-.25-1.01-.51-1.62-.78l-2.76-1.18c-.63-.29-1.25-.64-1.86-1.07-.62-.43-1.12-.98-1.53-1.65-.4-.67-.6-1.49-.6-2.45,0-1.04.28-1.96.83-2.79.55-.82,1.32-1.46,2.29-1.93.97-.46,2.09-.7,3.36-.7,1.16,0,2.26.22,3.29.66,1.04.44,1.92,1.04,2.65,1.81l-1.58,1.98c-.63-.55-1.29-.98-2-1.29-.71-.3-1.5-.46-2.37-.46-1,0-1.8.22-2.41.67-.61.45-.91,1.05-.91,1.82,0,.57.16,1.04.47,1.41.31.37.71.67,1.19.9.48.23,1,.46,1.55.7l2.68,1.15c.79.32,1.48.71,2.09,1.18.61.46,1.08,1.03,1.42,1.7.34.67.51,1.48.51,2.42,0,1.05-.28,2.02-.83,2.89-.55.88-1.35,1.57-2.38,2.09s-2.27.78-3.7.78Z"/>
      <path class="cls-1" d="M236,342.52v-19.71h3.11v8.04h8.44v-8.04h3.13v19.71h-3.13v-8.97h-8.44v8.97h-3.11Z"/>
      <path class="cls-1" d="M254.61,342.52l6.51-19.71h3.59l6.54,19.71h-3.29l-3.16-10.69c-.34-1.09-.66-2.18-.96-3.28-.3-1.1-.61-2.2-.91-3.31h-.11c-.29,1.11-.58,2.21-.9,3.31-.31,1.1-.63,2.19-.95,3.28l-3.21,10.69h-3.13ZM258.25,336.92v-2.44h9.24v2.44h-9.24Z"/>
      <path class="cls-1" d="M275.18,342.52v-19.71h6.45c1.36,0,2.57.17,3.64.52,1.07.35,1.92.94,2.54,1.78.62.84.94,1.97.94,3.4s-.31,2.51-.94,3.42-1.47,1.57-2.54,2-2.29.64-3.64.64h-3.35v7.96h-3.11ZM278.29,332.07h2.97c1.43,0,2.52-.3,3.28-.9.76-.6,1.14-1.49,1.14-2.67s-.38-2.03-1.14-2.5c-.76-.47-1.85-.71-3.28-.71h-2.97v6.78ZM285.95,342.52l-4.93-8.76,2.33-1.82,6.11,10.58h-3.51Z"/>
      <path class="cls-1" d="M294.06,342.52v-19.71h3.11v19.71h-3.11Z"/>
      <path class="cls-1" d="M303.68,342.52v-19.71h3.16l6.56,11.57,2.09,4.15h.13c-.11-1-.21-2.07-.31-3.21-.1-1.14-.15-2.25-.15-3.32v-9.19h2.97v19.71h-3.19l-6.54-11.62-2.06-4.12h-.11c.05,1.02.13,2.08.23,3.19.1,1.11.15,2.2.15,3.27v9.29h-2.95Z"/>
      <path class="cls-1" d="M332.74,342.87c-1.77,0-3.34-.4-4.71-1.19-1.38-.79-2.46-1.95-3.25-3.47-.79-1.52-1.19-3.36-1.19-5.52,0-1.61.24-3.04.71-4.31s1.12-2.34,1.96-3.21c.83-.88,1.8-1.54,2.92-2.01s2.33-.7,3.66-.7c1.39,0,2.57.25,3.52.76.96.51,1.73,1.08,2.32,1.7l-1.66,2.01c-.5-.5-1.07-.92-1.71-1.26-.64-.34-1.43-.51-2.36-.51-1.23,0-2.31.3-3.23.9-.92.6-1.63,1.46-2.14,2.57-.51,1.12-.76,2.44-.76,3.98s.24,2.9.72,4.03,1.19,2,2.12,2.61c.93.61,2.07.91,3.43.91.59,0,1.16-.08,1.71-.25.55-.17,1-.41,1.34-.71v-4.61h-3.88v-2.6h6.72v8.57c-.66.66-1.53,1.21-2.61,1.65-1.08.44-2.28.66-3.6.66Z"/>
    </g>
  </g>
</svg>