<?xml version="1.0" encoding="UTF-8"?>
<svg id="Layer_2" data-name="Layer 2" xmlns="http://www.w3.org/2000/svg" viewBox="0 0 887.6 125.15">
  <defs>
    <style>
      .cls-1 {
        fill: #00a7e1;
      }

      .cls-2 {
        fill: #fff;
        stroke: #00a7e1;
        stroke-miterlimit: 10;
        stroke-width: 4px;
      }
    </style>
  </defs>
  <g id="_圖層_2" data-name="圖層 2">
    <rect class="cls-2" x="2" y="2" width="883.6" height="96.08" rx="47.32" ry="47.32"/>
    <g>
      <path class="cls-1" d="M46.31,28.38l6.97,2.24c-1.28,2.84-2.77,5.68-4.47,8.5-1.7,2.83-3.5,5.48-5.41,7.96-1.91,2.48-3.81,4.62-5.72,6.42-.42-.45-.96-1.01-1.64-1.69s-1.37-1.35-2.08-2.03c-.71-.68-1.33-1.2-1.85-1.59,1.84-1.56,3.65-3.41,5.43-5.54,1.79-2.13,3.42-4.42,4.91-6.86,1.49-2.44,2.77-4.91,3.85-7.41ZM38.92,74.19c-.14-.45-.35-1.08-.62-1.9-.28-.81-.58-1.66-.91-2.55-.33-.88-.65-1.64-.96-2.26.87-.24,1.68-.7,2.44-1.38.76-.68,1.66-1.6,2.7-2.78.55-.55,1.34-1.48,2.37-2.78,1.02-1.3,2.16-2.87,3.41-4.71,1.25-1.84,2.5-3.8,3.74-5.9,1.25-2.1,2.37-4.24,3.38-6.42l7.28,3.07c-1.66,2.98-3.5,5.92-5.51,8.81-2.01,2.9-4.09,5.62-6.24,8.19-2.15,2.57-4.26,4.87-6.34,6.92v.16c-.94.49-1.73.92-2.37,1.3-.64.38-1.2.76-1.66,1.14-.47.38-.7.75-.7,1.09ZM38.92,74.19l-.21-5.3,4.16-2.29,29.85-1.98c.14.97.36,2.04.68,3.2.31,1.16.55,2.09.73,2.78-4.75.38-8.87.72-12.35,1.01-3.48.29-6.45.54-8.89.73-2.44.19-4.47.36-6.08.52-1.61.16-2.91.3-3.9.44-.99.14-1.79.28-2.39.42-.61.14-1.14.29-1.59.47ZM55.72,28.48h10.87v6.4h-10.87v-6.4ZM61.54,28.48h7.33c.8,2.43,1.84,4.81,3.12,7.15,1.28,2.34,2.8,4.5,4.55,6.47,1.75,1.98,3.68,3.62,5.8,4.94-.45.45-.99,1.06-1.61,1.82-.62.76-1.21,1.54-1.77,2.34-.56.8-1.01,1.53-1.35,2.18-2.25-1.77-4.33-3.83-6.21-6.19-1.89-2.36-3.54-4.84-4.97-7.46-1.42-2.62-2.58-5.23-3.48-7.83h-1.4v-3.43ZM61.8,57.34l6.14-2.76c1.42,1.94,2.86,4,4.32,6.16s2.83,4.28,4.11,6.34c1.28,2.06,2.34,3.91,3.17,5.54l-6.45,3.43c-.76-1.63-1.77-3.53-3.02-5.69-1.25-2.17-2.6-4.39-4.06-6.68-1.46-2.29-2.86-4.4-4.21-6.34Z"/>
      <path class="cls-1" d="M97.48,30.35h38.69v5.93h-38.69v-5.93ZM98,39.97h30.78v5.46h-30.78v-5.46ZM100.65,49.28h6.14v21.48h-6.14v-21.48ZM106.06,49.28h19.97v17.68h-19.97v-5.41h13.83v-6.92h-13.83v-5.36ZM133.98,30.35h6.45v37.8c0,1.77-.2,3.16-.6,4.19-.4,1.02-1.15,1.81-2.26,2.37-1.08.55-2.46.9-4.16,1.04-1.7.14-3.73.19-6.08.16-.07-.62-.21-1.34-.42-2.16-.21-.81-.46-1.64-.75-2.47-.29-.83-.58-1.54-.86-2.13,1,.07,2.01.11,3.02.13,1.01.02,1.9.02,2.68,0,.78-.02,1.36-.03,1.74-.03.49,0,.81-.09.99-.26s.26-.5.26-.99V30.35Z"/>
      <path class="cls-1" d="M161.38,44.13h5.62v12.06c0,2.05-.11,4.27-.34,6.68-.23,2.41-.65,4.77-1.27,7.07-.62,2.31-1.58,4.34-2.86,6.11-.31-.35-.75-.75-1.33-1.22-.57-.47-1.17-.92-1.79-1.35-.62-.43-1.14-.75-1.56-.96,1.11-1.52,1.91-3.24,2.39-5.15.48-1.91.8-3.84.94-5.8.14-1.96.21-3.77.21-5.43v-12.01ZM158.11,34.93h47.32v5.62h-47.32v-5.62ZM164.3,52.61h13.52v4.63h-13.52v-4.63ZM164.3,60.62h13.52v4.58h-13.52v-4.58ZM165.08,44.13h13.47v4.94h-13.47v-4.94ZM165.28,29.21l5.93-2.08c.94,1.01,1.87,2.14,2.81,3.41.94,1.27,1.63,2.4,2.08,3.41l-6.34,2.24c-.35-.97-.94-2.11-1.79-3.41-.85-1.3-1.74-2.49-2.68-3.56ZM175.63,44.13h5.98v25.79c0,1.28-.16,2.32-.47,3.12-.31.8-.9,1.4-1.77,1.82-.9.49-1.95.78-3.15.88-1.2.1-2.59.16-4.19.16-.17-.76-.45-1.66-.83-2.7-.38-1.04-.76-1.91-1.14-2.6.94.03,1.86.06,2.78.08.92.02,1.55,0,1.9-.03.35,0,.58-.07.7-.21.12-.14.18-.35.18-.62v-25.69ZM186.08,44.71h5.72v21.32h-5.72v-21.32ZM192.01,27.03l6.76,2.03c-1.04,1.66-2.11,3.29-3.2,4.86-1.09,1.58-2.11,2.94-3.04,4.08l-5.62-1.87c.62-.87,1.25-1.82,1.87-2.86.62-1.04,1.22-2.11,1.79-3.2.57-1.09,1.05-2.11,1.43-3.04ZM196.48,43.25h6.14v25.95c0,1.53-.18,2.71-.55,3.56-.36.85-1.05,1.53-2.05,2.05-1.01.45-2.22.75-3.64.88-1.42.14-3.09.19-4.99.16-.14-.83-.43-1.82-.86-2.96-.43-1.14-.89-2.11-1.38-2.91,1.32.07,2.58.1,3.8.1s2.03-.02,2.44-.05c.42,0,.7-.06.86-.18.16-.12.23-.35.23-.7v-25.9Z"/>
      <path class="cls-1" d="M232.16,65.4l5.72,2.29c-1.18.97-2.54,1.93-4.08,2.89-1.54.95-3.14,1.85-4.78,2.68-1.65.83-3.23,1.54-4.76,2.13-.35-.38-.79-.86-1.33-1.43-.54-.57-1.09-1.13-1.66-1.66-.57-.54-1.1-.96-1.59-1.27,1.53-.42,3.07-.92,4.63-1.51,1.56-.59,3.02-1.24,4.39-1.95,1.37-.71,2.52-1.43,3.46-2.16ZM220.92,46.63h46.12v4.94h-46.12v-4.94ZM226.33,28.79h35.52v15.76h-35.52v-15.76ZM227.58,53.44h33.49v11.44h-33.49v-11.44ZM232.31,32.64v2.18h23.24v-2.18h-23.24ZM232.31,38.41v2.24h23.24v-2.24h-23.24ZM233.56,57.71v2.91h21.22v-2.91h-21.22ZM241.15,62.65h6.24v8.06c0,1.32-.18,2.32-.55,3.02-.36.69-1.07,1.21-2.11,1.56-1.04.35-2.24.55-3.61.6-1.37.05-2.97.08-4.81.08-.14-.73-.38-1.54-.73-2.44-.35-.9-.69-1.68-1.04-2.34.73.04,1.48.06,2.26.08.78.02,1.48.02,2.11,0,.62-.02,1.04-.03,1.25-.03.38-.03.64-.1.78-.21.14-.1.21-.29.21-.57v-7.8ZM239.9,45.28l5.46-1.72c.59.69,1.15,1.48,1.69,2.37.54.88.93,1.67,1.17,2.37l-5.77,2.03c-.17-.69-.5-1.52-.99-2.5-.49-.97-1.01-1.82-1.56-2.55ZM249.58,68.94l4.11-3.43c1.46.52,3.03,1.13,4.73,1.82,1.7.69,3.34,1.41,4.91,2.16,1.58.75,2.9,1.45,3.98,2.11l-4.37,3.85c-.97-.66-2.21-1.38-3.72-2.16-1.51-.78-3.11-1.55-4.81-2.31-1.7-.76-3.31-1.44-4.84-2.03Z"/>
      <path class="cls-1" d="M291.02,86.2V26.97h5.1v59.23h-5.1Z"/>
      <path class="cls-1" d="M335,72.03c-2.15,0-4.16-.38-6.03-1.13-1.87-.75-3.52-1.88-4.94-3.38-1.43-1.5-2.55-3.34-3.36-5.52-.81-2.18-1.22-4.68-1.22-7.5s.41-5.33,1.24-7.52c.83-2.19,1.97-4.06,3.43-5.59,1.46-1.53,3.14-2.7,5.06-3.5,1.92-.8,3.95-1.2,6.1-1.2s4.11.44,5.8,1.31c1.69.87,3.08,1.89,4.19,3.06l-3.54,4.32c-.89-.83-1.84-1.51-2.85-2.05-1.01-.54-2.16-.8-3.45-.8-1.72,0-3.26.47-4.62,1.4-1.37.94-2.44,2.28-3.22,4.02-.78,1.75-1.17,3.85-1.17,6.3s.37,4.61,1.1,6.37c.74,1.76,1.77,3.12,3.1,4.07,1.33.95,2.89,1.43,4.67,1.43,1.47,0,2.78-.31,3.93-.94,1.15-.63,2.17-1.43,3.06-2.42l3.63,4.23c-1.41,1.66-3.02,2.91-4.83,3.75-1.81.84-3.83,1.27-6.07,1.27Z"/>
      <path class="cls-1" d="M365.41,72.03c-3.01,0-5.65-.71-7.94-2.14-2.28-1.43-4.07-3.47-5.36-6.14-1.29-2.67-1.93-5.84-1.93-9.52s.64-6.87,1.93-9.48c1.29-2.61,3.07-4.6,5.36-5.98,2.28-1.38,4.93-2.07,7.94-2.07s5.65.7,7.94,2.09c2.28,1.4,4.07,3.39,5.36,5.98,1.29,2.59,1.93,5.74,1.93,9.45s-.64,6.85-1.93,9.52c-1.29,2.67-3.07,4.72-5.36,6.14-2.29,1.43-4.93,2.14-7.94,2.14ZM365.41,66.14c1.69,0,3.15-.49,4.39-1.47s2.2-2.37,2.88-4.16c.67-1.79,1.01-3.89,1.01-6.28s-.34-4.55-1.01-6.3c-.67-1.75-1.63-3.08-2.88-4s-2.71-1.38-4.39-1.38-3.15.46-4.39,1.38c-1.24.92-2.2,2.25-2.88,4-.67,1.75-1.01,3.85-1.01,6.3s.34,4.49,1.01,6.28c.67,1.79,1.63,3.18,2.88,4.16,1.24.98,2.71,1.47,4.39,1.47Z"/>
      <path class="cls-1" d="M389.6,71.38v-34.09h7.54l5.8,16.01c.37,1.01.72,2.08,1.06,3.2.34,1.12.67,2.22,1.01,3.29h.23c.37-1.07.72-2.17,1.06-3.29.34-1.12.66-2.19.97-3.2l5.7-16.01h7.54v34.09h-6.21v-14.21c0-1.1.05-2.32.14-3.63.09-1.32.21-2.65.35-3.98.14-1.33.27-2.52.39-3.56h-.18l-2.81,8-5.24,14.31h-3.91l-5.29-14.31-2.71-8h-.18c.12,1.04.25,2.23.37,3.56s.24,2.66.35,3.98c.11,1.32.16,2.53.16,3.63v14.21h-6.12Z"/>
      <path class="cls-1" d="M431.19,71.38v-34.09h11.18c2.51,0,4.78.34,6.79,1.01,2.01.68,3.6,1.79,4.78,3.36,1.18,1.56,1.77,3.68,1.77,6.35s-.59,4.7-1.77,6.37c-1.18,1.67-2.76,2.91-4.74,3.7-1.98.8-4.19,1.2-6.65,1.2h-4.55v12.1h-6.81ZM437.99,53.9h4.09c2.33,0,4.07-.49,5.22-1.47,1.15-.98,1.73-2.45,1.73-4.42s-.61-3.33-1.82-4.12c-1.21-.78-2.98-1.17-5.31-1.17h-3.91v11.18Z"/>
      <path class="cls-1" d="M457.22,71.38l10.9-34.09h8l10.95,34.09h-7.18l-4.83-17.76c-.52-1.78-1.03-3.62-1.52-5.52-.49-1.9-.98-3.77-1.47-5.61h-.18c-.43,1.84-.9,3.71-1.4,5.61-.51,1.9-.99,3.74-1.45,5.52l-4.92,17.76h-6.9ZM463.98,62.64v-5.29h16.19v5.29h-16.19Z"/>
      <path class="cls-1" d="M493.38,71.38v-34.09h6.95l9.89,18.17,3.45,7.36h.23c-.21-1.75-.42-3.69-.62-5.82-.2-2.13-.3-4.16-.3-6.1v-13.62h6.44v34.09h-6.9l-9.84-18.22-3.5-7.31h-.18c.15,1.84.33,3.79.53,5.84.2,2.05.3,4.06.3,6.03v13.66h-6.44Z"/>
      <path class="cls-1" d="M535.88,71.38v-12.47l-10.21-21.62h7.22l3.4,8.33c.49,1.29.97,2.54,1.43,3.75.46,1.21.97,2.48,1.52,3.8h.18c.52-1.32,1.04-2.58,1.54-3.8.51-1.21,1-2.46,1.5-3.75l3.4-8.33h7.08l-10.3,21.62v12.47h-6.76Z"/>
      <path class="cls-1" d="M571.85,71.38v-34.09h11.18c2.51,0,4.78.34,6.79,1.01,2.01.68,3.6,1.79,4.78,3.36,1.18,1.56,1.77,3.68,1.77,6.35s-.59,4.7-1.77,6.37c-1.18,1.67-2.76,2.91-4.74,3.7-1.98.8-4.19,1.2-6.65,1.2h-4.55v12.1h-6.81ZM578.66,53.9h4.09c2.33,0,4.07-.49,5.22-1.47,1.15-.98,1.73-2.45,1.73-4.42s-.61-3.33-1.82-4.12c-1.21-.78-2.98-1.17-5.31-1.17h-3.91v11.18Z"/>
      <path class="cls-1" d="M604.88,71.38v-34.09h11.87c2.39,0,4.55.31,6.49.94,1.93.63,3.46,1.7,4.6,3.22,1.13,1.52,1.7,3.58,1.7,6.19s-.57,4.54-1.7,6.16c-1.14,1.63-2.67,2.81-4.6,3.56s-4.09,1.13-6.49,1.13h-5.06v12.88h-6.81ZM611.69,53.12h4.42c2.18,0,3.85-.46,5.01-1.38,1.17-.92,1.75-2.28,1.75-4.09s-.58-3.12-1.75-3.84c-1.17-.72-2.84-1.08-5.01-1.08h-4.42v10.4ZM623.37,71.38l-7.91-14.63,4.78-4.23,10.76,18.86h-7.64Z"/>
      <path class="cls-1" d="M652.08,72.03c-3.01,0-5.65-.71-7.94-2.14-2.28-1.43-4.07-3.47-5.36-6.14-1.29-2.67-1.93-5.84-1.93-9.52s.64-6.87,1.93-9.48c1.29-2.61,3.07-4.6,5.36-5.98,2.28-1.38,4.93-2.07,7.94-2.07s5.65.7,7.94,2.09c2.28,1.4,4.07,3.39,5.36,5.98,1.29,2.59,1.93,5.74,1.93,9.45s-.64,6.85-1.93,9.52c-1.29,2.67-3.07,4.72-5.36,6.14-2.29,1.43-4.93,2.14-7.94,2.14ZM652.08,66.14c1.69,0,3.15-.49,4.39-1.47s2.2-2.37,2.88-4.16c.67-1.79,1.01-3.89,1.01-6.28s-.34-4.55-1.01-6.3c-.67-1.75-1.63-3.08-2.88-4s-2.71-1.38-4.39-1.38-3.15.46-4.39,1.38c-1.24.92-2.2,2.25-2.88,4-.67,1.75-1.01,3.85-1.01,6.3s.34,4.49,1.01,6.28c.67,1.79,1.63,3.18,2.88,4.16,1.24.98,2.71,1.47,4.39,1.47Z"/>
      <path class="cls-1" d="M686.44,72.03c-2.27,0-4.49-.43-6.67-1.29-2.18-.86-4.09-2.08-5.75-3.68l3.91-4.65c1.2,1.1,2.57,2,4.12,2.69,1.55.69,3.06,1.03,4.53,1.03,1.81,0,3.17-.35,4.07-1.06.9-.71,1.36-1.66,1.36-2.85,0-.86-.22-1.54-.67-2.05-.44-.51-1.05-.96-1.82-1.36-.77-.4-1.66-.8-2.67-1.2l-4.51-1.98c-1.17-.46-2.28-1.08-3.33-1.86-1.06-.78-1.92-1.77-2.6-2.97-.68-1.2-1.01-2.62-1.01-4.28,0-1.87.51-3.54,1.52-5.01,1.01-1.47,2.41-2.65,4.19-3.52,1.78-.87,3.8-1.31,6.07-1.31,2.02,0,3.97.38,5.84,1.15,1.87.77,3.5,1.84,4.88,3.22l-3.45,4.28c-1.1-.89-2.23-1.58-3.38-2.07-1.15-.49-2.45-.74-3.89-.74s-2.65.31-3.52.94c-.87.63-1.31,1.51-1.31,2.65,0,.8.25,1.46.74,1.98.49.52,1.13.97,1.93,1.36.8.38,1.67.77,2.62,1.17l4.46,1.84c1.38.55,2.58,1.23,3.61,2.05,1.03.81,1.82,1.8,2.39,2.97.57,1.17.85,2.58.85,4.23,0,1.84-.5,3.54-1.49,5.11-1,1.56-2.42,2.82-4.28,3.77s-4.1,1.43-6.74,1.43Z"/>
      <path class="cls-1" d="M707.23,71.38v-34.09h11.18c2.51,0,4.78.34,6.79,1.01,2.01.68,3.6,1.79,4.78,3.36,1.18,1.56,1.77,3.68,1.77,6.35s-.59,4.7-1.77,6.37c-1.18,1.67-2.76,2.91-4.74,3.7-1.98.8-4.19,1.2-6.65,1.2h-4.55v12.1h-6.81ZM714.04,53.9h4.09c2.33,0,4.07-.49,5.22-1.47,1.15-.98,1.73-2.45,1.73-4.42s-.61-3.33-1.82-4.12c-1.21-.78-2.98-1.17-5.31-1.17h-3.91v11.18Z"/>
      <path class="cls-1" d="M740.26,71.38v-34.09h20.88v5.7h-14.08v7.87h11.91v5.7h-11.91v9.11h14.58v5.7h-21.39Z"/>
      <path class="cls-1" d="M784.69,72.03c-2.15,0-4.16-.38-6.03-1.13-1.87-.75-3.52-1.88-4.94-3.38-1.43-1.5-2.55-3.34-3.36-5.52-.81-2.18-1.22-4.68-1.22-7.5s.41-5.33,1.24-7.52c.83-2.19,1.97-4.06,3.43-5.59,1.46-1.53,3.14-2.7,5.06-3.5,1.92-.8,3.95-1.2,6.1-1.2s4.11.44,5.8,1.31c1.69.87,3.08,1.89,4.19,3.06l-3.54,4.32c-.89-.83-1.84-1.51-2.85-2.05-1.01-.54-2.16-.8-3.45-.8-1.72,0-3.26.47-4.62,1.4-1.37.94-2.44,2.28-3.22,4.02-.78,1.75-1.17,3.85-1.17,6.3s.37,4.61,1.1,6.37c.74,1.76,1.77,3.12,3.1,4.07,1.33.95,2.89,1.43,4.67,1.43,1.47,0,2.78-.31,3.93-.94,1.15-.63,2.17-1.43,3.06-2.42l3.63,4.23c-1.41,1.66-3.02,2.91-4.83,3.75-1.81.84-3.83,1.27-6.07,1.27Z"/>
      <path class="cls-1" d="M809.4,71.38v-28.38h-9.57v-5.7h25.99v5.7h-9.61v28.38h-6.81Z"/>
      <path class="cls-1" d="M842.33,72.03c-2.27,0-4.49-.43-6.67-1.29-2.18-.86-4.09-2.08-5.75-3.68l3.91-4.65c1.2,1.1,2.57,2,4.12,2.69,1.55.69,3.06,1.03,4.53,1.03,1.81,0,3.17-.35,4.07-1.06.9-.71,1.36-1.66,1.36-2.85,0-.86-.22-1.54-.67-2.05-.44-.51-1.05-.96-1.82-1.36-.77-.4-1.66-.8-2.67-1.2l-4.51-1.98c-1.17-.46-2.28-1.08-3.33-1.86-1.06-.78-1.92-1.77-2.6-2.97-.68-1.2-1.01-2.62-1.01-4.28,0-1.87.51-3.54,1.52-5.01,1.01-1.47,2.41-2.65,4.19-3.52,1.78-.87,3.8-1.31,6.07-1.31,2.02,0,3.97.38,5.84,1.15,1.87.77,3.5,1.84,4.88,3.22l-3.45,4.28c-1.1-.89-2.23-1.58-3.38-2.07-1.15-.49-2.45-.74-3.89-.74s-2.65.31-3.52.94c-.87.63-1.31,1.51-1.31,2.65,0,.8.25,1.46.74,1.98.49.52,1.13.97,1.93,1.36.8.38,1.67.77,2.62,1.17l4.46,1.84c1.38.55,2.58,1.23,3.61,2.05,1.03.81,1.82,1.8,2.39,2.97.57,1.17.85,2.58.85,4.23,0,1.84-.5,3.54-1.49,5.11-1,1.56-2.42,2.82-4.28,3.77s-4.1,1.43-6.74,1.43Z"/>
    </g>
  </g>
</svg>