<?xml version="1.0" encoding="UTF-8"?>
<svg id="Layer_2" data-name="Layer 2" xmlns="http://www.w3.org/2000/svg" viewBox="0 0 887.6 125.88">
  <defs>
    <style>
      .cls-1 {
        fill: #00a7e1;
      }

      .cls-2 {
        fill: #fff;
        stroke: #00a7e1;
        stroke-miterlimit: 10;
        stroke-width: 4px;
      }
    </style>
  </defs>
  <g id="_圖層_2" data-name="圖層 2">
    <rect class="cls-2" x="2" y="2" width="883.6" height="96.08" rx="47.32" ry="47.32"/>
    <g>
      <path class="cls-1" d="M33.69,47.83c-.1-.35-.26-.84-.47-1.48-.21-.64-.43-1.3-.68-1.98-.24-.68-.47-1.24-.68-1.69.52-.14,1.01-.45,1.48-.94.47-.48.96-1.13,1.48-1.92.35-.48.9-1.39,1.66-2.7.76-1.32,1.56-2.87,2.39-4.65.83-1.79,1.54-3.6,2.13-5.43l5.41,2.24c-1.21,2.81-2.66,5.61-4.34,8.4-1.68,2.79-3.37,5.23-5.07,7.31v.05c-.66.42-1.21.77-1.66,1.07-.45.29-.84.6-1.17.91-.33.31-.49.59-.49.83ZM34.21,61.55l5.1.78c-.21,2.43-.52,4.84-.94,7.25s-.9,4.45-1.46,6.11c-.38-.21-.88-.42-1.48-.65-.61-.23-1.21-.44-1.82-.65-.61-.21-1.14-.36-1.59-.47.62-1.56,1.1-3.47,1.43-5.72.33-2.25.58-4.47.75-6.66ZM34.11,59.94c-.1-.38-.26-.91-.47-1.59-.21-.68-.45-1.37-.73-2.08-.28-.71-.52-1.33-.73-1.85.66-.14,1.3-.49,1.92-1.07.62-.57,1.33-1.34,2.13-2.31.42-.48,1.03-1.27,1.85-2.37.81-1.09,1.71-2.39,2.68-3.9.97-1.51,1.95-3.13,2.94-4.86.99-1.73,1.88-3.48,2.68-5.25l5.15,3.12c-1.25,2.29-2.63,4.58-4.16,6.89-1.53,2.31-3.12,4.5-4.78,6.58s-3.35,3.97-5.04,5.67v.21c-.69.35-1.27.68-1.74.99-.47.31-.87.62-1.2.94-.33.31-.49.61-.49.88ZM33.69,47.83l-.16-4.21,2.55-1.66,9.05-.62c-.17.73-.31,1.57-.42,2.52-.1.95-.16,1.74-.16,2.37-2.04.21-3.71.38-4.99.52-1.28.14-2.31.28-3.09.42-.78.14-1.38.26-1.79.36s-.75.21-.99.31ZM34.11,59.94l-.26-4.37,2.55-1.72,12.48-1.51c-.1.73-.19,1.57-.26,2.52-.07.95-.09,1.74-.05,2.37-2.81.38-5.1.71-6.86.99-1.77.28-3.15.52-4.13.73-.99.21-1.73.38-2.24.52-.5.14-.91.29-1.22.47ZM40.14,62.33l4.52-.83c.31,1.7.6,3.54.86,5.54.26,1.99.42,3.74.49,5.23l-4.73.94c-.07-1.49-.21-3.24-.42-5.25-.21-2.01-.45-3.88-.73-5.62ZM45.08,48.61l4.42-1.4c.45,1.14.89,2.38,1.33,3.72.43,1.33.82,2.62,1.17,3.85s.59,2.3.73,3.2l-4.78,1.66c-.1-.94-.31-2.04-.62-3.3-.31-1.26-.67-2.57-1.07-3.93-.4-1.35-.79-2.62-1.17-3.8ZM45.55,61.19l4.26-1.35c.45,1.25.9,2.62,1.35,4.11.45,1.49.8,2.77,1.04,3.85l-4.42,1.56c-.17-1.11-.48-2.43-.91-3.95-.43-1.52-.88-2.93-1.33-4.21ZM51.06,69.09h29.9v5.72h-29.9v-5.72ZM56.88,35.76l5.3,1.25c-.76,1.35-1.59,2.73-2.47,4.13-.88,1.4-1.74,2.75-2.57,4.03,1.11,1.39,2.16,2.83,3.15,4.34.99,1.51,1.72,2.82,2.21,3.93l-4.94,2.03c-.55-1.39-1.39-2.98-2.5-4.78-1.11-1.8-2.32-3.61-3.64-5.41.69-1.07,1.39-2.18,2.08-3.33.69-1.14,1.33-2.25,1.92-3.33.59-1.07,1.07-2.03,1.46-2.86ZM52.2,29.42h28.24v5.56h-28.24v-5.56ZM53.45,56.35h25.43v5.56h-25.43v-5.56ZM65.62,35.87l5.3,1.25c-.8,1.32-1.64,2.67-2.52,4.06-.88,1.39-1.74,2.69-2.57,3.9.76.9,1.49,1.85,2.18,2.83.69.99,1.33,1.93,1.92,2.83.59.9,1.06,1.7,1.4,2.39l-4.94,2.08c-.59-1.35-1.44-2.93-2.55-4.73-1.11-1.8-2.36-3.57-3.74-5.3.73-1.04,1.43-2.12,2.11-3.25.68-1.13,1.32-2.21,1.92-3.25s1.1-1.98,1.48-2.81ZM62.92,58.95h6.24v13.62h-6.24v-13.62ZM74.46,35.76l5.36,1.3c-.83,1.35-1.7,2.72-2.6,4.11-.9,1.39-1.77,2.72-2.6,4,.8.9,1.57,1.84,2.31,2.81.74.97,1.43,1.91,2.05,2.81.62.9,1.13,1.73,1.51,2.5l-4.89,2.18c-.62-1.39-1.55-2.99-2.78-4.81-1.23-1.82-2.59-3.61-4.08-5.38.73-1.07,1.45-2.18,2.16-3.33s1.38-2.25,2-3.33c.62-1.07,1.14-2.03,1.56-2.86Z"/>
      <path class="cls-1" d="M96.4,60.1l3.17,1.04c-.14,1.14-.3,2.42-.49,3.82-.19,1.4-.41,2.77-.65,4.11-.24,1.33-.5,2.49-.78,3.46l-3.38-1.2c.35-1.01.66-2.16.94-3.46.28-1.3.51-2.63.7-4,.19-1.37.35-2.63.49-3.77ZM115.07,29.21v5.1h-13.26v18.88h11.28v5.1h-16.12v-29.07h18.1ZM99.99,37.69h14.25v4.58h-14.25v-4.58ZM99.99,45.38h14.4v4.58h-14.4v-4.58ZM100.1,61.19l2.5-.26c.17,1.53.3,3.17.39,4.94.09,1.77.11,3.31.08,4.63l-2.7.26c.03-1.28.03-2.83-.03-4.63-.05-1.8-.13-3.45-.23-4.94ZM103.22,60.77l2.5-.36c.31,1.32.61,2.77.88,4.34.28,1.58.47,2.94.57,4.08l-2.6.47c-.07-1.14-.23-2.51-.49-4.11-.26-1.59-.54-3.07-.86-4.42ZM104.98,33.21h4.73v23.5h-4.73v-23.5ZM110.65,53.18h4.84c0,1.01-.02,1.66-.05,1.98-.07,4.19-.17,7.58-.31,10.14-.14,2.57-.32,4.52-.55,5.85-.23,1.33-.53,2.26-.91,2.78-.42.59-.85,1.01-1.3,1.25-.45.24-.99.4-1.61.47-.52.1-1.15.17-1.9.21-.75.03-1.54.03-2.37,0-.03-.69-.17-1.48-.42-2.37-.24-.88-.52-1.62-.83-2.21.66.07,1.25.11,1.77.13.52.02.92.03,1.2.03s.52-.04.73-.13c.21-.09.4-.25.57-.49.21-.31.38-1.04.52-2.18.14-1.14.26-2.88.36-5.2.1-2.32.19-5.44.26-9.36v-.88ZM106.28,60.2l2.18-.73c.45,1.08.89,2.23,1.33,3.46.43,1.23.74,2.3.91,3.2l-2.29.88c-.21-.94-.52-2.04-.94-3.3-.42-1.27-.81-2.44-1.2-3.51ZM127.55,26.51l5.56,1.92c-1.77,2.98-4.01,5.72-6.73,8.22-2.72,2.5-5.62,4.63-8.71,6.4-.28-.38-.65-.83-1.12-1.35-.47-.52-.94-1.01-1.4-1.48-.47-.47-.91-.86-1.33-1.17,1.94-1,3.78-2.18,5.51-3.54s3.3-2.8,4.71-4.34c1.4-1.54,2.57-3.09,3.51-4.65ZM120.32,59.89l5.2.94c-.66,3.05-1.62,5.91-2.89,8.58s-2.76,4.91-4.5,6.71c-.28-.35-.66-.74-1.14-1.17-.49-.43-.99-.86-1.51-1.27-.52-.42-.99-.76-1.4-1.04,1.59-1.49,2.91-3.35,3.95-5.59,1.04-2.24,1.8-4.62,2.29-7.15ZM116.84,46.16h11.23v12.74h-11.23v-12.74ZM120.17,67.74l3.02-3.69c1.04.62,2.17,1.36,3.38,2.21,1.21.85,2.17,1.64,2.86,2.37l-3.12,4.06c-.62-.73-1.53-1.56-2.73-2.5-1.2-.94-2.33-1.75-3.41-2.44ZM120.9,50.06v4.89h2.91v-4.89h-2.91ZM121.26,38.67h15.34v4.73h-15.34v-4.73ZM130.15,28.17c1.01,1.11,2.26,2.23,3.77,3.35,1.51,1.13,3.12,2.18,4.84,3.15,1.72.97,3.39,1.79,5.02,2.44-.28.45-.58,1.03-.91,1.74-.33.71-.62,1.41-.86,2.11-.24.69-.42,1.3-.52,1.82-1.84-.94-3.72-2.07-5.64-3.41-1.92-1.33-3.74-2.74-5.46-4.21-1.72-1.47-3.18-2.92-4.39-4.34l4.16-2.65ZM133.12,59.68l5.46.94c-.49,3.12-1.29,6.03-2.42,8.74-1.13,2.7-2.49,4.96-4.08,6.76-.35-.31-.79-.69-1.33-1.12-.54-.43-1.1-.86-1.69-1.27s-1.09-.76-1.51-1.04c1.49-1.52,2.69-3.42,3.59-5.69.9-2.27,1.56-4.71,1.98-7.31ZM129.74,46.16h11.6v12.74h-11.6v-12.74ZM132.08,69.46l3.43-3.8c.9.52,1.84,1.12,2.81,1.79.97.68,1.9,1.34,2.78,2,.88.66,1.59,1.27,2.11,1.82l-3.59,4.26c-.52-.59-1.21-1.24-2.08-1.95-.87-.71-1.78-1.43-2.73-2.16-.95-.73-1.86-1.39-2.73-1.98ZM133.79,50.06v4.89h3.22v-4.89h-3.22Z"/>
      <path class="cls-1" d="M169.36,29l6.55,1.56c-1.01,2.98-2.24,5.85-3.72,8.61-1.47,2.76-3.1,5.28-4.89,7.57s-3.68,4.28-5.69,5.98c-.35-.45-.84-.97-1.48-1.56-.64-.59-1.31-1.18-2-1.77-.69-.59-1.28-1.04-1.77-1.35,2.98-2.08,5.58-4.8,7.8-8.16,2.22-3.36,3.95-6.98,5.2-10.87ZM174.82,48.09h6.81c-.24,2.91-.64,5.75-1.2,8.53-.56,2.77-1.47,5.39-2.73,7.85-1.27,2.46-3.08,4.71-5.43,6.73-2.36,2.03-5.48,3.77-9.36,5.23-.28-.62-.64-1.29-1.09-2-.45-.71-.94-1.4-1.46-2.05-.52-.66-1.04-1.23-1.56-1.72,3.5-1.11,6.27-2.49,8.32-4.13,2.04-1.65,3.59-3.45,4.63-5.41,1.04-1.96,1.76-4.05,2.16-6.27.4-2.22.7-4.47.91-6.76ZM165.56,46.32h28.13v6.03h-28.13v-6.03ZM178.62,28.01h11.86v5.77h-11.86v-5.77ZM191.62,46.32h6.55v1.64c0,.43-.02.79-.05,1.07-.14,3.92-.29,7.29-.47,10.11-.17,2.83-.37,5.17-.6,7.05-.23,1.87-.49,3.36-.81,4.47-.31,1.11-.69,1.94-1.14,2.5-.66.83-1.37,1.42-2.13,1.77-.76.35-1.65.59-2.65.73-.87.14-2.01.22-3.43.23-1.42.02-2.91,0-4.47-.08-.03-.94-.24-2-.62-3.2-.38-1.2-.85-2.23-1.4-3.09,1.46.1,2.8.17,4.03.21,1.23.04,2.17.05,2.83.05.49,0,.89-.05,1.22-.16.33-.1.63-.29.91-.57.42-.45.75-1.45,1.01-2.99.26-1.54.49-3.83.7-6.86.21-3.03.38-6.94.52-11.73v-1.14ZM184.54,28.01h6.92c.8,2.53,1.91,4.99,3.33,7.38,1.42,2.39,3.12,4.57,5.1,6.53,1.98,1.96,4.19,3.56,6.66,4.81-.45.45-.96,1.02-1.53,1.72-.57.69-1.12,1.4-1.64,2.13-.52.73-.95,1.39-1.3,1.98-2.57-1.66-4.91-3.63-7.02-5.9-2.12-2.27-3.94-4.73-5.49-7.38-1.54-2.65-2.78-5.31-3.72-7.98h-1.3v-3.28Z"/>
      <path class="cls-1" d="M220.32,61.29h47.01v5.3h-47.01v-5.3ZM221.1,31.08h45.4v5.2h-45.4v-5.2ZM225.42,52.25h31.15v4.84h-31.15v-4.84ZM227.08,38.67h33.85v11.49h-33.85v-11.49ZM240.39,59.06h6.66v11.23c0,1.52-.26,2.66-.78,3.41-.52.75-1.4,1.31-2.65,1.69-1.21.35-2.68.55-4.39.6-1.71.05-3.72.08-6.01.08-.21-.8-.51-1.66-.91-2.6s-.81-1.77-1.22-2.5c1,.04,2.07.06,3.2.08,1.13.02,2.13.03,3.02.03h1.79c.48-.03.82-.12,1.01-.26.19-.14.29-.4.29-.78v-10.97ZM233.32,42.94v2.96h20.96v-2.96h-20.96ZM239.25,27.91l6.34-1.09c.55,1.01,1.03,2.11,1.43,3.33.4,1.21.67,2.27.81,3.17l-6.76,1.25c-.1-.87-.33-1.93-.68-3.2-.35-1.27-.73-2.42-1.14-3.46ZM255.27,52.19h1.66l1.4-.26,3.9,3.54c-1.73.9-3.63,1.79-5.69,2.68-2.06.88-4.21,1.68-6.45,2.39-2.24.71-4.5,1.34-6.79,1.9-.31-.49-.77-1.07-1.38-1.77-.61-.69-1.12-1.25-1.54-1.66,1.84-.42,3.71-.94,5.62-1.56,1.91-.62,3.67-1.3,5.3-2.03,1.63-.73,2.95-1.42,3.95-2.08v-1.14Z"/>
      <path class="cls-1" d="M290.68,86.2V26.97h5.1v59.23h-5.1Z"/>
      <path class="cls-1" d="M320.81,71.38v-34.09h20.88v5.7h-14.08v7.87h11.91v5.7h-11.91v9.11h14.58v5.7h-21.39Z"/>
      <path class="cls-1" d="M347.86,71.38l9.57-17.57-8.97-16.51h7.54l3.4,7.04c.4.8.8,1.63,1.2,2.48.4.86.84,1.82,1.33,2.9h.18c.43-1.07.83-2.04,1.2-2.9.37-.86.74-1.69,1.1-2.48l3.22-7.04h7.18l-8.97,16.84,9.57,17.25h-7.54l-3.82-7.54c-.43-.86-.86-1.75-1.29-2.67s-.89-1.9-1.38-2.94h-.18c-.43,1.04-.85,2.02-1.26,2.94s-.82,1.81-1.22,2.67l-3.63,7.54h-7.22Z"/>
      <path class="cls-1" d="M382.54,71.38v-34.09h11.18c2.51,0,4.78.34,6.79,1.01,2.01.68,3.6,1.79,4.78,3.36s1.77,3.68,1.77,6.35-.59,4.7-1.77,6.37c-1.18,1.67-2.76,2.91-4.74,3.7-1.98.8-4.19,1.2-6.65,1.2h-4.55v12.1h-6.81ZM389.35,53.9h4.09c2.33,0,4.07-.49,5.22-1.47,1.15-.98,1.72-2.45,1.72-4.42s-.61-3.33-1.82-4.12c-1.21-.78-2.98-1.17-5.31-1.17h-3.91v11.18Z"/>
      <path class="cls-1" d="M415.57,71.38v-34.09h20.88v5.7h-14.08v7.87h11.91v5.7h-11.91v9.11h14.58v5.7h-21.39Z"/>
      <path class="cls-1" d="M446.16,71.38v-34.09h11.87c2.39,0,4.55.31,6.49.94,1.93.63,3.46,1.7,4.6,3.22,1.13,1.52,1.7,3.58,1.7,6.19s-.57,4.54-1.7,6.16c-1.14,1.63-2.67,2.81-4.6,3.56-1.93.75-4.09,1.13-6.49,1.13h-5.06v12.88h-6.81ZM452.97,53.12h4.42c2.18,0,3.85-.46,5.01-1.38,1.16-.92,1.75-2.28,1.75-4.09s-.58-3.12-1.75-3.84c-1.17-.72-2.84-1.08-5.01-1.08h-4.42v10.4ZM464.65,71.38l-7.91-14.63,4.78-4.23,10.76,18.86h-7.64Z"/>
      <path class="cls-1" d="M479.83,71.38v-34.09h6.81v34.09h-6.81Z"/>
      <path class="cls-1" d="M497.27,71.38v-34.09h20.88v5.7h-14.08v7.87h11.91v5.7h-11.91v9.11h14.58v5.7h-21.39Z"/>
      <path class="cls-1" d="M527.86,71.38v-34.09h6.95l9.89,18.17,3.45,7.36h.23c-.21-1.75-.42-3.69-.62-5.82-.2-2.13-.3-4.16-.3-6.1v-13.62h6.44v34.09h-6.9l-9.84-18.22-3.5-7.31h-.18c.15,1.84.33,3.79.53,5.84.2,2.05.3,4.06.3,6.03v13.66h-6.44Z"/>
      <path class="cls-1" d="M578.45,72.03c-2.15,0-4.16-.38-6.03-1.13s-3.52-1.88-4.94-3.38c-1.43-1.5-2.55-3.34-3.36-5.52-.81-2.18-1.22-4.68-1.22-7.5s.41-5.33,1.24-7.52c.83-2.19,1.97-4.06,3.43-5.59,1.46-1.53,3.14-2.7,5.06-3.5s3.95-1.2,6.09-1.2,4.11.44,5.8,1.31c1.69.87,3.08,1.89,4.19,3.06l-3.54,4.32c-.89-.83-1.84-1.51-2.85-2.05-1.01-.54-2.16-.8-3.45-.8-1.72,0-3.26.47-4.62,1.4-1.37.94-2.44,2.28-3.22,4.02-.78,1.75-1.17,3.85-1.17,6.3s.37,4.61,1.1,6.37c.74,1.76,1.77,3.12,3.11,4.07,1.33.95,2.89,1.43,4.67,1.43,1.47,0,2.78-.31,3.93-.94,1.15-.63,2.17-1.43,3.06-2.42l3.63,4.23c-1.41,1.66-3.02,2.91-4.83,3.75-1.81.84-3.83,1.27-6.07,1.27Z"/>
      <path class="cls-1" d="M597.13,71.38v-34.09h20.88v5.7h-14.08v7.87h11.91v5.7h-11.91v9.11h14.58v5.7h-21.39Z"/>
      <path class="cls-1" d="M650.63,72.03c-2.27,0-4.49-.43-6.67-1.29-2.18-.86-4.09-2.08-5.75-3.68l3.91-4.65c1.2,1.1,2.57,2,4.12,2.69,1.55.69,3.06,1.03,4.53,1.03,1.81,0,3.17-.35,4.07-1.06s1.36-1.66,1.36-2.85c0-.86-.22-1.54-.67-2.05-.44-.51-1.05-.96-1.82-1.36-.77-.4-1.66-.8-2.67-1.2l-4.51-1.98c-1.17-.46-2.28-1.08-3.33-1.86-1.06-.78-1.92-1.77-2.6-2.97-.68-1.2-1.01-2.62-1.01-4.28,0-1.87.51-3.54,1.52-5.01s2.41-2.65,4.19-3.52,3.8-1.31,6.07-1.31c2.02,0,3.97.38,5.84,1.15,1.87.77,3.5,1.84,4.88,3.22l-3.45,4.28c-1.1-.89-2.23-1.58-3.38-2.07-1.15-.49-2.45-.74-3.89-.74s-2.64.31-3.52.94c-.87.63-1.31,1.51-1.31,2.65,0,.8.25,1.46.74,1.98.49.52,1.13.97,1.93,1.36.8.38,1.67.77,2.62,1.17l4.46,1.84c1.38.55,2.58,1.23,3.61,2.05,1.03.81,1.82,1.8,2.39,2.97.57,1.17.85,2.58.85,4.23,0,1.84-.5,3.54-1.49,5.11-1,1.56-2.42,2.82-4.28,3.77s-4.1,1.43-6.74,1.43Z"/>
      <path class="cls-1" d="M671.42,71.38v-34.09h6.81v13.48h12.88v-13.48h6.76v34.09h-6.76v-14.72h-12.88v14.72h-6.81Z"/>
      <path class="cls-1" d="M704.17,71.38l10.9-34.09h8l10.95,34.09h-7.18l-4.83-17.76c-.52-1.78-1.03-3.62-1.52-5.52-.49-1.9-.98-3.77-1.47-5.61h-.18c-.43,1.84-.9,3.71-1.4,5.61-.51,1.9-.99,3.74-1.45,5.52l-4.92,17.76h-6.9ZM710.93,62.64v-5.29h16.19v5.29h-16.19Z"/>
      <path class="cls-1" d="M740.33,71.38v-34.09h11.87c2.39,0,4.55.31,6.49.94,1.93.63,3.46,1.7,4.6,3.22,1.13,1.52,1.7,3.58,1.7,6.19s-.57,4.54-1.7,6.16c-1.14,1.63-2.67,2.81-4.6,3.56-1.93.75-4.09,1.13-6.49,1.13h-5.06v12.88h-6.81ZM747.13,53.12h4.42c2.18,0,3.85-.46,5.01-1.38,1.16-.92,1.75-2.28,1.75-4.09s-.58-3.12-1.75-3.84c-1.17-.72-2.84-1.08-5.01-1.08h-4.42v10.4ZM758.82,71.38l-7.91-14.63,4.78-4.23,10.76,18.86h-7.64Z"/>
      <path class="cls-1" d="M774,71.38v-34.09h6.81v34.09h-6.81Z"/>
      <path class="cls-1" d="M791.43,71.38v-34.09h6.95l9.89,18.17,3.45,7.36h.23c-.21-1.75-.42-3.69-.62-5.82-.2-2.13-.3-4.16-.3-6.1v-13.62h6.44v34.09h-6.9l-9.84-18.22-3.5-7.31h-.18c.15,1.84.33,3.79.53,5.84.2,2.05.3,4.06.3,6.03v13.66h-6.44Z"/>
      <path class="cls-1" d="M842.81,72.03c-3.07,0-5.83-.67-8.3-2.02-2.47-1.35-4.42-3.33-5.87-5.93-1.44-2.61-2.16-5.8-2.16-9.57,0-2.82.42-5.33,1.27-7.52.84-2.19,2.02-4.06,3.52-5.59,1.5-1.53,3.23-2.7,5.2-3.5s4.08-1.2,6.35-1.2c2.48,0,4.58.45,6.3,1.36,1.72.91,3.13,1.91,4.23,3.01l-3.63,4.32c-.86-.8-1.8-1.47-2.83-2.02-1.03-.55-2.31-.83-3.84-.83-1.9,0-3.57.47-5.01,1.4-1.44.94-2.57,2.28-3.38,4.02-.81,1.75-1.22,3.85-1.22,6.3s.38,4.61,1.15,6.37c.77,1.76,1.9,3.12,3.4,4.07,1.5.95,3.36,1.43,5.57,1.43.83,0,1.62-.11,2.39-.34.77-.23,1.38-.54,1.84-.94v-6.72h-6.03v-5.57h12.14v15.36c-1.17,1.14-2.71,2.1-4.65,2.9-1.93.8-4.08,1.2-6.44,1.2Z"/>
    </g>
  </g>
</svg>