<?xml version="1.0" encoding="UTF-8"?>
<svg id="Layer_2" data-name="Layer 2" xmlns="http://www.w3.org/2000/svg" viewBox="0 0 887.6 125.88">
  <defs>
    <style>
      .cls-1 {
        fill: #00a7e1;
      }

      .cls-2 {
        fill: #fff;
        stroke: #00a7e1;
        stroke-miterlimit: 10;
        stroke-width: 4px;
      }
    </style>
  </defs>
  <g id="_圖層_2" data-name="圖層 2">
    <g>
      <rect class="cls-2" x="2" y="2" width="883.6" height="96.08" rx="47.32" ry="47.32"/>
      <g>
        <path class="cls-1" d="M117.84,63.48c1.73-.24,3.76-.57,6.08-.99,2.32-.42,4.71-.85,7.18-1.3l.42,4.89c-2.18.45-4.35.9-6.5,1.35-2.15.45-4.18.87-6.08,1.25l-1.09-5.2ZM118.31,29.16h16.74v5.56h-16.74v-5.56ZM120.44,32.12h4.52v32.66h-4.52v-32.66ZM123.09,40.23h8.01v5.1h-8.01v-5.1ZM123.09,50.84h8.01v5.1h-8.01v-5.1ZM128.6,32.12h4.63v43.94h-4.63v-43.94ZM134.58,42.57h32.03v5.25h-32.03v-5.25ZM135.68,32.23h15.39v4.73h-15.39v-4.73ZM136.04,37.79l4.21-.73c.31.97.59,2.05.83,3.25.24,1.2.4,2.21.47,3.04l-4.42.83c-.07-.83-.2-1.85-.39-3.07-.19-1.21-.43-2.32-.7-3.33ZM136.3,49.7h4.68v22.72h-4.68v-22.72ZM138.07,49.7h12.38v20.18h-4.58v-16.02h-7.8v-4.16ZM138.33,64.47h9.72v4.16h-9.72v-4.16ZM138.43,57.08h9.67v4.16h-9.67v-4.16ZM139.42,28.17l5.15-.83c.38,1.01.78,2.11,1.2,3.33.42,1.21.69,2.25.83,3.12l-5.3,1.04c-.17-.87-.44-1.92-.81-3.17-.36-1.25-.72-2.41-1.07-3.48ZM145.35,37.01l4.78.68c-.38,1.18-.73,2.34-1.04,3.48-.31,1.14-.61,2.11-.88,2.91l-4.11-.68c.24-.94.48-2.01.73-3.22.24-1.21.42-2.27.52-3.17ZM161.94,49.33l4.73,2.44c-1.21,3.64-2.76,6.98-4.63,10.01-1.87,3.03-3.96,5.73-6.27,8.09-2.31,2.36-4.74,4.32-7.31,5.88-.35-.49-.87-1.07-1.56-1.74-.69-.68-1.32-1.24-1.87-1.69,2.43-1.46,4.73-3.3,6.92-5.54s4.14-4.82,5.88-7.75c1.73-2.93,3.1-6.16,4.11-9.7ZM152.11,27.18h5.3c-.04,4.44.03,8.72.18,12.84.16,4.13.36,7.95.62,11.47.26,3.52.57,6.6.94,9.23.36,2.64.77,4.69,1.22,6.16.45,1.47.95,2.21,1.51,2.21.31,0,.59-.55.83-1.64.24-1.09.43-2.63.57-4.6.24.38.62.81,1.12,1.27.5.47,1,.88,1.51,1.25.5.36.89.63,1.17.81-.42,2.64-.94,4.65-1.56,6.06-.62,1.4-1.27,2.37-1.95,2.89-.68.52-1.33.78-1.95.78-1.49-.03-2.77-.82-3.82-2.37-1.06-1.54-1.93-3.76-2.63-6.66-.69-2.89-1.26-6.34-1.69-10.35-.43-4-.75-8.48-.96-13.42-.21-4.94-.35-10.25-.42-15.94ZM157.57,31.81l4.32-1.51c.52,1.01,1.01,2.08,1.48,3.22.47,1.14.9,2.25,1.3,3.33.4,1.07.68,2.03.86,2.86l-4.68,1.72c-.14-.83-.39-1.8-.75-2.91-.36-1.11-.76-2.24-1.2-3.41-.43-1.16-.88-2.26-1.33-3.3Z"/>
        <path class="cls-1" d="M184.5,27.18l5.51,1.09c-.38,2.05-.87,4.08-1.46,6.11-.59,2.03-1.23,3.94-1.92,5.72-.69,1.79-1.44,3.35-2.24,4.71-.38-.28-.86-.61-1.43-.99-.57-.38-1.17-.75-1.79-1.12-.62-.36-1.18-.63-1.66-.81,1.18-1.84,2.19-4.08,3.04-6.73.85-2.65,1.5-5.31,1.95-7.98ZM180.55,45.54h21.79v5.72h-21.79v-5.72ZM181.75,53.75h4.89v11.6h12.06v5.41h-16.95v-17ZM185.18,32.69h15.96v5.72h-15.96v-5.72ZM188.92,35.81h5.46v32.4h-5.46v-32.4ZM196.67,53.81h5.04v18.67h-5.04v-18.67ZM210.97,27.18h5.82v19.03c0,2.74-.13,5.47-.39,8.19-.26,2.72-.76,5.38-1.51,7.98-.75,2.6-1.87,5.06-3.38,7.38-1.51,2.32-3.54,4.45-6.11,6.4-.31-.49-.74-1-1.27-1.53-.54-.54-1.09-1.07-1.66-1.59-.57-.52-1.1-.92-1.59-1.2,2.29-1.66,4.11-3.49,5.46-5.49,1.35-1.99,2.36-4.11,3.02-6.34.66-2.24,1.09-4.52,1.3-6.84.21-2.32.31-4.66.31-7.02v-18.98ZM203.59,50.37h25.79v5.77h-25.79v-5.77ZM204.21,35.71h22.2v17.68h-5.62v-11.91h-16.59v-5.77ZM216.95,59.37l5.1-1.92c.83,1.66,1.72,3.48,2.65,5.43.94,1.96,1.82,3.85,2.65,5.67s1.49,3.41,1.98,4.76l-5.51,2.34c-.45-1.39-1.06-3.02-1.82-4.89-.76-1.87-1.6-3.8-2.5-5.8-.9-1.99-1.75-3.86-2.55-5.59Z"/>
        <path class="cls-1" d="M266.98,26.51l5.04,3.59c-1.87,2.77-4.2,5.46-6.99,8.06-2.79,2.6-5.83,4.95-9.13,7.05-3.29,2.1-6.64,3.81-10.04,5.12-.38-.9-.94-1.93-1.66-3.09-.73-1.16-1.44-2.12-2.13-2.89,2.5-.8,4.97-1.8,7.41-3.02,2.44-1.21,4.77-2.61,6.97-4.19,2.2-1.58,4.2-3.27,6.01-5.07s3.31-3.66,4.52-5.56ZM254.5,48.71h6.6v5.93c0,1.73-.12,3.54-.36,5.43-.24,1.89-.75,3.79-1.51,5.69-.76,1.91-1.91,3.74-3.43,5.51-1.53,1.77-3.59,3.38-6.19,4.84-.35-.52-.83-1.07-1.46-1.66-.62-.59-1.27-1.15-1.95-1.69-.68-.54-1.29-.98-1.85-1.33,2.29-1.25,4.11-2.56,5.46-3.95,1.35-1.39,2.37-2.83,3.04-4.32.68-1.49,1.12-2.97,1.33-4.45.21-1.47.31-2.89.31-4.24v-5.77ZM270.15,30.41c1.11,1.49,2.46,2.91,4.06,4.26,1.59,1.35,3.37,2.6,5.33,3.74,1.96,1.14,4.05,2.17,6.27,3.07,2.22.9,4.51,1.63,6.86,2.18-.49.45-1.01,1.03-1.59,1.74-.57.71-1.12,1.43-1.64,2.16s-.94,1.4-1.25,2.03c-2.46-.76-4.82-1.71-7.07-2.83-2.25-1.13-4.39-2.41-6.4-3.85-2.01-1.44-3.87-3.02-5.59-4.76-1.72-1.73-3.23-3.57-4.55-5.51l5.56-2.24ZM274.1,48.61h6.66v27.46h-6.66v-27.46Z"/>
        <path class="cls-1" d="M306.7,47.83c-.1-.35-.26-.86-.47-1.53-.21-.68-.43-1.36-.68-2.05-.24-.69-.49-1.28-.73-1.77.52-.14,1.02-.45,1.51-.94s.99-1.11,1.51-1.87c.28-.38.68-1,1.22-1.87.54-.87,1.12-1.89,1.74-3.07.62-1.18,1.25-2.44,1.87-3.8s1.18-2.72,1.66-4.11l5.67,2.34c-1.32,2.81-2.85,5.61-4.6,8.4-1.75,2.79-3.51,5.23-5.28,7.31v.1c-.69.42-1.27.77-1.72,1.07-.45.29-.85.61-1.2.94-.35.33-.52.62-.52.86ZM307.22,61.55l5.1.83c-.17,2.32-.46,4.64-.86,6.94-.4,2.31-.88,4.26-1.43,5.85-.38-.21-.88-.42-1.48-.65-.61-.23-1.22-.43-1.85-.62-.62-.19-1.16-.36-1.61-.49.62-1.53,1.09-3.35,1.4-5.49s.55-4.25.73-6.37ZM307.12,59.94c-.1-.42-.27-.96-.49-1.64-.23-.68-.47-1.39-.73-2.13-.26-.75-.51-1.38-.75-1.9.69-.14,1.36-.5,2-1.09.64-.59,1.38-1.35,2.21-2.29.45-.49,1.1-1.27,1.95-2.34.85-1.07,1.79-2.35,2.83-3.82,1.04-1.47,2.08-3.07,3.12-4.78,1.04-1.72,1.98-3.46,2.81-5.23l5.3,3.38c-1.35,2.25-2.83,4.51-4.42,6.76-1.59,2.25-3.27,4.39-5.02,6.42-1.75,2.03-3.51,3.89-5.28,5.59v.16c-.69.38-1.28.73-1.77,1.04-.49.31-.9.63-1.25.96-.35.33-.52.63-.52.91ZM306.7,47.83l-.16-4.21,2.55-1.66,9.05-.62c-.17.73-.31,1.57-.42,2.52-.1.95-.16,1.74-.16,2.37-2.05.21-3.71.38-4.99.52-1.28.14-2.31.28-3.09.42-.78.14-1.38.26-1.79.36s-.75.21-.99.31ZM307.12,59.94l-.26-4.37,2.6-1.72,13.73-1.66c-.14.73-.24,1.57-.31,2.52-.07.95-.09,1.73-.05,2.31-3.09.45-5.59.82-7.51,1.12-1.92.29-3.42.55-4.5.75-1.07.21-1.88.39-2.42.55-.54.16-.96.32-1.27.49ZM313.41,62.23l4.73-.88c.35,1.8.65,3.74.91,5.82.26,2.08.44,3.88.55,5.41l-4.99,1.04c0-1.04-.06-2.21-.18-3.51-.12-1.3-.27-2.64-.44-4.03-.17-1.39-.36-2.67-.57-3.85ZM318.51,48.61l4.58-1.46c.45,1.18.89,2.44,1.33,3.77.43,1.33.83,2.63,1.2,3.87.36,1.25.63,2.34.81,3.28l-4.89,1.72c-.17-.94-.42-2.05-.73-3.35-.31-1.3-.66-2.63-1.04-3.98-.38-1.35-.8-2.63-1.25-3.85ZM319.24,61.19l4.52-1.46c.55,1.49,1.09,3.1,1.61,4.84.52,1.73.9,3.26,1.14,4.58l-4.73,1.66c-.21-1.32-.55-2.87-1.04-4.65-.49-1.79-.99-3.44-1.51-4.97ZM334.32,31.97h6.14c-.17,2.18-.45,4.28-.83,6.29-.38,2.01-.97,3.91-1.77,5.69-.8,1.79-1.89,3.42-3.28,4.91-1.39,1.49-3.17,2.83-5.36,4-.35-.76-.89-1.61-1.64-2.55-.75-.94-1.45-1.66-2.11-2.18,2.43-1.18,4.23-2.6,5.41-4.26,1.18-1.66,2-3.51,2.47-5.54.47-2.03.79-4.15.96-6.37ZM326.1,29.63h21.58v5.46h-21.58v-5.46ZM327.51,53.96h23.97v21.89h-6.4v-16.43h-11.49v16.64h-6.08v-22.1ZM330.89,68.31h16.9v5.41h-16.9v-5.41ZM347.06,29.63h5.93c-.04,1.18-.07,1.96-.1,2.34-.17,3.67-.36,6.68-.57,9.02s-.47,4.16-.78,5.46c-.31,1.3-.69,2.25-1.14,2.83-.52.66-1.08,1.13-1.66,1.4-.59.28-1.28.47-2.08.57-.66.1-1.52.17-2.57.21-1.06.04-2.19.02-3.41-.05-.03-.87-.2-1.84-.49-2.91-.29-1.07-.68-2.01-1.17-2.81,1.01.1,1.92.17,2.76.18.83.02,1.47.03,1.92.03.35,0,.65-.04.91-.13.26-.09.51-.25.75-.49.28-.31.52-.99.73-2.03s.39-2.59.55-4.65c.16-2.06.3-4.76.44-8.09v-.88Z"/>
        <path class="cls-1" d="M376.49,86.2V26.97h5.1v59.23h-5.1Z"/>
        <path class="cls-1" d="M414.03,72.03c-2.48,0-4.58-.5-6.28-1.5s-3.12-2.49-4.25-4.48l4.65-3.45c.67,1.23,1.44,2.12,2.3,2.69.86.57,1.78.85,2.76.85,1.53,0,2.67-.46,3.43-1.38.75-.92,1.13-2.56,1.13-4.92v-22.54h6.81v23.09c0,2.15-.37,4.1-1.1,5.87-.74,1.76-1.88,3.17-3.43,4.21-1.55,1.04-3.55,1.56-6,1.56Z"/>
        <path class="cls-1" d="M448.57,72.03c-3.01,0-5.65-.71-7.94-2.14-2.28-1.43-4.07-3.47-5.36-6.14-1.29-2.67-1.93-5.84-1.93-9.52s.64-6.87,1.93-9.48c1.29-2.61,3.07-4.6,5.36-5.98,2.28-1.38,4.93-2.07,7.94-2.07s5.65.7,7.94,2.09c2.28,1.4,4.07,3.39,5.36,5.98,1.29,2.59,1.93,5.74,1.93,9.45s-.64,6.85-1.93,9.52c-1.29,2.67-3.07,4.72-5.36,6.14-2.29,1.43-4.93,2.14-7.94,2.14ZM448.57,66.14c1.69,0,3.15-.49,4.39-1.47s2.2-2.37,2.88-4.16c.67-1.79,1.01-3.89,1.01-6.28s-.34-4.55-1.01-6.3c-.67-1.75-1.63-3.08-2.88-4s-2.71-1.38-4.39-1.38-3.15.46-4.39,1.38c-1.24.92-2.2,2.25-2.88,4-.67,1.75-1.01,3.85-1.01,6.3s.34,4.49,1.01,6.28c.67,1.79,1.63,3.18,2.88,4.16,1.24.98,2.71,1.47,4.39,1.47Z"/>
        <path class="cls-1" d="M472.77,71.38v-34.09h11.27c2.33,0,4.42.26,6.28.78,1.86.52,3.33,1.4,4.42,2.62,1.09,1.23,1.63,2.9,1.63,5.01,0,1.04-.18,2.06-.55,3.06-.37,1-.9,1.88-1.59,2.65-.69.77-1.53,1.32-2.51,1.66v.23c1.84.43,3.36,1.3,4.55,2.62,1.2,1.32,1.79,3.13,1.79,5.43s-.57,4.15-1.72,5.63c-1.15,1.49-2.72,2.59-4.72,3.31-1.99.72-4.23,1.08-6.72,1.08h-12.14ZM479.58,51.19h4c2.15,0,3.71-.41,4.69-1.22.98-.81,1.47-1.89,1.47-3.24,0-1.5-.51-2.58-1.52-3.22-1.01-.64-2.55-.97-4.6-.97h-4.05v8.65ZM479.58,66.14h4.74c2.33,0,4.1-.43,5.31-1.29,1.21-.86,1.82-2.16,1.82-3.91,0-1.66-.61-2.86-1.82-3.61-1.21-.75-2.98-1.13-5.31-1.13h-4.74v9.94Z"/>
        <path class="cls-1" d="M532.66,72.03c-3.01,0-5.65-.71-7.94-2.14-2.28-1.43-4.07-3.47-5.36-6.14-1.29-2.67-1.93-5.84-1.93-9.52s.64-6.87,1.93-9.48c1.29-2.61,3.07-4.6,5.36-5.98,2.28-1.38,4.93-2.07,7.94-2.07s5.65.7,7.94,2.09c2.28,1.4,4.07,3.39,5.36,5.98,1.29,2.59,1.93,5.74,1.93,9.45s-.64,6.85-1.93,9.52c-1.29,2.67-3.07,4.72-5.36,6.14-2.29,1.43-4.93,2.14-7.94,2.14ZM532.66,66.14c1.69,0,3.15-.49,4.39-1.47s2.2-2.37,2.88-4.16c.67-1.79,1.01-3.89,1.01-6.28s-.34-4.55-1.01-6.3c-.67-1.75-1.63-3.08-2.88-4s-2.71-1.38-4.39-1.38-3.15.46-4.39,1.38c-1.24.92-2.2,2.25-2.88,4-.67,1.75-1.01,3.85-1.01,6.3s.34,4.49,1.01,6.28c.67,1.79,1.63,3.18,2.88,4.16,1.24.98,2.71,1.47,4.39,1.47Z"/>
        <path class="cls-1" d="M556.86,71.38v-34.09h11.18c2.51,0,4.78.34,6.79,1.01,2.01.68,3.6,1.79,4.78,3.36,1.18,1.56,1.77,3.68,1.77,6.35s-.59,4.7-1.77,6.37c-1.18,1.67-2.76,2.91-4.74,3.7-1.98.8-4.19,1.2-6.65,1.2h-4.55v12.1h-6.81ZM563.67,53.9h4.09c2.33,0,4.07-.49,5.22-1.47,1.15-.98,1.73-2.45,1.73-4.42s-.61-3.33-1.82-4.12c-1.21-.78-2.98-1.17-5.31-1.17h-3.91v11.18Z"/>
        <path class="cls-1" d="M589.89,71.38v-34.09h20.88v5.7h-14.08v7.87h11.91v5.7h-11.91v9.11h14.58v5.7h-21.39Z"/>
        <path class="cls-1" d="M620.47,71.38v-34.09h6.95l9.89,18.17,3.45,7.36h.23c-.21-1.75-.42-3.69-.62-5.82-.2-2.13-.3-4.16-.3-6.1v-13.62h6.44v34.09h-6.9l-9.84-18.22-3.5-7.31h-.18c.15,1.84.33,3.79.53,5.84.2,2.05.3,4.06.3,6.03v13.66h-6.44Z"/>
        <path class="cls-1" d="M657.23,71.38v-34.09h6.81v34.09h-6.81Z"/>
        <path class="cls-1" d="M674.66,71.38v-34.09h6.95l9.89,18.17,3.45,7.36h.23c-.21-1.75-.42-3.69-.62-5.82-.2-2.13-.3-4.16-.3-6.1v-13.62h6.44v34.09h-6.9l-9.84-18.22-3.5-7.31h-.18c.15,1.84.33,3.79.53,5.84.2,2.05.3,4.06.3,6.03v13.66h-6.44Z"/>
        <path class="cls-1" d="M726.04,72.03c-3.07,0-5.83-.67-8.3-2.02-2.47-1.35-4.42-3.33-5.87-5.93-1.44-2.61-2.16-5.8-2.16-9.57,0-2.82.42-5.33,1.27-7.52.84-2.19,2.02-4.06,3.52-5.59,1.5-1.53,3.23-2.7,5.2-3.5,1.96-.8,4.08-1.2,6.35-1.2,2.48,0,4.58.45,6.3,1.36,1.72.91,3.13,1.91,4.23,3.01l-3.63,4.32c-.86-.8-1.8-1.47-2.83-2.02-1.03-.55-2.31-.83-3.84-.83-1.9,0-3.57.47-5.01,1.4-1.44.94-2.57,2.28-3.38,4.02-.81,1.75-1.22,3.85-1.22,6.3s.38,4.61,1.15,6.37c.77,1.76,1.9,3.12,3.4,4.07,1.5.95,3.36,1.43,5.57,1.43.83,0,1.63-.11,2.39-.34.77-.23,1.38-.54,1.84-.94v-6.72h-6.03v-5.57h12.14v15.36c-1.17,1.14-2.71,2.1-4.65,2.9-1.93.8-4.08,1.2-6.44,1.2Z"/>
        <path class="cls-1" d="M756.86,72.03c-2.27,0-4.49-.43-6.67-1.29-2.18-.86-4.09-2.08-5.75-3.68l3.91-4.65c1.2,1.1,2.57,2,4.12,2.69,1.55.69,3.06,1.03,4.53,1.03,1.81,0,3.17-.35,4.07-1.06.9-.71,1.36-1.66,1.36-2.85,0-.86-.22-1.54-.67-2.05-.44-.51-1.05-.96-1.82-1.36-.77-.4-1.66-.8-2.67-1.2l-4.51-1.98c-1.17-.46-2.28-1.08-3.33-1.86-1.06-.78-1.92-1.77-2.6-2.97-.68-1.2-1.01-2.62-1.01-4.28,0-1.87.51-3.54,1.52-5.01,1.01-1.47,2.41-2.65,4.19-3.52,1.78-.87,3.8-1.31,6.07-1.31,2.02,0,3.97.38,5.84,1.15,1.87.77,3.5,1.84,4.88,3.22l-3.45,4.28c-1.1-.89-2.23-1.58-3.38-2.07-1.15-.49-2.45-.74-3.89-.74s-2.65.31-3.52.94c-.87.63-1.31,1.51-1.31,2.65,0,.8.25,1.46.74,1.98.49.52,1.13.97,1.93,1.36.8.38,1.67.77,2.62,1.17l4.46,1.84c1.38.55,2.58,1.23,3.61,2.05,1.03.81,1.82,1.8,2.39,2.97.57,1.17.85,2.58.85,4.23,0,1.84-.5,3.54-1.49,5.11-1,1.56-2.42,2.82-4.28,3.77s-4.1,1.43-6.74,1.43Z"/>
      </g>
    </g>
  </g>
</svg>