<?xml version="1.0" encoding="UTF-8"?>
<svg id="Layer_2" data-name="Layer 2" xmlns="http://www.w3.org/2000/svg" viewBox="0 0 390.18 86.94">
  <defs>
    <style>
      .cls-1 {
        fill: #fff;
      }
    </style>
  </defs>
  <g id="_圖層_1" data-name="圖層 1">
    <g>
      <path class="cls-1" d="M196.94,86.71L233.34,8.63c.52-1.12,1.53-1.24,1.94-1.24s1.42.12,1.95,1.24l36.4,78.07h8.16L243.93,5.51c-1.59-3.4-4.9-5.51-8.65-5.51s-7.06,2.11-8.65,5.51l-37.86,81.2h8.16Z"/>
      <path class="cls-1" d="M116.25,79.33c-1.23,0-2.23-1-2.23-2.23V0h-7.37v77.1c0,5.3,4.31,9.61,9.61,9.61h58.45v-7.37h-58.45Z"/>
      <path class="cls-1" d="M78.23,86.71h9.36l-36.72-47L81.89,0h-9.36L10.99,78.77c-.8,1.03-1.84.81-2.25.67-.41-.14-1.36-.61-1.36-1.91V0H0v77.53c0,4.07,2.49,7.55,6.33,8.88,1.04.36,2.09.53,3.12.53,2.82,0,5.51-1.28,7.34-3.63l29.39-37.62,32.04,41.01Z"/>
      <path class="cls-1" d="M390.18,86.71h-86.71V0h86.71v86.71ZM383.67,39.26h-32.75V6.5h-8.19v32.76h-32.76v8.19h32.76v32.75h8.19v-32.75h32.75v-8.19Z"/>
    </g>
  </g>
</svg>