<?xml version="1.0" encoding="UTF-8"?>
<svg id="Layer_2" data-name="Layer 2" xmlns="http://www.w3.org/2000/svg" viewBox="0 0 70.47 60.58">
  <defs>
    <style>
      .cls-1 {
        fill: #10a6e0;
      }
    </style>
  </defs>
  <g id="Layer_1-2" data-name="Layer 1">
    <path class="cls-1" d="M46.85,14.13c-.8,0-1.45-.66-1.45-1.48v-5.72c0-2.19-1.74-3.97-3.88-3.97h-12.56c-2.14,0-3.88,1.78-3.88,3.97v5.72c0,.82-.65,1.48-1.45,1.48s-1.45-.66-1.45-1.48v-5.72c0-3.82,3.04-6.93,6.78-6.93h12.56c3.74,0,6.78,3.11,6.78,6.93v5.72c0,.82-.65,1.48-1.45,1.48Z"/>
    <path class="cls-1" d="M11.32,28.98c.53.32,1.14.49,1.76.49h44.31c.62,0,1.23-.17,1.76-.49l11.32-6.84v-7.54c0-2.54-2.04-4.62-4.52-4.62H4.52c-2.49,0-4.52,2.08-4.52,4.62v7.54l11.32,6.84Z"/>
    <path class="cls-1" d="M60.63,31.53c-.98.59-2.1.91-3.24.91h-13.2v5.19c0,3.19-2.53,5.77-5.64,5.77h-6.62c-3.12,0-5.64-2.58-5.64-5.77v-5.19h-13.2c-1.14,0-2.26-.31-3.24-.91L0,25.58v30.38c0,2.54,2.04,4.62,4.52,4.62h61.42c2.49,0,4.52-2.08,4.52-4.62v-30.38l-9.84,5.95Z"/>
    <path class="cls-1" d="M38.44,40.33h-6.41c-1.33,0-2.42-1.74-2.42-3.86h0c0-2.12,1.09-3.86,2.42-3.86h6.41c1.33,0,2.42,1.74,2.42,3.86h0c0,2.12-1.09,3.86-2.42,3.86Z"/>
  </g>
</svg>