<?xml version="1.0" encoding="UTF-8"?>
<svg id="Layer_2" data-name="Layer 2" xmlns="http://www.w3.org/2000/svg" viewBox="0 0 54.66 67.44">
  <defs>
    <style>
      .cls-1 {
        fill: #333;
      }
    </style>
  </defs>
  <g id="Layer_1-2" data-name="Layer 1">
    <g>
      <path class="cls-1" d="M44.3,63.42c-.73,0-1.32-.59-1.32-1.32V20.13c0-.15-.06-.29-.16-.39l-7.89-7.89c-.1-.1-.24-.16-.39-.16H5.34c-.73,0-1.32-.59-1.32-1.32s.59-1.32,1.32-1.32h29.19c.85,0,1.66.33,2.26.94l7.89,7.89c.6.6.94,1.4.94,2.26v41.97c0,.73-.59,1.32-1.32,1.32Z"/>
      <path class="cls-1" d="M48.82,58.9c-.73,0-1.32-.59-1.32-1.32V15.61c0-.15-.06-.29-.16-.39l-7.89-7.89c-.1-.1-.24-.16-.39-.16H9.86c-.73,0-1.32-.59-1.32-1.32s.59-1.32,1.32-1.32h29.19c.85,0,1.65.33,2.26.94l7.89,7.89c.59.59.94,1.42.94,2.26v41.97c0,.73-.59,1.32-1.32,1.32Z"/>
      <path class="cls-1" d="M53.34,54.38c-.73,0-1.32-.59-1.32-1.32V11.09c0-.15-.06-.29-.16-.39l-7.89-7.89c-.1-.1-.25-.16-.39-.16H14.39c-.73,0-1.32-.59-1.32-1.32s.59-1.32,1.32-1.32h29.19c.84,0,1.66.34,2.26.94l7.89,7.89c.6.6.94,1.41.94,2.26v41.97c0,.73-.59,1.32-1.32,1.32Z"/>
      <path class="cls-1" d="M40.33,24.63h-7.67c-1.45,0-2.62-1.18-2.62-2.62v-7.67c0-.41.34-.75.75-.75s.75.34.75.75v7.67c0,.62.5,1.12,1.12,1.12h7.67c.41,0,.75.34.75.75s-.34.75-.75.75Z"/>
      <g>
        <path class="cls-1" d="M33.46,22.05h6.6l-7.49-7.49v6.6c0,.49.4.89.89.89Z"/>
        <path class="cls-1" d="M33.46,24.16c-1.66,0-3.01-1.35-3.01-3v-7.32H1.87c-1.03,0-1.87.84-1.87,1.87v49.86c0,1.03.84,1.87,1.87,1.87h37.08c1.03,0,1.87-.84,1.87-1.87V24.16h-7.37ZM4.87,20.73h22.1c.44,0,.79.35.79.79s-.35.79-.79.79H4.87c-.44,0-.79-.35-.79-.79s.35-.79.79-.79ZM35.96,58.06H4.87c-.44,0-.79-.35-.79-.79s.35-.79.79-.79h31.09c.44,0,.79.35.79.79s-.35.79-.79.79ZM35.96,52.1H4.87c-.44,0-.79-.35-.79-.79s.35-.79.79-.79h31.09c.44,0,.79.35.79.79s-.35.79-.79.79ZM35.96,46.14H4.87c-.44,0-.79-.35-.79-.79s.35-.79.79-.79h31.09c.44,0,.79.35.79.79s-.35.79-.79.79ZM35.96,40.18H4.87c-.44,0-.79-.35-.79-.79s.35-.79.79-.79h31.09c.44,0,.79.35.79.79s-.35.79-.79.79ZM35.96,34.23H4.87c-.44,0-.79-.35-.79-.79s.35-.79.79-.79h31.09c.44,0,.79.35.79.79s-.35.79-.79.79ZM35.96,28.27H4.87c-.44,0-.79-.35-.79-.79s.35-.79.79-.79h31.09c.44,0,.79.35.79.79s-.35.79-.79.79Z"/>
      </g>
    </g>
  </g>
</svg>