<?xml version="1.0" encoding="UTF-8"?>
<svg id="Layer_2" data-name="Layer 2" xmlns="http://www.w3.org/2000/svg" viewBox="0 0 70.9 70.9">
  <defs>
    <style>
      .cls-1 {
        fill: #333;
      }
    </style>
  </defs>
  <g id="Layer_1-2" data-name="Layer 1">
    <path class="cls-1" d="M35.45,0C15.87,0,0,15.87,0,35.45s15.87,35.45,35.45,35.45,35.45-15.87,35.45-35.45S55.03,0,35.45,0ZM35.45,16.28c6.81,0,12.33,5.52,12.33,12.33s-5.52,12.33-12.33,12.33-12.33-5.52-12.33-12.33,5.52-12.33,12.33-12.33ZM35.45,65.38c-8.88,0-16.94-3.51-22.89-9.2,5.94-5.7,14-9.21,22.89-9.21s16.94,3.51,22.89,9.21c-5.94,5.7-14,9.2-22.89,9.2Z"/>
  </g>
</svg>