<?xml version="1.0" encoding="UTF-8"?>
<svg id="Layer_2" data-name="Layer 2" xmlns="http://www.w3.org/2000/svg" viewBox="0 0 72.01 67.25">
  <defs>
    <style>
      .cls-1 {
        fill: #10a6e0;
      }
    </style>
  </defs>
  <g id="Layer_1-2" data-name="Layer 1">
    <g>
      <path class="cls-1" d="M47.87,14.13c-.82,0-1.48-.66-1.48-1.48v-5.72c0-2.19-1.78-3.97-3.97-3.97h-12.83c-2.19,0-3.97,1.78-3.97,3.97v5.72c0,.82-.66,1.48-1.48,1.48s-1.48-.66-1.48-1.48v-5.72c0-3.82,3.11-6.93,6.93-6.93h12.83c3.82,0,6.93,3.11,6.93,6.93v5.72c0,.82-.66,1.48-1.48,1.48Z"/>
      <g>
        <path class="cls-1" d="M11.56,35.65c.55.32,1.17.49,1.8.49h45.28c.63,0,1.26-.17,1.8-.49l11.56-6.84v-7.54c0-2.54-2.08-4.62-4.62-4.62H4.62c-2.54,0-4.62,2.08-4.62,4.62v7.54l11.56,6.84Z"/>
        <path class="cls-1" d="M61.95,38.2c-1,.59-2.15.91-3.31.91h-13.49v5.19c0,3.19-2.58,5.77-5.77,5.77h-6.76c-3.19,0-5.77-2.58-5.77-5.77v-5.19h-13.49c-1.16,0-2.31-.31-3.31-.91L0,32.25v30.38c0,2.54,2.08,4.62,4.62,4.62h62.76c2.54,0,4.62-2.08,4.62-4.62v-30.38l-10.05,5.95Z"/>
      </g>
      <path class="cls-1" d="M39.28,47h-6.55c-1.36,0-2.47-1.11-2.47-2.47h0c0-1.36,1.11-2.47,2.47-2.47h6.55c1.36,0,2.47,1.11,2.47,2.47h0c0,1.36-1.11,2.47-2.47,2.47Z"/>
    </g>
  </g>
</svg>