<?xml version="1.0" encoding="UTF-8"?>
<svg id="Layer_2" data-name="Layer 2" xmlns="http://www.w3.org/2000/svg" viewBox="0 0 72.09 55.59">
  <defs>
    <style>
      .cls-1 {
        fill: #10a6e0;
      }
    </style>
  </defs>
  <g id="Layer_1-2" data-name="Layer 1">
    <path class="cls-1" d="M36.04,7.3c1.01,0,1.83-.82,1.83-1.83,0-.05-.01-.1-.02-.16h-3.63c0,.05-.02.1-.02.16,0,1.01.82,1.83,1.83,1.83Z"/>
    <path class="cls-1" d="M65.32,5.31h-27.46c0,.05.02.1.02.16,0,1.01-.82,1.83-1.83,1.83s-1.83-.82-1.83-1.83c0-.05.01-.1.02-.16H6.76c-.26,0-.48.22-.48.48v3.48h59.52v-3.48c0-.26-.21-.48-.48-.48Z"/>
    <path class="cls-1" d="M68.23,0H3.85C1.73,0,0,1.9,0,4.23v47.12c0,2.33,1.73,4.23,3.85,4.23h64.38c2.12,0,3.85-1.9,3.85-4.23V4.23c0-2.33-1.73-4.23-3.85-4.23ZM65.8,49.22c0,.29-.21.53-.48.53H6.76c-.26,0-.48-.24-.48-.53V6.36c0-.29.21-.53.48-.53h27.46c.08-1.03.86-1.84,1.81-1.84s1.73.81,1.81,1.84h27.46c.26,0,.48.24.48.53v42.86Z"/>
    <circle class="cls-1" cx="36.04" cy="5.47" r="1.83"/>
    <path class="cls-1" d="M58.92,44.44c-.45,0-.89-.23-1.14-.65l-3.08-5.14c-.38-.63-.17-1.45.46-1.83.63-.38,1.45-.17,1.83.46l3.08,5.14c.38.63.17,1.45-.46,1.83-.21.13-.45.19-.68.19Z"/>
    <path class="cls-1" d="M52.66,41.67l-2.15-11.1c-.14-.74.72-1.26,1.31-.78l8.77,7.14c.6.49.24,1.47-.54,1.44l-3.55-.13c-.32-.01-.62.17-.76.45l-1.56,3.19c-.34.7-1.38.56-1.53-.2Z"/>
    <path class="cls-1" d="M13.65,38.12h26.29c.52,0,.94.72.94,1.62s-.42,1.62-.94,1.62H13.65c-.52,0-.94-.72-.94-1.62s.42-1.62.94-1.62Z"/>
    <path class="cls-1" d="M13.8,27.65h30.45c.6,0,1.09.72,1.09,1.62s-.49,1.62-1.09,1.62H13.8c-.6,0-1.09-.72-1.09-1.62s.49-1.62,1.09-1.62Z"/>
    <path class="cls-1" d="M53.49,20.41H13.72c-.56,0-1.01-.72-1.01-1.62s.45-1.62,1.01-1.62h39.77c.56,0,1.01.72,1.01,1.62s-.45,1.62-1.01,1.62Z"/>
  </g>
</svg>