<?xml version="1.0" encoding="UTF-8"?>
<svg id="Layer_2" data-name="Layer 2" xmlns="http://www.w3.org/2000/svg" viewBox="0 0 65.72 64.38">
  <defs>
    <style>
      .cls-1 {
        fill: #333;
      }
    </style>
  </defs>
  <g id="Layer_1-2" data-name="Layer 1">
    <g>
      <path class="cls-1" d="M62.92,64.38H1.46c-.81,0-1.46-.66-1.46-1.46V1.46C0,.65.65,0,1.46,0s1.46.65,1.46,1.46v59.99h59.99c.81,0,1.46.65,1.46,1.46s-.66,1.46-1.46,1.46Z"/>
      <g>
        <path class="cls-1" d="M2.29,38.36l-1.64-2.42L31.4,15.03c.72-.49,1.64-.54,2.41-.15l11.02,5.68,12.14-13.22,2.16,1.98-12.43,13.54c-.72.78-1.88.99-2.82.5l-11.1-5.72L2.29,38.36Z"/>
        <path class="cls-1" d="M65.66,1.26l-4.88,13.17c-.3.8-1.44.77-1.7-.05l-1.52-4.87c-.1-.31-.35-.54-.66-.61l-4.98-1.1c-.84-.18-.96-1.32-.19-1.69L64.44.14c.73-.34,1.5.37,1.22,1.12Z"/>
      </g>
      <polygon class="cls-1" points="9.44 39.59 9.44 56.53 17.67 56.53 17.67 33.99 9.44 39.59"/>
      <polygon class="cls-1" points="21.93 31.1 21.93 56.53 30.16 56.53 30.16 25.51 21.93 31.1"/>
      <polygon class="cls-1" points="34.42 24.49 34.42 56.53 42.65 56.53 42.65 28.73 34.42 24.49"/>
      <polygon class="cls-1" points="46.9 29.04 46.9 56.53 55.13 56.53 55.13 20.08 46.9 29.04"/>
    </g>
  </g>
</svg>