<?xml version="1.0" encoding="UTF-8"?>
<svg id="Layer_2" data-name="Layer 2" xmlns="http://www.w3.org/2000/svg" viewBox="0 0 49.68 67.44">
  <defs>
    <style>
      .cls-1 {
        fill: #10a6e0;
      }
    </style>
  </defs>
  <g id="Layer_1-2" data-name="Layer 1">
    <g>
      <path class="cls-1" d="M24.84,35.34c-5.9,0-10.51-4.96-12.97-9.8-1.82-.76-3.48-2.75-4.23-4.45-1.28-2.94-.49-6.02,1.79-7.04C10.27,6.09,16.84,0,24.84,0s14.57,6.09,15.4,14.06c2.29,1.02,3.08,4.1,1.79,7.04-.74,1.7-2.41,3.69-4.23,4.45-2.47,4.84-7.08,9.8-12.97,9.8ZM24.84,2.88c-6.81,0-12.35,5.44-12.61,12.38l-.05,1.3-1.3.08c-.16,0-.23.03-.27.05-.7.3-.99,1.77-.33,3.27.65,1.5,2.08,2.83,2.93,3.02l.68.15.3.63c2.01,4.21,5.87,8.72,10.65,8.72s8.64-4.5,10.65-8.72l.3-.63.68-.15c.84-.19,2.27-1.52,2.93-3.02.65-1.5.36-2.96-.33-3.27-.04-.02-.12-.04-.27-.05l-1.3-.08-.05-1.3c-.26-6.94-5.8-12.38-12.61-12.38Z"/>
      <path class="cls-1" d="M36.2,36.05l-5.79,21.53h-11.14l-5.79-21.53c-7.72,1.95-13.48,8.98-13.48,17.28v14.11h49.68v-14.11c0-8.31-5.76-15.33-13.48-17.28Z"/>
      <path class="cls-1" d="M24.84,38.7h0c1,0,1.84.77,1.91,1.77l1.79,23.28c-.42.32-.85.5-1.3.5h-4.81c-.44,0-.88-.18-1.3-.5l1.79-23.28c.08-1,.91-1.77,1.91-1.77Z"/>
      <g>
        <path class="cls-1" d="M37.79,10.18c-2.13-5.14-7.12-8.74-12.95-8.74s-10.81,3.61-12.95,8.74h25.89Z"/>
        <path class="cls-1" d="M38.65,10.76H11.03l.33-.8C13.66,4.43,18.95.86,24.84.86s11.18,3.57,13.48,9.1l.33.8ZM12.78,9.61h24.11c-2.27-4.64-6.92-7.59-12.06-7.59s-9.78,2.95-12.06,7.59Z"/>
      </g>
    </g>
  </g>
</svg>